<?xml version="1.0" encoding="UTF-8" standalone="no"?><!DOCTYPE svg PUBLIC "-//W3C//DTD SVG 1.1//EN" "http://www.w3.org/Graphics/SVG/1.1/DTD/svg11.dtd"><svg width="100%" height="100%" viewBox="0 0 4167 1459" version="1.1" xmlns="http://www.w3.org/2000/svg" xmlns:xlink="http://www.w3.org/1999/xlink" xml:space="preserve" xmlns:serif="http://www.serif.com/" style="fill-rule:evenodd;clip-rule:evenodd;stroke-linecap:round;stroke-linejoin:round;stroke-miterlimit:1.5;"><g><g><g><g><path d="M964.387,464.832c15.975,0 28.206,3.12 36.693,9.36c8.486,6.241 14.602,13.978 18.346,23.214c3.744,9.236 5.991,19.594 6.739,31.076c0.749,11.483 1.124,22.465 1.124,32.949l0,494.228c0,6.989 -1.748,13.105 -5.242,18.346c-3.495,5.242 -8.986,7.863 -16.474,7.863l-64.4,0c-7.488,0 -12.855,-2.621 -16.1,-7.863c-3.245,-5.241 -4.867,-11.357 -4.867,-18.346l0,-450.796l-3.744,0l-130.297,319.002c-4.493,11.482 -9.235,22.59 -14.227,33.323c-4.993,10.733 -11.233,20.218 -18.721,28.455c-7.489,8.237 -16.724,14.852 -27.707,19.844c-10.983,4.993 -24.961,7.489 -41.934,7.489c-11.982,0 -22.715,-1.124 -32.2,-3.37c-9.485,-2.247 -18.222,-6.49 -26.209,-12.73c-7.988,-6.24 -15.601,-15.226 -22.84,-26.958c-7.238,-11.732 -14.602,-27.083 -22.09,-46.053l-130.296,-319.002l-3.745,0l0,450.796c0,6.989 -1.622,13.105 -4.867,18.346c-3.245,5.242 -8.612,7.863 -16.1,7.863l-64.399,0c-7.489,0 -12.98,-2.621 -16.475,-7.863c-3.494,-5.241 -5.241,-11.357 -5.241,-18.346l0,-494.228c0,-11.981 0.499,-23.838 1.497,-35.569c0.999,-11.732 3.495,-22.091 7.489,-31.077c3.993,-8.986 10.234,-16.225 18.72,-21.716c8.487,-5.491 20.468,-8.237 35.944,-8.237l68.893,0c13.479,0 24.212,1.622 32.199,4.867c7.988,3.245 14.478,7.988 19.47,14.228c4.992,6.24 8.986,13.729 11.981,22.465c2.996,8.736 6.74,18.346 11.233,28.83l133.291,333.978l8.238,0l134.789,-333.978c4.493,-10.484 8.237,-20.094 11.232,-28.83c2.996,-8.736 6.99,-16.1 11.982,-22.091c4.992,-5.99 11.357,-10.733 19.095,-14.227c7.738,-3.495 18.346,-5.242 31.825,-5.242l67.395,0Z" style="fill:#004098;fill-rule:nonzero;"/><path d="M1161.33,794.317c-12.48,0 -18.72,-6.739 -18.72,-20.218l0,-43.432c0,-13.479 6.24,-20.219 18.72,-20.219l229.891,0c12.481,0 18.721,6.74 18.721,20.219l0,43.432c0,13.479 -6.24,20.218 -18.721,20.218l-229.891,0Z" style="fill:#004098;fill-rule:nonzero;"/><path d="M1919.15,825.019c2.995,4.493 8.237,13.105 15.725,25.835c7.488,12.73 16.225,27.457 26.209,44.181c9.984,16.724 20.343,34.196 31.077,52.418c10.733,18.222 20.717,35.445 29.953,51.669c9.235,16.225 16.724,29.953 22.465,41.186c5.741,11.232 8.611,18.346 8.611,21.342c0,5.491 -1.248,10.234 -3.744,14.227c-2.496,3.994 -6.989,5.991 -13.479,5.991l-82.371,0c-5.991,0 -10.733,-1.123 -14.228,-3.37c-3.495,-2.246 -6.739,-6.115 -9.735,-11.607l-135.538,-239.625l-158.003,0l0,228.393c0,6.989 -1.623,13.105 -4.868,18.346c-3.245,5.242 -8.611,7.863 -16.1,7.863l-68.143,0c-7.488,0 -12.98,-2.621 -16.474,-7.863c-3.495,-5.241 -5.242,-11.357 -5.242,-18.346l0,-313.76c0,-6.989 1.622,-12.98 4.867,-17.972c3.245,-4.992 8.861,-7.488 16.849,-7.488l325.741,0c11.482,0 20.593,-1.872 27.332,-5.616c6.74,-3.745 11.857,-8.862 15.351,-15.351c3.495,-6.49 5.866,-13.979 7.114,-22.465c1.248,-8.487 1.872,-17.473 1.872,-26.958c0,-9.485 -0.624,-18.471 -1.872,-26.958c-1.248,-8.487 -3.619,-15.975 -7.114,-22.465c-3.494,-6.49 -8.611,-11.607 -15.351,-15.351c-6.739,-3.744 -15.85,-5.616 -27.332,-5.616l-325.741,0c-7.988,0 -13.604,-2.496 -16.849,-7.489c-3.245,-4.992 -4.867,-10.982 -4.867,-17.971l0,-59.158c0,-6.989 1.622,-13.105 4.867,-18.346c3.245,-5.242 8.861,-7.863 16.849,-7.863l345.211,0c28.455,0 51.919,4.742 70.39,14.228c18.471,9.485 33.073,22.465 43.806,38.939c10.734,16.474 18.347,35.694 22.84,57.66c4.493,21.965 6.739,45.429 6.739,70.39c0,20.967 -1.622,41.56 -4.867,61.778c-3.245,20.219 -9.236,38.44 -17.972,54.665c-8.737,16.225 -20.593,29.953 -35.57,41.186c-14.976,11.232 -34.446,18.346 -58.408,21.341Z" style="fill:#004098;fill-rule:nonzero;"/><path d="M3533.05,464.832c15.975,0 28.206,3.12 36.693,9.36c8.486,6.241 14.602,13.978 18.346,23.214c3.744,9.236 5.991,19.594 6.739,31.076c0.749,11.483 1.124,22.465 1.124,32.949l0,494.228c0,6.989 -1.748,13.105 -5.242,18.346c-3.495,5.242 -8.986,7.863 -16.474,7.863l-64.4,0c-7.488,0 -12.855,-2.621 -16.1,-7.863c-3.245,-5.241 -4.867,-11.357 -4.867,-18.346l0,-450.796l-3.744,0l-130.297,319.002c-4.493,11.482 -9.235,22.59 -14.227,33.323c-4.993,10.733 -11.233,20.218 -18.721,28.455c-7.489,8.237 -16.724,14.852 -27.707,19.844c-10.983,4.993 -24.961,7.489 -41.934,7.489c-11.982,0 -22.715,-1.124 -32.2,-3.37c-9.485,-2.247 -18.222,-6.49 -26.209,-12.73c-7.988,-6.24 -15.601,-15.226 -22.84,-26.958c-7.238,-11.732 -14.602,-27.083 -22.09,-46.053l-130.297,-319.002l-3.744,0l0,450.796c0,6.989 -1.622,13.105 -4.867,18.346c-3.245,5.242 -8.612,7.863 -16.1,7.863l-64.399,0c-7.489,0 -12.98,-2.621 -16.475,-7.863c-3.494,-5.241 -5.241,-11.357 -5.241,-18.346l0,-494.228c0,-11.981 0.499,-23.838 1.497,-35.569c0.999,-11.732 3.495,-22.091 7.489,-31.077c3.993,-8.986 10.234,-16.225 18.72,-21.716c8.487,-5.491 20.468,-8.237 35.944,-8.237l68.893,0c13.479,0 24.212,1.622 32.199,4.867c7.988,3.245 14.478,7.988 19.47,14.228c4.992,6.24 8.986,13.729 11.981,22.465c2.995,8.736 6.74,18.346 11.233,28.83l133.291,333.978l8.238,0l134.789,-333.978c4.493,-10.484 8.237,-20.094 11.232,-28.83c2.996,-8.736 6.99,-16.1 11.982,-22.091c4.992,-5.99 11.357,-10.733 19.095,-14.227c7.738,-3.495 18.346,-5.242 31.825,-5.242l67.395,0Z" style="fill:#004098;fill-rule:nonzero;"/></g><path d="M2479.55,410.086l2.089,0.023l2.089,0.036l2.089,0.048l2.088,0.061l2.088,0.073l2.088,0.086l2.086,0.098l2.087,0.11l2.085,0.123l2.085,0.135l2.085,0.148l2.083,0.16l2.082,0.173l2.082,0.185l2.08,0.197l2.08,0.21l2.078,0.222l2.077,0.235l2.076,0.247l2.074,0.259l2.073,0.272l2.072,0.284l2.07,0.297l2.069,0.309l2.067,0.321l1.033,0.165l1.032,0.169l1.032,0.171l1.031,0.175l1.032,0.178l1.03,0.18l1.03,0.184l1.03,0.187l1.029,0.19l1.029,0.194l1.028,0.196l1.028,0.199l1.027,0.203l1.027,0.205l1.026,0.209l1.026,0.212l1.025,0.214l1.024,0.218l1.024,0.221l1.024,0.224l1.022,0.228l1.023,0.23l1.021,0.233l1.021,0.237l1.021,0.239l1.02,0.243l1.019,0.246l1.019,0.249l1.018,0.252l1.017,0.255l1.017,0.258l1.016,0.261l1.015,0.264l1.015,0.267l1.014,0.271l1.013,0.273l1.013,0.277l1.012,0.28l1.011,0.283l1.01,0.285l1.01,0.289l1.009,0.292l1.009,0.296l1.007,0.298l1.007,0.301l1.006,0.304l1.005,0.308l1.005,0.31l1.004,0.314l1.003,0.317l1.002,0.32l1.001,0.322l1.001,0.326l0.999,0.329l0.999,0.333l0.998,0.335l0.997,0.338l0.997,0.341l0.995,0.345l0.995,0.347l0.993,0.351l0.993,0.354l0.992,0.356l0.991,0.36l0.99,0.363l0.99,0.366l0.988,0.369l0.987,0.372l0.987,0.376l0.985,0.378l0.985,0.381l0.984,0.385l0.982,0.387l0.982,0.391l0.98,0.394l0.98,0.396l0.979,0.4l0.978,0.403l0.976,0.406l0.976,0.409l0.974,0.412l0.974,0.415l0.973,0.419l0.971,0.421l0.971,0.424l0.969,0.428l0.968,0.431l0.967,0.433l0.967,0.437l0.965,0.44l0.964,0.442l0.962,0.446l0.962,0.449l0.961,0.452l0.959,0.456l0.958,0.458l0.958,0.461l0.956,0.464l0.955,0.468l0.953,0.47l0.953,0.474l0.951,0.476l0.95,0.48l0.949,0.483l0.948,0.486l0.946,0.489l0.945,0.491l0.945,0.495l0.942,0.499l0.942,0.501l0.94,0.504l0.939,0.507l0.938,0.51l0.936,0.514l0.936,0.516l0.934,0.52l0.932,0.522l0.931,0.526l0.93,0.529l0.929,0.532l0.927,0.534l0.926,0.538l0.925,0.541l0.923,0.544l0.922,0.547l0.921,0.551l0.919,0.553l0.918,0.556l0.916,0.559l0.915,0.563l0.914,0.565l0.912,0.569l0.911,0.571l0.909,0.575l0.908,0.578l0.907,0.58l0.905,0.584l0.903,0.587l0.903,0.59l0.9,0.593l0.899,0.596l0.898,0.599l0.896,0.602l0.895,0.605l0.893,0.608l0.892,0.612l0.89,0.614l0.888,0.617l0.887,0.621l0.886,0.623l0.884,0.627l0.882,0.63l0.881,0.632l0.879,0.636l0.878,0.639l0.876,0.642l0.874,0.645l0.873,0.647l0.871,0.651l0.87,0.654l0.868,0.658l0.866,0.66l0.865,0.663l0.863,0.666l0.861,0.669l0.86,0.673l0.858,0.675l0.856,0.679l0.854,0.681l0.853,0.685l0.851,0.687l0.85,0.691l0.848,0.693l0.846,0.697l0.844,0.7l0.843,0.703l0.84,0.706l0.839,0.708l0.838,0.712l0.835,0.715l0.834,0.718l0.832,0.722l0.83,0.724l0.828,0.727l0.827,0.73l0.824,0.733l0.823,0.737l0.821,0.739l0.819,0.742l0.817,0.746l0.816,0.748l0.813,0.752l0.812,0.754l0.81,0.758l0.808,0.76l0.806,0.764l0.804,0.767l0.802,0.77l0.8,0.772l0.799,0.776l0.796,0.779l0.795,0.782l0.792,0.785l0.791,0.788l0.788,0.791l0.787,0.794l0.785,0.797l0.782,0.8l0.781,0.803l0.779,0.807l0.776,0.809l0.775,0.812l0.772,0.816l0.771,0.818l0.768,0.821l0.767,0.825l0.764,0.827l0.76,0.828l0.758,0.831l0.754,0.832l0.751,0.834l0.748,0.836l0.745,0.837l0.742,0.84l0.738,0.841l0.735,0.843l0.732,0.845l0.729,0.846l0.726,0.848l0.722,0.85l0.72,0.851l0.716,0.854l0.713,0.855l0.71,0.856l0.706,0.859l0.704,0.86l0.7,0.861l0.697,0.864l0.694,0.865l0.691,0.866l0.687,0.868l0.685,0.87l0.681,0.872l0.678,0.873l0.675,0.875l0.672,0.876l0.668,0.878l0.666,0.88l0.662,0.881l0.659,0.882l0.656,0.885l0.652,0.885l0.65,0.888l0.646,0.889l0.643,0.89l0.64,0.892l0.637,0.894l0.634,0.894l0.63,0.897l0.627,0.898l0.625,0.899l0.62,0.901l0.618,0.903l0.615,0.904l0.611,0.905l0.609,0.907l0.605,0.908l0.602,0.91l0.599,0.911l0.595,0.912l0.593,0.914l0.589,0.915l0.586,0.917l0.583,0.918l0.58,0.92l0.576,0.921l0.574,0.922l0.57,0.923l0.567,0.925l0.564,0.927l0.561,0.927l0.558,0.929l0.554,0.93l0.552,0.932l0.548,0.933l0.545,0.934l0.542,0.936l0.538,0.936l0.536,0.938l0.532,0.94l0.529,0.94l0.526,0.942l0.523,0.943l0.52,0.944l0.516,0.946l0.514,0.947l0.51,0.948l0.507,0.949l0.504,0.95l0.501,0.952l0.497,0.952l0.495,0.954l0.491,0.955l0.488,0.957l0.485,0.957l0.482,0.959l0.479,0.959l0.475,0.961l0.473,0.962l0.469,0.963l0.466,0.964l0.463,0.966l0.459,0.966l0.457,0.967l0.453,0.969l0.451,0.969l0.447,0.971l0.444,0.972l0.441,0.973l0.437,0.973l0.435,0.975l0.431,0.976l0.428,0.977l0.425,0.978l0.422,0.979l0.419,0.98l0.416,0.981l0.412,0.981l0.409,0.983l0.407,0.984l0.403,0.985l0.399,0.985l0.397,0.987l0.394,0.988l0.39,0.988l0.387,0.99l0.384,0.99l0.381,0.991l0.378,0.992l0.375,0.993l0.371,0.994l0.369,0.995l0.365,0.996l0.362,0.996l0.359,0.998l0.356,0.998l0.353,0.999l0.349,1l0.346,1l0.344,1.002l0.34,1.002l0.337,1.003l0.334,1.004l0.33,1.005l0.328,1.005l0.324,1.006l0.321,1.007l0.318,1.008l0.315,1.009l0.312,1.009l0.309,1.01l0.305,1.011l0.303,1.011l0.299,1.012l0.296,1.013l0.293,1.013l0.29,1.014l0.287,1.015l0.283,1.016l0.281,1.016l0.277,1.017l0.274,1.017l0.271,1.018l0.268,1.019l0.265,1.019l0.261,1.02l0.259,1.021l0.255,1.021l0.252,1.022l0.249,1.022l0.246,1.023l0.243,1.024l0.24,1.024l0.236,1.025l0.233,1.025l0.231,1.026l0.227,1.026l0.224,1.027l0.221,1.027l0.217,1.028l0.215,1.028l0.211,1.029l0.209,1.029l0.205,1.03l0.202,1.03l0.199,1.031l0.196,1.031l0.192,1.032l0.19,1.032l0.186,1.032l0.184,1.033l0.18,1.034l0.177,1.033l0.174,1.035l0.17,1.034l0.168,1.035l0.165,1.036l0.161,1.035l0.158,1.036l0.155,1.037l0.152,1.037l0.149,1.037l0.146,1.037l0.143,1.038l0.139,1.038l0.137,1.039l0.133,1.038l0.13,1.039l0.127,1.04l0.124,1.039l0.121,1.04l0.117,1.04l0.115,1.041l0.111,1.04l0.109,1.041l0.105,1.041l0.102,1.042l0.099,1.041l0.095,1.042l0.093,1.042l0.09,1.043l0.086,1.042l0.164,2.085l0.151,2.086l0.138,2.087l0.126,2.087l0.114,2.088l0.101,2.088l0.089,2.089l0.076,2.089l0.064,2.089l0.051,2.089l0.039,2.09l0.026,2.089l0.014,2.09l0.002,2.089l-0.011,2.089l-0.024,2.09l-0.035,2.089l-0.049,2.088l-0.06,2.089l-0.074,2.088l-0.085,2.087l-0.098,2.087l-0.111,2.086l-0.123,2.086l-0.135,2.085l-0.148,2.084l-0.16,2.083l-0.172,2.083l-0.185,2.081l-0.198,2.081l-0.209,2.079l-0.223,2.078l-0.234,2.077l-0.247,2.076l-0.26,2.075l-0.271,2.073l-0.285,2.071l-0.296,2.071l-0.309,2.068l-0.321,2.067l-0.166,1.033l-0.168,1.032l-0.172,1.032l-0.174,1.032l-0.178,1.031l-0.181,1.031l-0.184,1.03l-0.187,1.029l-0.19,1.03l-0.193,1.028l-0.196,1.029l-0.2,1.027l-0.202,1.028l-0.206,1.026l-0.208,1.026l-0.212,1.026l-0.215,1.025l-0.218,1.025l-0.221,1.024l-0.224,1.023l-0.227,1.023l-0.231,1.022l-0.233,1.022l-0.236,1.021l-0.24,1.02l-0.243,1.02l-0.245,1.019l-0.249,1.019l-0.252,1.018l-0.255,1.017l-0.258,1.017l-0.261,1.016l-0.265,1.015l-0.267,1.015l-0.27,1.014l-0.274,1.014l-0.277,1.012l-0.279,1.012l-0.283,1.011l-0.286,1.011l-0.289,1.01l-0.292,1.009l-0.295,1.008l-0.298,1.008l-0.302,1.007l-0.304,1.006l-0.307,1.005l-0.311,1.004l-0.314,1.004l-0.316,1.003l-0.32,1.002l-0.323,1.002l-0.326,1l-0.329,1l-0.332,0.999l-0.335,0.998l-0.339,0.997l-0.341,0.996l-0.344,0.996l-0.348,0.994l-0.351,0.994l-0.353,0.993l-0.357,0.992l-0.36,0.991l-0.363,0.99l-0.366,0.989l-0.369,0.988l-0.372,0.988l-0.375,0.986l-0.378,0.986l-0.382,0.984l-0.384,0.984l-0.388,0.983l-0.39,0.981l-0.394,0.981l-0.397,0.98l-0.188,0.461l-2.426,-0.878l-3.109,-1.418l-2.985,-1.663l-2.841,-1.898l-2.68,-2.12l-2.5,-2.329l-2.305,-2.523l-2.094,-2.7l-1.87,-2.859l-1.634,-3.001l-1.387,-3.123l-1.132,-3.224l-0.868,-3.305l-0.6,-3.364l-0.326,-3.401l-0.053,-3.417l0.223,-3.409l0.497,-3.381l0.767,-3.33l0.033,-0.123l0.24,-0.889l0.237,-0.888l0.236,-0.896l0.232,-0.89l0.229,-0.891l0.228,-0.897l0.223,-0.892l0.221,-0.892l0.218,-0.894l0.216,-0.893l0.214,-0.9l0.21,-0.895l0.207,-0.896l0.206,-0.901l0.202,-0.897l0.199,-0.897l0.198,-0.903l0.194,-0.898l0.191,-0.899l0.19,-0.905l0.186,-0.899l0.182,-0.895l0.181,-0.906l0.179,-0.907l0.174,-0.896l0.173,-0.908l0.17,-0.907l0.166,-0.899l0.164,-0.903l0.163,-0.909l0.158,-0.904l0.156,-0.905l0.154,-0.911l0.151,-0.906l0.148,-0.905l0.14,-0.879l0.288,-1.848l0.271,-1.815l0.26,-1.82l0.25,-1.821l0.239,-1.822l0.228,-1.824l0.217,-1.823l0.206,-1.826l0.196,-1.83l0.184,-1.826l0.173,-1.826l0.163,-1.833l0.152,-1.829l0.141,-1.832l0.13,-1.833l0.119,-1.831l0.108,-1.834l0.097,-1.833l0.086,-1.835l0.075,-1.836l0.064,-1.834l0.054,-1.834l0.042,-1.838l0.032,-1.837l0.02,-1.836l0.01,-1.838l-0.002,-1.838l-0.012,-1.835l-0.023,-1.836l-0.034,-1.835l-0.045,-1.838l-0.056,-1.838l-0.067,-1.835l-0.078,-1.835l-0.089,-1.835l-0.1,-1.834l-0.111,-1.836l-0.122,-1.836l-0.132,-1.833l-0.146,-1.862l-0.074,-0.885l-0.078,-0.916l-0.082,-0.915l-0.084,-0.916l-0.087,-0.915l-0.09,-0.915l-0.092,-0.914l-0.096,-0.92l-0.097,-0.914l-0.1,-0.909l-0.104,-0.914l-0.106,-0.913l-0.11,-0.919l-0.111,-0.913l-0.114,-0.907l-0.117,-0.918l-0.12,-0.913l-0.122,-0.906l-0.125,-0.912l-0.129,-0.916l-0.131,-0.912l-0.134,-0.911l-0.136,-0.91l-0.139,-0.91l-0.141,-0.91l-0.144,-0.904l-0.148,-0.909l-0.151,-0.914l-0.152,-0.909l-0.156,-0.908l-0.158,-0.908l-0.161,-0.907l-0.164,-0.907l-0.165,-0.901l-0.17,-0.906l-0.173,-0.911l-0.174,-0.906l-0.178,-0.905l-0.18,-0.904l-0.182,-0.899l-0.186,-0.904l-0.189,-0.908l-0.191,-0.903l-0.194,-0.902l-0.197,-0.902l-0.198,-0.897l-0.203,-0.9l-0.205,-0.901l-0.208,-0.9l-0.211,-0.904l-0.213,-0.899l-0.215,-0.893l-0.219,-0.898l-0.221,-0.898l-0.224,-0.897l-0.227,-0.896l-0.23,-0.896l-0.233,-0.895l-0.234,-0.889l-0.239,-0.9l-0.241,-0.893l-0.242,-0.888l-0.248,-0.898l-0.249,-0.892l-0.25,-0.886l-0.254,-0.89l-0.258,-0.89l-0.26,-0.89l-0.262,-0.889l-0.266,-0.888l-0.268,-0.887l-0.271,-0.887l-0.274,-0.886l-0.275,-0.881l-0.28,-0.885l-0.283,-0.889l-0.285,-0.884l-0.286,-0.878l-0.29,-0.881l-0.293,-0.882l-0.296,-0.881l-0.299,-0.88l-0.299,-0.874l-0.305,-0.879l-0.308,-0.883l-0.31,-0.877l-0.311,-0.872l-0.315,-0.876l-0.317,-0.874l-0.319,-0.869l-0.324,-0.874l-0.328,-0.878l-0.329,-0.871l-0.33,-0.867l-0.334,-0.87l-0.338,-0.87l-0.34,-0.868l-0.342,-0.868l-0.344,-0.862l-0.348,-0.867l-0.353,-0.87l-0.352,-0.86l-0.355,-0.859l-0.361,-0.868l-0.362,-0.862l-0.363,-0.856l-0.368,-0.86l-0.372,-0.864l-0.371,-0.854l-0.375,-0.854l-0.38,-0.861l-0.382,-0.855l-0.382,-0.851l-0.387,-0.854l-0.39,-0.853l-0.392,-0.853l-0.394,-0.847l-0.398,-0.85l-0.403,-0.854l-0.401,-0.844l-0.404,-0.843l-0.41,-0.847l-0.414,-0.849l-0.412,-0.84l-0.418,-0.844l-0.42,-0.843l-0.421,-0.837l-0.428,-0.845l-0.426,-0.836l-0.43,-0.834l-0.436,-0.842l-0.437,-0.837l-0.437,-0.831l-0.443,-0.834l-0.445,-0.834l-0.446,-0.828l-0.451,-0.831l-0.456,-0.835l-0.454,-0.825l-0.457,-0.824l-0.464,-0.832l-0.463,-0.822l-0.467,-0.825l-0.47,-0.823l-0.471,-0.819l-0.476,-0.821l-0.479,-0.821l-0.481,-0.819l-0.482,-0.815l-0.488,-0.817l-0.489,-0.816l-0.493,-0.815l-0.496,-0.814l-0.495,-0.808l-0.501,-0.812l-0.504,-0.81l-0.504,-0.805l-0.51,-0.808l-0.512,-0.807l-0.512,-0.802l-0.518,-0.804l-0.521,-0.803l-0.523,-0.802l-0.524,-0.796l-0.529,-0.8l-0.532,-0.798l-0.532,-0.794l-0.538,-0.795l-0.54,-0.795l-0.543,-0.793l-0.543,-0.788l-0.549,-0.791l-0.551,-0.789l-0.552,-0.785l-0.557,-0.787l-0.56,-0.786l-0.563,-0.784l-0.563,-0.779l-0.566,-0.779l-0.574,-0.784l-0.573,-0.778l-0.575,-0.775l-0.577,-0.773l-0.583,-0.775l-0.585,-0.774l-0.586,-0.769l-0.59,-0.771l-0.594,-0.769l-0.597,-0.769l-0.599,-0.767l-0.6,-0.762l-0.602,-0.761l-0.608,-0.762l-0.611,-0.762l-0.611,-0.757l-0.617,-0.758l-0.619,-0.757l-0.62,-0.753l-0.625,-0.754l-0.628,-0.753l-0.628,-0.748l-0.633,-0.75l-0.636,-0.749l-0.637,-0.744l-0.643,-0.746l-0.644,-0.743l-0.645,-0.74l-0.649,-0.739l-0.653,-0.739l-0.656,-0.738l-0.66,-0.737l-0.659,-0.733l-0.665,-0.733l-0.668,-0.733l-0.668,-0.727l-0.673,-0.729l-0.673,-0.724l-0.677,-0.723l-0.681,-0.723l-0.679,-0.718l-0.679,-0.711l-0.684,-0.712l-0.687,-0.712l-0.688,-0.708l-0.688,-0.703l-0.689,-0.7l-0.694,-0.701l-0.692,-0.694l-0.694,-0.691l-0.698,-0.692l-0.699,-0.688l-0.701,-0.686l-0.703,-0.682l-0.704,-0.68l-0.703,-0.675l-0.707,-0.674l-0.708,-0.671l-0.71,-0.669l-0.714,-0.668l-0.713,-0.662l-0.714,-0.66l-0.716,-0.657l-0.718,-0.654l-0.721,-0.654l-0.722,-0.651l-0.722,-0.646l-0.723,-0.642l-0.727,-0.642l-0.728,-0.64l-0.73,-0.637l-0.731,-0.633l-0.73,-0.629l-0.734,-0.628l-0.735,-0.626l-0.737,-0.622l-0.738,-0.62l-0.74,-0.617l-0.743,-0.616l-0.742,-0.61l-0.743,-0.609l-0.746,-0.606l-0.746,-0.602l-0.75,-0.602l-0.751,-0.6l-0.753,-0.596l-0.751,-0.591l-0.753,-0.589l-0.759,-0.59l-0.758,-0.585l-0.757,-0.58l-0.76,-0.58l-0.762,-0.577l-0.763,-0.574l-0.764,-0.571l-0.766,-0.568l-0.766,-0.565l-0.768,-0.563l-0.773,-0.562l-0.773,-0.559l-0.771,-0.554l-0.773,-0.552l-0.774,-0.549l-0.778,-0.547l-0.78,-0.545l-0.78,-0.543l-0.781,-0.539l-0.78,-0.535l-0.784,-0.534l-0.785,-0.531l-0.784,-0.526l-0.79,-0.527l-0.788,-0.523l-0.79,-0.52l-0.793,-0.519l-0.79,-0.513l-0.796,-0.513l-0.796,-0.51l-0.793,-0.505l-0.799,-0.505l-0.8,-0.502l-0.799,-0.497l-0.802,-0.497l-0.801,-0.492l-0.804,-0.491l-0.806,-0.488l-0.807,-0.486l-0.807,-0.482l-0.809,-0.48l-0.81,-0.477l-0.811,-0.475l-0.811,-0.471l-0.814,-0.469l-0.816,-0.468l-0.814,-0.463l-0.817,-0.461l-0.817,-0.457l-0.82,-0.457l-0.822,-0.454l-0.82,-0.449l-0.823,-0.448l-0.825,-0.445l-0.823,-0.442l-0.826,-0.44l-0.827,-0.437l-0.828,-0.434l-0.83,-0.432l-0.828,-0.427l-0.834,-0.428l-0.831,-0.423l-0.834,-0.42l-0.836,-0.419l-0.835,-0.415l-0.835,-0.413l-0.837,-0.409l-0.84,-0.408l-0.841,-0.405l-0.84,-0.402l-0.842,-0.4l-0.843,-0.396l-0.842,-0.394l-0.845,-0.391l-0.846,-0.389l-0.847,-0.386l-0.848,-0.383l-0.848,-0.38l-0.85,-0.378l-0.85,-0.375l-0.851,-0.372l-0.852,-0.37l-0.855,-0.367l-0.856,-0.365l-0.854,-0.361l-0.855,-0.359l-0.857,-0.356l-0.859,-0.354l-0.859,-0.351l-0.86,-0.348l-0.861,-0.346l-0.86,-0.342l-0.863,-0.34l-0.863,-0.338l-0.864,-0.335l-0.865,-0.332l-0.866,-0.329l-0.867,-0.327l-0.867,-0.323l-0.869,-0.322l-0.869,-0.318l-0.869,-0.316l-0.872,-0.314l-0.87,-0.31l-0.874,-0.308l-0.874,-0.305l-0.872,-0.302l-0.874,-0.299l-0.876,-0.298l-0.878,-0.294l-0.875,-0.292l-0.879,-0.289l-0.878,-0.286l-0.879,-0.283l-0.88,-0.281l-0.881,-0.278l-0.882,-0.276l-0.882,-0.273l-0.882,-0.269l-0.883,-0.267l-0.885,-0.265l-0.886,-0.262l-0.884,-0.259l-0.885,-0.256l-0.888,-0.255l-0.888,-0.251l-0.888,-0.248l-0.889,-0.246l-0.888,-0.242l-0.891,-0.241l-0.89,-0.237l-0.891,-0.235l-0.894,-0.233l-0.892,-0.229l-0.891,-0.226l-0.895,-0.224l-0.895,-0.222l-0.893,-0.218l-0.896,-0.216l-0.897,-0.213l-0.896,-0.211l-0.897,-0.208l-0.896,-0.204l-0.899,-0.203l-0.9,-0.2l-0.897,-0.196l-0.901,-0.195l-0.901,-0.191l-0.899,-0.189l-0.901,-0.186l-0.903,-0.183l-0.902,-0.181l-0.901,-0.177l-0.904,-0.176l-0.904,-0.172l-0.903,-0.17l-0.905,-0.167l-0.906,-0.165l-0.905,-0.161l-0.905,-0.159l-0.905,-0.156l-0.906,-0.153l-0.908,-0.151l-0.908,-0.148l-0.876,-0.141l-1.847,-0.287l-1.818,-0.271l-1.82,-0.261l-1.821,-0.25l-1.822,-0.239l-1.823,-0.228l-1.825,-0.217l-1.825,-0.206l-1.827,-0.195l-1.828,-0.185l-1.828,-0.173l-1.83,-0.163l-1.831,-0.152l-1.831,-0.14l-1.832,-0.13l-1.833,-0.119l-1.833,-0.108l-1.834,-0.097l-1.835,-0.086l-1.835,-0.076l-1.835,-0.064l-1.836,-0.053l-1.836,-0.043l-1.836,-0.031l-1.837,-0.021l-1.837,-0.009l-1.836,0.001l-1.837,0.012l-1.837,0.023l-1.836,0.035l-1.836,0.045l-1.837,0.056l-1.836,0.067l-1.836,0.078l-1.835,0.089l-1.835,0.099l-1.834,0.111l-1.835,0.122l-1.833,0.133l-1.864,0.146l-0.885,0.073l-0.916,0.079l-0.916,0.081l-0.915,0.085l-0.915,0.086l-0.916,0.09l-0.914,0.093l-0.914,0.095l-0.915,0.098l-0.915,0.1l-0.913,0.104l-0.914,0.106l-0.914,0.109l-0.913,0.111l-0.912,0.114l-0.914,0.118l-0.912,0.119l-0.912,0.123l-0.912,0.125l-0.912,0.128l-0.911,0.131l-0.91,0.134l-0.91,0.136l-0.911,0.139l-0.911,0.142l-0.909,0.144l-0.908,0.148l-0.909,0.15l-0.909,0.152l-0.908,0.156l-0.909,0.158l-0.906,0.161l-0.907,0.164l-0.907,0.166l-0.906,0.17l-0.904,0.171l-0.906,0.175l-0.906,0.178l-0.905,0.18l-0.903,0.183l-0.903,0.185l-0.904,0.189l-0.903,0.191l-0.901,0.194l-0.902,0.197l-0.901,0.199l-0.9,0.202l-0.902,0.206l-0.9,0.207l-0.898,0.211l-0.899,0.213l-0.899,0.216l-0.896,0.218l-0.898,0.222l-0.897,0.224l-0.894,0.227l-0.897,0.23l-0.895,0.232l-0.894,0.235l-0.894,0.238l-0.893,0.241l-0.894,0.243l-0.891,0.246l-0.892,0.249l-0.889,0.251l-0.891,0.255l-0.891,0.258l-0.887,0.259l-0.89,0.263l-0.887,0.265l-0.885,0.268l-0.889,0.272l-0.887,0.274l-0.884,0.276l-0.883,0.279l-0.883,0.281l-0.884,0.285l-0.884,0.288l-0.881,0.29l-0.881,0.293l-0.88,0.295l-0.879,0.299l-0.879,0.301l-0.878,0.304l-0.877,0.307l-0.877,0.309l-0.877,0.313l-0.873,0.314l-0.874,0.318l-0.875,0.32l-0.873,0.324l-0.871,0.325l-0.871,0.329l-0.873,0.332l-0.869,0.334l-0.867,0.337l-0.869,0.34l-0.866,0.342l-0.866,0.345l-0.868,0.349l-0.863,0.35l-0.864,0.354l-0.864,0.356l-0.863,0.36l-0.86,0.361l-0.861,0.365l-0.86,0.367l-0.857,0.37l-0.857,0.372l-0.858,0.376l-0.857,0.379l-0.856,0.381l-0.853,0.384l-0.853,0.386l-0.852,0.39l-0.851,0.392l-0.852,0.396l-0.849,0.397l-0.849,0.4l-0.848,0.404l-0.844,0.405l-0.846,0.409l-0.847,0.412l-0.842,0.414l-0.844,0.417l-0.842,0.421l-0.84,0.421l-0.841,0.427l-0.837,0.427l-0.837,0.43l-0.838,0.435l-0.835,0.436l-0.836,0.44l-0.833,0.442l-0.831,0.443l-0.833,0.449l-0.83,0.45l-0.83,0.453l-0.828,0.456l-0.828,0.459l-0.827,0.462l-0.823,0.463l-0.824,0.467l-0.824,0.47l-0.822,0.474l-0.82,0.474l-0.819,0.478l-0.819,0.481l-0.816,0.483l-0.816,0.487l-0.817,0.49l-0.813,0.492l-0.812,0.494l-0.814,0.499l-0.808,0.499l-0.809,0.503l-0.808,0.506l-0.807,0.509l-0.807,0.512l-0.802,0.513l-0.806,0.519l-0.802,0.519l-0.799,0.522l-0.8,0.526l-0.799,0.529l-0.797,0.531l-0.795,0.533l-0.797,0.538l-0.792,0.539l-0.793,0.543l-0.789,0.544l-0.79,0.548l-0.789,0.551l-0.788,0.554l-0.785,0.556l-0.784,0.559l-0.784,0.562l-0.782,0.565l-0.78,0.568l-0.779,0.57l-0.778,0.573l-0.776,0.576l-0.776,0.579l-0.775,0.582l-0.772,0.584l-0.77,0.587l-0.77,0.59l-0.77,0.594l-0.767,0.596l-0.766,0.598l-0.764,0.601l-0.763,0.604l-0.762,0.607l-0.759,0.61l-0.759,0.613l-0.758,0.616l-0.756,0.618l-0.754,0.621l-0.754,0.625l-0.752,0.626l-0.751,0.631l-0.749,0.632l-0.746,0.635l-0.745,0.637l-0.745,0.642l-0.744,0.645l-0.741,0.646l-0.74,0.65l-0.738,0.652l-0.737,0.655l-0.737,0.659l-0.734,0.662l-0.733,0.664l-0.73,0.666l-0.729,0.669l-0.729,0.673l-0.726,0.675l-0.723,0.676l-0.719,0.678l-0.719,0.681l-0.715,0.682l-0.712,0.684l-0.709,0.684l-0.707,0.687l-0.703,0.688l-0.702,0.691l-0.7,0.693l-0.695,0.693l-0.693,0.695l-0.689,0.696l-0.688,0.699l-0.686,0.701l-0.683,0.703l-0.679,0.703l-0.676,0.705l-0.674,0.707l-0.671,0.708l-0.669,0.711l-0.665,0.711l-0.663,0.713l-0.662,0.716l-0.657,0.716l-0.655,0.718l-0.652,0.72l-0.649,0.72l-0.648,0.724l-0.644,0.724l-0.641,0.726l-0.64,0.729l-0.635,0.729l-0.633,0.73l-0.632,0.733l-0.628,0.734l-0.623,0.733l-0.622,0.736l-0.621,0.74l-0.618,0.741l-0.615,0.741l-0.611,0.742l-0.609,0.745l-0.606,0.745l-0.603,0.747l-0.601,0.748l-0.599,0.752l-0.595,0.751l-0.593,0.753l-0.59,0.754l-0.587,0.756l-0.584,0.757l-0.582,0.758l-0.581,0.762l-0.576,0.762l-0.574,0.762l-0.571,0.764l-0.569,0.766l-0.566,0.769l-0.563,0.768l-0.56,0.769l-0.557,0.771l-0.556,0.774l-0.553,0.774l-0.549,0.776l-0.547,0.776l-0.544,0.778l-0.543,0.781l-0.539,0.781l-0.535,0.78l-0.533,0.783l-0.532,0.787l-0.529,0.786l-0.524,0.786l-0.524,0.79l-0.52,0.79l-0.516,0.789l-0.516,0.795l-0.512,0.794l-0.509,0.795l-0.507,0.796l-0.504,0.798l-0.502,0.799l-0.498,0.8l-0.496,0.801l-0.493,0.803l-0.492,0.805l-0.487,0.803l-0.485,0.807l-0.482,0.807l-0.48,0.809l-0.478,0.81l-0.474,0.811l-0.472,0.812l-0.469,0.814l-0.467,0.814l-0.462,0.814l-0.463,0.819l-0.458,0.818l-0.456,0.819l-0.453,0.821l-0.449,0.82l-0.448,0.822l-0.446,0.826l-0.442,0.825l-0.439,0.824l-0.437,0.827l-0.434,0.828l-0.432,0.83l-0.429,0.831l-0.426,0.831l-0.423,0.832l-0.421,0.834l-0.419,0.835l-0.414,0.833l-0.413,0.838l-0.411,0.84l-0.407,0.836l-0.403,0.838l-0.404,0.843l-0.399,0.842l-0.397,0.843l-0.394,0.845l-0.39,0.842l-0.389,0.847l-0.386,0.847l-0.382,0.846l-0.381,0.849l-0.379,0.852l-0.375,0.851l-0.372,0.849l-0.369,0.851l-0.367,0.854l-0.365,0.857l-0.362,0.856l-0.359,0.854l-0.356,0.858l-0.354,0.858l-0.35,0.857l-0.348,0.86l-0.346,0.862l-0.343,0.862l-0.34,0.863l-0.337,0.861l-0.335,0.865l-0.332,0.865l-0.329,0.864l-0.327,0.868l-0.324,0.868l-0.321,0.868l-0.319,0.87l-0.316,0.869l-0.313,0.871l-0.311,0.872l-0.307,0.871l-0.305,0.874l-0.303,0.874l-0.299,0.874l-0.297,0.876l-0.295,0.877l-0.291,0.877l-0.29,0.879l-0.285,0.877l-0.283,0.877l-0.281,0.881l-0.279,0.881l-0.275,0.883l-0.273,0.882l-0.27,0.882l-0.267,0.881l-0.264,0.885l-0.263,0.886l-0.259,0.887l-0.256,0.884l-0.253,0.886l-0.252,0.89l-0.248,0.887l-0.246,0.887l-0.243,0.893l-0.24,0.889l-0.237,0.888l-0.235,0.893l-0.233,0.893l-0.23,0.893l-0.226,0.892l-0.224,0.892l-0.221,0.895l-0.219,0.896l-0.215,0.894l-0.214,0.897l-0.211,0.898l-0.207,0.895l-0.205,0.896l-0.202,0.9l-0.2,0.899l-0.197,0.898l-0.194,0.898l-0.191,0.902l-0.189,0.902l-0.186,0.9l-0.184,0.902l-0.18,0.901l-0.178,0.901l-0.176,0.907l-0.172,0.903l-0.169,0.902l-0.168,0.906l-0.164,0.904l-0.162,0.906l-0.159,0.907l-0.156,0.905l-0.153,0.905l-0.151,0.906l-0.148,0.908l-0.14,0.878l-0.287,1.847l-0.272,1.818l-0.26,1.819l-0.25,1.821l-0.239,1.822l-0.228,1.824l-0.218,1.825l-0.206,1.825l-0.195,1.826l-0.184,1.827l-0.174,1.83l-0.162,1.83l-0.152,1.831l-0.141,1.831l-0.13,1.832l-0.119,1.832l-0.107,1.833l-0.098,1.835l-0.086,1.834l-0.075,1.835l-0.064,1.837l-0.054,1.835l-0.042,1.835l-0.032,1.836l-0.02,1.838l-0.01,1.836l0.001,1.836l0.013,1.837l0.023,1.838l0.034,1.836l0.045,1.836l0.056,1.837l0.067,1.835l0.078,1.836l0.089,1.836l0.1,1.835l0.111,1.834l0.121,1.833l0.133,1.834l0.146,1.864l0.074,0.885l0.079,0.919l0.081,0.912l0.084,0.916l0.087,0.917l0.089,0.912l0.093,0.915l0.095,0.917l0.098,0.915l0.101,0.913l0.103,0.914l0.106,0.914l0.109,0.913l0.112,0.913l0.114,0.913l0.117,0.913l0.12,0.912l0.122,0.912l0.126,0.914l0.128,0.911l0.131,0.909l0.133,0.911l0.137,0.913l0.139,0.91l0.141,0.907l0.145,0.91l0.147,0.912l0.15,0.908l0.153,0.906l0.156,0.911l0.158,0.908l0.16,0.904l0.164,0.907l0.167,0.91l0.169,0.906l0.172,0.903l0.175,0.905l0.177,0.905l0.181,0.907l0.183,0.904l0.185,0.901l0.189,0.904l0.191,0.902l0.194,0.903l0.197,0.902l0.199,0.901l0.202,0.901l0.205,0.9l0.207,0.898l0.211,0.899l0.214,0.902l0.216,0.898l0.218,0.895l0.221,0.898l0.224,0.897l0.227,0.896l0.23,0.896l0.232,0.893l0.236,0.896l0.238,0.895l0.24,0.891l0.244,0.893l0.246,0.892l0.249,0.892l0.252,0.891l0.254,0.891l0.257,0.887l0.26,0.889l0.262,0.889l0.266,0.889l0.268,0.887l0.271,0.884l0.274,0.889l0.277,0.886l0.278,0.882l0.281,0.882l0.285,0.884l0.289,0.885l0.289,0.879l0.293,0.882l0.296,0.881l0.298,0.877l0.301,0.88l0.304,0.878l0.307,0.878l0.31,0.877l0.313,0.877l0.314,0.873l0.317,0.873l0.321,0.876l0.324,0.874l0.325,0.87l0.329,0.872l0.331,0.868l0.334,0.871l0.338,0.869l0.339,0.867l0.342,0.867l0.346,0.867l0.348,0.867l0.351,0.865l0.353,0.863l0.357,0.863l0.359,0.864l0.361,0.859l0.365,0.861l0.367,0.858l0.37,0.86l0.373,0.858l0.377,0.858l0.378,0.857l0.38,0.851l0.384,0.855l0.387,0.854l0.39,0.853l0.392,0.852l0.395,0.85l0.398,0.85l0.399,0.847l0.403,0.846l0.408,0.85l0.408,0.845l0.411,0.843l0.415,0.846l0.417,0.842l0.419,0.841l0.423,0.841l0.426,0.841l0.428,0.838l0.431,0.838l0.434,0.838l0.436,0.835l0.438,0.833l0.443,0.834l0.445,0.834l0.447,0.83l0.45,0.829l0.454,0.831l0.456,0.829l0.458,0.826l0.462,0.828l0.465,0.826l0.466,0.823l0.469,0.821l0.473,0.823l0.475,0.819l0.479,0.821l0.481,0.819l0.482,0.815l0.487,0.817l0.49,0.816l0.492,0.813l0.495,0.814l0.498,0.812l0.5,0.81l0.503,0.808l0.505,0.807l0.51,0.808l0.512,0.807l0.514,0.803l0.516,0.802l0.521,0.804l0.523,0.801l0.526,0.8l0.527,0.797l0.531,0.796l0.535,0.798l0.537,0.795l0.538,0.792l0.543,0.792l0.544,0.79l0.549,0.791l0.552,0.79l0.553,0.786l0.555,0.785l0.559,0.783l0.563,0.785l0.564,0.781l0.569,0.782l0.57,0.779l0.572,0.777l0.577,0.778l0.578,0.774l0.583,0.775l0.584,0.773l0.587,0.77l0.59,0.77l0.592,0.768l0.596,0.768l0.6,0.767l0.601,0.764l0.604,0.762l0.607,0.762l0.61,0.761l0.612,0.758l0.616,0.757l0.62,0.758l0.62,0.754l0.624,0.752l0.626,0.751l0.631,0.752l0.632,0.748l0.635,0.747l0.638,0.746l0.641,0.744l0.645,0.745l0.648,0.742l0.649,0.739l0.651,0.737l0.655,0.737l0.659,0.737l0.663,0.735l0.663,0.732l0.666,0.731l0.67,0.729l0.672,0.728l0.676,0.726l0.676,0.724l0.678,0.719l0.68,0.718l0.682,0.715l0.684,0.712l0.685,0.709l0.686,0.707l0.69,0.706l0.691,0.701l0.69,0.697l0.694,0.696l0.696,0.694l0.697,0.69l0.699,0.688l0.699,0.683l0.702,0.683l0.704,0.68l0.705,0.676l0.707,0.674l0.71,0.672l0.709,0.668l0.712,0.666l0.713,0.663l0.715,0.661l0.718,0.658l0.717,0.654l0.719,0.652l0.721,0.649l0.724,0.648l0.725,0.645l0.725,0.641l0.728,0.639l0.728,0.635l0.732,0.634l0.731,0.63l0.734,0.628l0.736,0.626l0.736,0.622l0.738,0.619l0.74,0.618l0.742,0.614l0.742,0.612l0.745,0.609l0.746,0.606l0.748,0.605l0.748,0.6l0.749,0.597l0.751,0.595l0.754,0.594l0.756,0.592l0.754,0.586l0.757,0.584l0.76,0.583l0.761,0.579l0.76,0.576l0.764,0.574l0.764,0.571l0.767,0.569l0.767,0.566l0.768,0.563l0.77,0.561l0.771,0.557l0.773,0.556l0.775,0.552l0.776,0.55l0.776,0.547l0.777,0.543l0.78,0.542l0.782,0.54l0.783,0.537l0.782,0.533l0.784,0.53l0.787,0.529l0.788,0.526l0.789,0.522l0.789,0.52l0.791,0.517l0.795,0.516l0.792,0.511l0.795,0.51l0.798,0.507l0.796,0.503l0.798,0.501l0.801,0.499l0.803,0.497l0.802,0.493l0.802,0.49l0.806,0.488l0.806,0.486l0.808,0.482l0.809,0.48l0.81,0.477l0.81,0.475l0.813,0.471l0.812,0.469l0.815,0.466l0.817,0.465l0.816,0.461l0.819,0.458l0.818,0.455l0.82,0.453l0.823,0.451l0.822,0.448l0.825,0.445l0.823,0.442l0.825,0.439l0.828,0.437l0.829,0.435l0.829,0.431l0.83,0.429l0.831,0.427l0.832,0.422l0.833,0.421l0.834,0.418l0.838,0.416l0.838,0.414l0.837,0.41l0.837,0.406l0.838,0.404l0.843,0.403l0.841,0.399l0.842,0.396l0.845,0.395l0.844,0.391l0.846,0.388l0.848,0.387l0.847,0.382l0.848,0.381l0.85,0.378l0.851,0.375l0.852,0.373l0.853,0.369l0.851,0.367l0.855,0.364l0.856,0.362l0.855,0.359l0.859,0.357l0.858,0.353l0.858,0.351l0.858,0.347l0.861,0.346l0.863,0.343l0.862,0.34l0.864,0.338l0.864,0.335l0.864,0.331l0.866,0.33l0.867,0.327l0.867,0.323l0.869,0.322l0.869,0.318l0.87,0.316l0.871,0.314l0.872,0.31l0.872,0.308l0.872,0.304l0.875,0.303l0.875,0.3l0.873,0.296l0.878,0.295l0.878,0.292l0.877,0.289l0.878,0.286l0.879,0.283l0.88,0.281l0.882,0.278l0.879,0.275l0.883,0.273l0.885,0.271l0.882,0.267l0.883,0.264l0.885,0.262l0.886,0.259l0.887,0.257l0.886,0.253l0.888,0.252l0.888,0.248l0.889,0.246l0.888,0.242l0.89,0.24l0.893,0.238l0.892,0.236l0.89,0.231l0.891,0.229l0.894,0.227l0.894,0.224l0.895,0.222l0.895,0.219l0.893,0.215l0.896,0.213l0.898,0.211l0.897,0.208l0.898,0.205l0.897,0.202l0.898,0.199l0.9,0.197l0.9,0.194l0.9,0.192l0.901,0.189l0.901,0.186l0.901,0.183l0.902,0.181l0.904,0.178l0.902,0.175l0.902,0.172l0.905,0.17l0.906,0.167l0.903,0.164l0.905,0.162l0.907,0.159l0.907,0.156l0.904,0.153l0.908,0.151l0.907,0.148l0.877,0.14l1.849,0.288l1.816,0.271l1.82,0.261l1.821,0.25l1.822,0.239l1.823,0.228l1.824,0.217l1.826,0.206l1.827,0.195l1.828,0.185l1.829,0.173l1.829,0.163l1.831,0.151l1.831,0.141l1.832,0.13l1.833,0.119l1.833,0.108l1.835,0.097l1.834,0.086l1.834,0.075l1.836,0.065l1.836,0.053l1.836,0.043l1.836,0.031l1.837,0.021l1.836,0.009l1.837,-0.001l1.837,-0.012l1.837,-0.024l1.836,-0.034l1.837,-0.045l1.836,-0.056l1.836,-0.067l1.836,-0.078l1.835,-0.089l1.835,-0.099l1.834,-0.111l1.834,-0.122l1.835,-0.133l1.864,-0.146l0.884,-0.073l0.915,-0.079l0.916,-0.081l0.915,-0.085l0.917,-0.087l0.915,-0.089l0.914,-0.093l0.916,-0.095l0.913,-0.098l0.914,-0.1l0.915,-0.104l0.913,-0.106l0.914,-0.109l0.913,-0.111l0.914,-0.115l0.913,-0.117l0.91,-0.119l0.913,-0.123l0.912,-0.125l0.91,-0.128l0.913,-0.131l0.911,-0.134l0.91,-0.136l0.91,-0.139l0.91,-0.142l0.909,-0.144l0.91,-0.148l0.91,-0.15l0.907,-0.152l0.908,-0.156l0.908,-0.158l0.907,-0.161l0.906,-0.164l0.907,-0.166l0.908,-0.17l0.905,-0.172l0.905,-0.174l0.904,-0.178l0.905,-0.18l0.905,-0.183l0.903,-0.186l0.902,-0.188l0.902,-0.191l0.904,-0.195l0.902,-0.196l0.9,-0.199l0.901,-0.203l0.9,-0.205l0.9,-0.207l0.899,-0.211l0.899,-0.213l0.898,-0.216l0.897,-0.218l0.897,-0.222l0.897,-0.224l0.897,-0.227l0.896,-0.23l0.894,-0.232l0.893,-0.235l0.895,-0.238l0.895,-0.241l0.891,-0.243l0.891,-0.246l0.891,-0.249l0.893,-0.252l0.889,-0.254l0.889,-0.257l0.891,-0.261l0.888,-0.262l0.885,-0.265l0.888,-0.268l0.889,-0.272l0.884,-0.273l0.883,-0.276l0.888,-0.28l0.883,-0.282l0.882,-0.284l0.881,-0.287l0.882,-0.29l0.883,-0.294l0.88,-0.296l0.879,-0.298l0.879,-0.301l0.877,-0.304l0.879,-0.307l0.877,-0.31l0.874,-0.311l0.876,-0.316l0.876,-0.318l0.872,-0.319l0.871,-0.323l0.873,-0.327l0.873,-0.329l0.869,-0.331l0.869,-0.334l0.87,-0.337l0.867,-0.34l0.868,-0.342l0.869,-0.346l0.863,-0.348l0.864,-0.35l0.864,-0.354l0.862,-0.356l0.863,-0.359l0.864,-0.363l0.858,-0.363l0.859,-0.367l0.86,-0.371l0.857,-0.373l0.858,-0.376l0.856,-0.378l0.853,-0.38l0.856,-0.385l0.854,-0.387l0.85,-0.388l0.853,-0.393l0.851,-0.395l0.848,-0.398l0.848,-0.4l0.848,-0.403l0.848,-0.407l0.847,-0.409l0.842,-0.41l0.844,-0.415l0.844,-0.418l0.842,-0.42l0.84,-0.422l0.838,-0.424l0.842,-0.43l0.838,-0.431l0.835,-0.433l0.835,-0.436l0.834,-0.439l0.835,-0.443l0.833,-0.444l0.831,-0.448l0.831,-0.451l0.829,-0.453l0.828,-0.455l0.827,-0.459l0.828,-0.462l0.823,-0.463l0.824,-0.467l0.824,-0.471l0.821,-0.472l0.82,-0.475l0.822,-0.479l0.818,-0.481l0.816,-0.483l0.815,-0.486l0.814,-0.488l0.815,-0.493l0.816,-0.497l0.809,-0.496l0.81,-0.5l0.809,-0.503l0.809,-0.507l0.807,-0.509l0.806,-0.511l0.805,-0.515l0.801,-0.516l0.802,-0.52l0.802,-0.523l0.8,-0.526l0.797,-0.527l0.798,-0.532l0.797,-0.535l0.795,-0.536l0.789,-0.537l0.794,-0.544l0.794,-0.547l0.787,-0.546l0.787,-0.55l0.791,-0.556l0.784,-0.555l0.784,-0.559l0.784,-0.562l0.782,-0.566l0.781,-0.567l0.778,-0.57l0.779,-0.574l0.775,-0.574l0.774,-0.579l0.776,-0.582l0.774,-0.586l0.77,-0.587l0.77,-0.589l0.768,-0.593l0.766,-0.595l0.765,-0.598l0.768,-0.605l0.763,-0.603l0.759,-0.605l0.762,-0.611l0.758,-0.613l0.758,-0.616l0.757,-0.619l0.753,-0.62l0.755,-0.625l0.753,-0.628l0.746,-0.626l0.749,-0.634l0.75,-0.637l0.745,-0.638l0.744,-0.64l0.743,-0.644l0.744,-0.649l0.74,-0.649l0.735,-0.65l0.737,-0.656l0.739,-0.66l0.734,-0.661l0.731,-0.663l0.729,-0.665l0.73,-0.67l0.778,-0.719l2.601,-2.216l2.771,-1.999l2.923,-1.77l3.056,-1.529l3.169,-1.278l3.262,-1.019l3.333,-0.753l3.382,-0.482l3.411,-0.209l3.416,0.066l3.4,0.341l3.361,0.614l3.302,0.882l3.219,1.145l3.117,1.4l2.994,1.646l2.852,1.882l2.691,2.105l1.843,1.698l-0.118,0.139l-0.712,0.837l-0.715,0.836l-0.718,0.833l-0.721,0.832l-0.724,0.83l-0.727,0.828l-0.731,0.827l-0.733,0.825l-0.736,0.822l-0.739,0.821l-0.743,0.82l-0.745,0.817l-0.749,0.815l-0.751,0.814l-0.755,0.812l-0.757,0.809l-0.761,0.808l-0.764,0.806l-0.766,0.804l-0.77,0.803l-0.773,0.8l-0.776,0.798l-0.779,0.797l-0.782,0.794l-0.785,0.793l-0.788,0.79l-0.791,0.789l-0.794,0.786l-0.797,0.785l-0.8,0.783l-0.803,0.78l-0.806,0.779l-0.81,0.777l-0.812,0.774l-0.815,0.773l-0.818,0.77l-0.822,0.769l-0.824,0.766l-0.827,0.764l-0.829,0.761l-0.83,0.757l-0.833,0.755l-0.834,0.751l-0.835,0.748l-0.838,0.745l-0.839,0.741l-0.842,0.739l-0.842,0.735l-0.845,0.732l-0.846,0.729l-0.849,0.725l-0.849,0.723l-0.852,0.719l-0.853,0.716l-0.855,0.713l-0.857,0.71l-0.858,0.707l-0.86,0.703l-0.862,0.7l-0.863,0.698l-0.865,0.694l-0.867,0.69l-0.868,0.688l-0.87,0.684l-0.871,0.681l-0.874,0.679l-0.874,0.674l-0.877,0.672l-0.878,0.669l-0.879,0.665l-0.881,0.662l-0.883,0.659l-0.884,0.656l-0.886,0.653l-0.887,0.649l-0.889,0.646l-0.891,0.644l-0.892,0.64l-0.893,0.636l-0.895,0.634l-0.897,0.631l-0.897,0.627l-0.9,0.624l-0.901,0.621l-0.902,0.618l-0.904,0.614l-0.905,0.612l-0.907,0.608l-0.908,0.605l-0.91,0.602l-0.911,0.599l-0.913,0.596l-0.914,0.592l-0.915,0.589l-0.917,0.586l-0.918,0.583l-0.919,0.58l-0.921,0.577l-0.922,0.573l-0.924,0.571l-0.925,0.567l-0.926,0.564l-0.928,0.561l-0.929,0.557l-0.93,0.555l-0.932,0.551l-0.932,0.548l-0.935,0.545l-0.935,0.542l-0.937,0.539l-0.938,0.535l-0.939,0.533l-0.941,0.529l-0.942,0.526l-0.943,0.523l-0.944,0.519l-0.945,0.517l-0.947,0.513l-0.948,0.511l-0.949,0.507l-0.951,0.504l-0.951,0.5l-0.953,0.498l-0.954,0.494l-0.955,0.492l-0.956,0.488l-0.958,0.485l-0.958,0.482l-0.96,0.478l-0.961,0.476l-0.962,0.472l-0.963,0.469l-0.964,0.466l-0.965,0.463l-0.966,0.46l-0.968,0.456l-0.968,0.454l-0.97,0.45l-0.971,0.447l-0.971,0.444l-0.973,0.441l-0.974,0.438l-0.975,0.434l-0.976,0.432l-0.977,0.428l-0.977,0.425l-0.979,0.422l-0.98,0.418l-0.981,0.416l-0.982,0.413l-0.983,0.409l-0.984,0.406l-0.984,0.403l-0.986,0.4l-0.987,0.397l-0.987,0.393l-0.989,0.391l-0.989,0.387l-0.991,0.384l-0.991,0.381l-0.992,0.378l-0.993,0.374l-0.994,0.372l-0.995,0.368l-0.995,0.366l-0.997,0.362l-0.997,0.359l-0.998,0.355l-0.999,0.353l-1,0.35l-1.001,0.346l-1.001,0.343l-1.003,0.34l-1.003,0.337l-1.004,0.334l-1.004,0.331l-1.006,0.327l-1.006,0.325l-1.007,0.321l-1.008,0.318l-1.008,0.315l-1.009,0.312l-1.01,0.308l-1.011,0.306l-1.011,0.302l-1.013,0.299l-1.012,0.297l-1.014,0.292l-1.014,0.29l-1.015,0.287l-1.015,0.284l-1.017,0.28l-1.016,0.277l-1.018,0.274l-1.018,0.271l-1.019,0.268l-1.019,0.265l-1.02,0.262l-1.021,0.258l-1.021,0.255l-1.022,0.253l-1.022,0.249l-1.023,0.246l-1.023,0.242l-1.025,0.24l-1.024,0.236l-1.025,0.234l-1.026,0.23l-1.026,0.227l-1.027,0.224l-1.028,0.221l-1.027,0.218l-1.029,0.214l-1.029,0.212l-1.029,0.208l-1.03,0.205l-1.03,0.202l-1.031,0.199l-1.031,0.196l-1.031,0.193l-1.032,0.189l-1.033,0.187l-1.033,0.183l-1.033,0.18l-1.034,0.177l-1.034,0.174l-1.035,0.171l-1.035,0.168l-1.035,0.164l-1.036,0.161l-1.036,0.159l-1.036,0.155l-1.037,0.152l-1.037,0.149l-1.038,0.146l-1.038,0.142l-1.038,0.14l-1.038,0.136l-1.039,0.133l-1.039,0.13l-1.039,0.128l-1.04,0.123l-1.04,0.121l-1.04,0.118l-1.04,0.114l-1.041,0.112l-1.041,0.108l-1.041,0.105l-1.041,0.102l-1.042,0.099l-1.042,0.096l-1.042,0.093l-1.042,0.089l-1.043,0.087l-2.085,0.163l-2.086,0.151l-2.087,0.139l-2.087,0.126l-2.088,0.113l-2.088,0.102l-2.088,0.088l-2.089,0.076l-2.089,0.064l-2.09,0.051l-2.089,0.039l-2.09,0.027l-2.089,0.014l-2.09,0.001l-2.089,-0.011l-2.089,-0.023l-2.089,-0.036l-2.089,-0.048l-2.088,-0.061l-2.088,-0.073l-2.088,-0.086l-2.086,-0.098l-2.087,-0.11l-2.085,-0.123l-2.085,-0.135l-2.085,-0.148l-2.083,-0.16l-2.082,-0.173l-2.082,-0.185l-2.08,-0.197l-2.08,-0.21l-2.078,-0.222l-2.077,-0.235l-2.076,-0.247l-2.074,-0.259l-2.073,-0.272l-2.072,-0.284l-2.07,-0.297l-2.069,-0.309l-2.067,-0.321l-1.033,-0.165l-1.032,-0.169l-1.032,-0.171l-1.031,-0.175l-1.032,-0.178l-1.03,-0.18l-1.03,-0.184l-1.03,-0.187l-1.029,-0.19l-1.029,-0.194l-1.028,-0.196l-1.028,-0.199l-1.027,-0.203l-1.027,-0.205l-1.026,-0.209l-1.026,-0.212l-1.025,-0.215l-1.024,-0.217l-1.024,-0.221l-1.024,-0.225l-1.022,-0.227l-1.023,-0.23l-1.021,-0.233l-1.021,-0.237l-1.021,-0.239l-1.02,-0.243l-1.019,-0.246l-1.019,-0.249l-1.018,-0.252l-1.017,-0.255l-1.017,-0.258l-1.016,-0.261l-1.015,-0.264l-1.015,-0.268l-1.014,-0.27l-1.013,-0.274l-1.013,-0.276l-1.012,-0.28l-1.011,-0.283l-1.01,-0.286l-1.01,-0.288l-1.009,-0.293l-1.009,-0.295l-1.007,-0.298l-1.007,-0.301l-1.006,-0.305l-1.005,-0.307l-1.005,-0.311l-1.004,-0.313l-1.003,-0.317l-1.002,-0.32l-1.001,-0.323l-1.001,-0.326l-0.999,-0.329l-0.999,-0.332l-0.998,-0.335l-0.997,-0.338l-0.997,-0.342l-0.995,-0.344l-0.995,-0.347l-0.993,-0.351l-0.993,-0.354l-0.992,-0.357l-0.991,-0.359l-0.99,-0.363l-0.99,-0.366l-0.988,-0.369l-0.987,-0.372l-0.987,-0.376l-0.985,-0.378l-0.985,-0.381l-0.984,-0.385l-0.982,-0.387l-0.982,-0.391l-0.98,-0.394l-0.98,-0.396l-0.979,-0.4l-0.978,-0.403l-0.976,-0.406l-0.976,-0.409l-0.974,-0.412l-0.974,-0.416l-0.973,-0.418l-0.971,-0.421l-0.971,-0.425l-0.969,-0.427l-0.968,-0.431l-0.967,-0.433l-0.967,-0.437l-0.965,-0.44l-0.964,-0.443l-0.962,-0.446l-0.962,-0.449l-0.961,-0.452l-0.959,-0.455l-0.958,-0.458l-0.958,-0.461l-0.956,-0.465l-0.955,-0.467l-0.953,-0.47l-0.953,-0.474l-0.951,-0.477l-0.95,-0.479l-0.949,-0.483l-0.948,-0.486l-0.946,-0.489l-0.946,-0.492l-0.944,-0.495l-0.942,-0.498l-0.942,-0.501l-0.94,-0.504l-0.939,-0.507l-0.938,-0.511l-0.936,-0.513l-0.936,-0.516l-0.934,-0.52l-0.932,-0.523l-0.932,-0.525l-0.929,-0.529l-0.929,-0.532l-0.928,-0.535l-0.926,-0.537l-0.924,-0.541l-0.923,-0.544l-0.922,-0.548l-0.921,-0.55l-0.919,-0.553l-0.918,-0.556l-0.916,-0.559l-0.915,-0.563l-0.914,-0.565l-0.912,-0.569l-0.911,-0.571l-0.909,-0.575l-0.908,-0.578l-0.907,-0.58l-0.905,-0.584l-0.903,-0.587l-0.903,-0.59l-0.9,-0.593l-0.899,-0.596l-0.898,-0.599l-0.896,-0.602l-0.895,-0.605l-0.893,-0.609l-0.892,-0.611l-0.89,-0.614l-0.888,-0.618l-0.887,-0.62l-0.886,-0.624l-0.884,-0.626l-0.882,-0.63l-0.881,-0.632l-0.879,-0.636l-0.878,-0.639l-0.876,-0.642l-0.874,-0.645l-0.873,-0.648l-0.871,-0.651l-0.87,-0.654l-0.868,-0.657l-0.866,-0.66l-0.865,-0.663l-0.863,-0.666l-0.861,-0.669l-0.86,-0.673l-0.858,-0.675l-0.856,-0.679l-0.854,-0.681l-0.853,-0.685l-0.851,-0.687l-0.85,-0.691l-0.848,-0.694l-0.846,-0.696l-0.844,-0.7l-0.843,-0.703l-0.84,-0.706l-0.839,-0.709l-0.838,-0.712l-0.835,-0.715l-0.834,-0.718l-0.832,-0.721l-0.83,-0.724l-0.828,-0.727l-0.827,-0.73l-0.824,-0.733l-0.823,-0.737l-0.821,-0.739l-0.819,-0.742l-0.817,-0.746l-0.816,-0.748l-0.813,-0.752l-0.812,-0.754l-0.81,-0.758l-0.808,-0.761l-0.806,-0.763l-0.804,-0.767l-0.802,-0.77l-0.8,-0.773l-0.799,-0.775l-0.796,-0.779l-0.795,-0.782l-0.792,-0.785l-0.791,-0.788l-0.788,-0.791l-0.787,-0.794l-0.785,-0.797l-0.782,-0.8l-0.781,-0.804l-0.779,-0.806l-0.776,-0.809l-0.775,-0.812l-0.772,-0.816l-0.771,-0.818l-0.768,-0.821l-0.767,-0.825l-0.764,-0.827l-0.76,-0.828l-0.758,-0.831l-0.754,-0.832l-0.751,-0.834l-0.748,-0.836l-0.745,-0.838l-0.742,-0.839l-0.738,-0.841l-0.735,-0.843l-0.732,-0.845l-0.729,-0.846l-0.726,-0.848l-0.722,-0.85l-0.72,-0.852l-0.716,-0.853l-0.713,-0.855l-0.71,-0.856l-0.706,-0.859l-0.704,-0.86l-0.7,-0.861l-0.697,-0.864l-0.694,-0.865l-0.691,-0.866l-0.687,-0.869l-0.685,-0.869l-0.681,-0.872l-0.678,-0.873l-0.675,-0.875l-0.672,-0.876l-0.668,-0.878l-0.666,-0.88l-0.662,-0.881l-0.659,-0.883l-0.656,-0.884l-0.652,-0.886l-0.65,-0.887l-0.646,-0.889l-0.643,-0.89l-0.64,-0.892l-0.637,-0.894l-0.634,-0.895l-0.63,-0.896l-0.627,-0.898l-0.625,-0.899l-0.621,-0.901l-0.617,-0.903l-0.615,-0.904l-0.611,-0.905l-0.609,-0.907l-0.605,-0.908l-0.602,-0.91l-0.599,-0.911l-0.595,-0.912l-0.593,-0.914l-0.589,-0.916l-0.586,-0.916l-0.583,-0.918l-0.58,-0.92l-0.576,-0.921l-0.574,-0.922l-0.57,-0.923l-0.567,-0.925l-0.564,-0.927l-0.561,-0.927l-0.558,-0.929l-0.554,-0.931l-0.552,-0.931l-0.548,-0.933l-0.545,-0.934l-0.542,-0.936l-0.538,-0.936l-0.536,-0.938l-0.532,-0.94l-0.529,-0.94l-0.526,-0.942l-0.523,-0.943l-0.52,-0.944l-0.516,-0.946l-0.514,-0.947l-0.51,-0.948l-0.507,-0.949l-0.504,-0.95l-0.501,-0.952l-0.497,-0.952l-0.495,-0.954l-0.491,-0.955l-0.488,-0.957l-0.485,-0.957l-0.482,-0.959l-0.479,-0.959l-0.475,-0.961l-0.473,-0.962l-0.469,-0.963l-0.466,-0.964l-0.463,-0.966l-0.459,-0.966l-0.457,-0.967l-0.453,-0.969l-0.451,-0.97l-0.447,-0.97l-0.444,-0.972l-0.441,-0.973l-0.437,-0.973l-0.435,-0.975l-0.431,-0.976l-0.428,-0.977l-0.425,-0.978l-0.422,-0.979l-0.419,-0.98l-0.416,-0.981l-0.412,-0.981l-0.409,-0.983l-0.407,-0.984l-0.403,-0.985l-0.399,-0.986l-0.397,-0.986l-0.394,-0.988l-0.39,-0.988l-0.387,-0.99l-0.384,-0.99l-0.381,-0.991l-0.378,-0.992l-0.375,-0.993l-0.371,-0.994l-0.369,-0.995l-0.365,-0.996l-0.362,-0.996l-0.359,-0.998l-0.356,-0.998l-0.353,-0.999l-0.349,-1l-0.346,-1l-0.344,-1.002l-0.34,-1.002l-0.337,-1.003l-0.334,-1.004l-0.33,-1.005l-0.328,-1.005l-0.324,-1.007l-0.321,-1.007l-0.318,-1.007l-0.315,-1.009l-0.312,-1.009l-0.309,-1.01l-0.305,-1.011l-0.303,-1.011l-0.299,-1.012l-0.296,-1.013l-0.293,-1.013l-0.29,-1.015l-0.287,-1.014l-0.283,-1.016l-0.281,-1.016l-0.277,-1.017l-0.274,-1.017l-0.271,-1.018l-0.268,-1.019l-0.265,-1.02l-0.261,-1.02l-0.259,-1.02l-0.255,-1.021l-0.252,-1.022l-0.249,-1.023l-0.246,-1.023l-0.243,-1.023l-0.24,-1.024l-0.236,-1.025l-0.233,-1.025l-0.231,-1.026l-0.227,-1.026l-0.224,-1.027l-0.221,-1.027l-0.217,-1.028l-0.215,-1.028l-0.211,-1.029l-0.209,-1.029l-0.205,-1.03l-0.202,-1.03l-0.199,-1.031l-0.196,-1.031l-0.192,-1.032l-0.19,-1.032l-0.186,-1.033l-0.184,-1.032l-0.18,-1.034l-0.177,-1.034l-0.174,-1.034l-0.17,-1.034l-0.168,-1.035l-0.165,-1.036l-0.161,-1.035l-0.158,-1.036l-0.155,-1.037l-0.152,-1.037l-0.149,-1.037l-0.146,-1.037l-0.143,-1.038l-0.139,-1.038l-0.137,-1.039l-0.133,-1.038l-0.13,-1.039l-0.127,-1.04l-0.124,-1.039l-0.121,-1.04l-0.117,-1.04l-0.115,-1.041l-0.111,-1.04l-0.109,-1.041l-0.105,-1.042l-0.102,-1.041l-0.099,-1.042l-0.095,-1.041l-0.093,-1.042l-0.09,-1.043l-0.086,-1.042l-0.164,-2.085l-0.151,-2.087l-0.138,-2.086l-0.126,-2.087l-0.114,-2.088l-0.101,-2.088l-0.089,-2.089l-0.076,-2.089l-0.064,-2.089l-0.051,-2.089l-0.039,-2.09l-0.026,-2.089l-0.014,-2.09l-0.002,-2.089l0.011,-2.09l0.024,-2.089l0.035,-2.089l0.049,-2.088l0.06,-2.089l0.074,-2.088l0.085,-2.087l0.098,-2.087l0.111,-2.086l0.123,-2.086l0.135,-2.085l0.148,-2.084l0.16,-2.083l0.172,-2.083l0.185,-2.081l0.198,-2.081l0.209,-2.079l0.223,-2.079l0.234,-2.077l0.247,-2.075l0.26,-2.075l0.271,-2.073l0.285,-2.072l0.296,-2.07l0.309,-2.068l0.321,-2.067l0.166,-1.033l0.168,-1.032l0.172,-1.032l0.174,-1.032l0.178,-1.031l0.181,-1.031l0.184,-1.03l0.187,-1.03l0.19,-1.029l0.193,-1.029l0.196,-1.028l0.2,-1.027l0.202,-1.028l0.206,-1.026l0.208,-1.027l0.212,-1.025l0.215,-1.025l0.218,-1.025l0.221,-1.024l0.224,-1.023l0.227,-1.023l0.231,-1.022l0.233,-1.022l0.236,-1.021l0.24,-1.02l0.243,-1.02l0.245,-1.02l0.249,-1.018l0.252,-1.018l0.255,-1.017l0.258,-1.017l0.261,-1.016l0.265,-1.016l0.267,-1.014l0.27,-1.014l0.274,-1.014l0.277,-1.012l0.279,-1.012l0.283,-1.012l0.286,-1.01l0.289,-1.01l0.292,-1.009l0.295,-1.008l0.298,-1.008l0.302,-1.007l0.304,-1.006l0.307,-1.005l0.311,-1.004l0.314,-1.004l0.316,-1.003l0.32,-1.002l0.323,-1.002l0.326,-1l0.329,-1l0.332,-0.999l0.335,-0.998l0.339,-0.997l0.341,-0.996l0.344,-0.996l0.348,-0.994l0.351,-0.994l0.353,-0.993l0.357,-0.992l0.36,-0.991l0.363,-0.99l0.366,-0.989l0.369,-0.989l0.372,-0.987l0.375,-0.986l0.378,-0.986l0.382,-0.984l0.384,-0.984l0.388,-0.983l0.39,-0.981l0.394,-0.981l0.397,-0.98l0.4,-0.978l0.403,-0.978l0.406,-0.977l0.409,-0.975l0.412,-0.975l0.415,-0.974l0.418,-0.972l0.422,-0.972l0.424,-0.97l0.428,-0.97l0.43,-0.968l0.434,-0.967l0.436,-0.966l0.44,-0.965l0.443,-0.964l0.446,-0.963l0.449,-0.962l0.452,-0.96l0.455,-0.96l0.458,-0.958l0.462,-0.957l0.464,-0.956l0.467,-0.955l0.471,-0.954l0.473,-0.952l0.477,-0.952l0.48,-0.95l0.482,-0.949l0.486,-0.947l0.489,-0.947l0.492,-0.945l0.495,-0.944l0.498,-0.943l0.501,-0.941l0.504,-0.941l0.508,-0.939l0.51,-0.938l0.513,-0.936l0.517,-0.935l0.519,-0.934l0.523,-0.933l0.526,-0.931l0.528,-0.93l0.532,-0.929l0.535,-0.927l0.538,-0.926l0.541,-0.925l0.544,-0.923l0.547,-0.922l0.55,-0.921l0.553,-0.919l0.557,-0.918l0.559,-0.916l0.562,-0.915l0.566,-0.914l0.568,-0.912l0.572,-0.911l0.574,-0.909l0.578,-0.908l0.581,-0.906l0.584,-0.905l0.586,-0.904l0.59,-0.902l0.593,-0.901l0.596,-0.899l0.599,-0.898l0.603,-0.896l0.605,-0.894l0.608,-0.894l0.611,-0.891l0.615,-0.89l0.617,-0.889l0.62,-0.887l0.624,-0.885l0.627,-0.884l0.629,-0.883l0.633,-0.88l0.636,-0.88l0.638,-0.877l0.642,-0.876l0.645,-0.875l0.648,-0.872l0.651,-0.872l0.654,-0.869l0.657,-0.868l0.66,-0.866l0.663,-0.865l0.667,-0.863l0.669,-0.861l0.672,-0.86l0.676,-0.858l0.678,-0.856l0.682,-0.855l0.684,-0.853l0.688,-0.851l0.69,-0.85l0.694,-0.847l0.697,-0.846l0.699,-0.845l0.703,-0.842l0.706,-0.841l0.709,-0.839l0.712,-0.837l0.715,-0.836l0.718,-0.833l0.721,-0.832l0.724,-0.83l0.727,-0.829l0.731,-0.826l0.733,-0.825l0.736,-0.823l0.739,-0.821l0.743,-0.819l0.745,-0.817l0.749,-0.815l0.751,-0.814l0.755,-0.812l0.757,-0.809l0.761,-0.808l0.764,-0.806l0.766,-0.804l0.77,-0.803l0.773,-0.8l0.776,-0.798l0.779,-0.797l0.782,-0.794l0.785,-0.793l0.788,-0.79l0.791,-0.789l0.794,-0.786l0.797,-0.785l0.8,-0.783l0.803,-0.78l0.806,-0.779l0.81,-0.777l0.812,-0.774l0.815,-0.773l0.818,-0.771l0.822,-0.768l0.824,-0.766l0.827,-0.764l0.829,-0.761l0.83,-0.757l0.833,-0.755l0.834,-0.751l0.835,-0.748l0.838,-0.745l0.839,-0.741l0.842,-0.739l0.842,-0.735l0.845,-0.732l0.846,-0.729l0.849,-0.725l0.849,-0.723l0.852,-0.719l0.853,-0.716l0.855,-0.713l0.857,-0.71l0.858,-0.707l0.86,-0.703l0.862,-0.701l0.863,-0.697l0.865,-0.694l0.867,-0.69l0.868,-0.688l0.87,-0.684l0.871,-0.682l0.874,-0.678l0.874,-0.674l0.877,-0.672l0.878,-0.669l0.879,-0.665l0.881,-0.662l0.883,-0.659l0.884,-0.656l0.886,-0.653l0.887,-0.649l0.889,-0.647l0.891,-0.643l0.892,-0.64l0.893,-0.637l0.895,-0.633l0.897,-0.631l0.897,-0.627l0.9,-0.624l0.901,-0.621l0.902,-0.618l0.904,-0.614l0.905,-0.612l0.907,-0.608l0.908,-0.605l0.91,-0.602l0.911,-0.599l0.913,-0.596l0.914,-0.592l0.915,-0.589l0.917,-0.587l0.918,-0.583l0.919,-0.579l0.921,-0.577l0.922,-0.573l0.924,-0.571l0.925,-0.567l0.926,-0.564l0.928,-0.561l0.929,-0.557l0.93,-0.555l0.932,-0.551l0.932,-0.548l0.935,-0.545l0.935,-0.542l0.937,-0.539l0.938,-0.535l0.939,-0.533l0.941,-0.529l0.942,-0.526l0.943,-0.523l0.944,-0.519l0.945,-0.517l0.947,-0.513l0.948,-0.511l0.949,-0.507l0.951,-0.504l0.951,-0.5l0.953,-0.498l0.954,-0.494l0.955,-0.492l0.956,-0.488l0.958,-0.485l0.958,-0.482l0.96,-0.478l0.961,-0.476l0.962,-0.472l0.963,-0.469l0.964,-0.466l0.965,-0.463l0.966,-0.46l0.968,-0.457l0.968,-0.453l0.97,-0.45l0.971,-0.447l0.971,-0.444l0.973,-0.441l0.974,-0.438l0.975,-0.434l0.976,-0.432l0.977,-0.428l0.977,-0.425l0.979,-0.422l0.98,-0.419l0.981,-0.415l0.982,-0.413l0.983,-0.409l0.984,-0.406l0.984,-0.403l0.986,-0.4l0.987,-0.397l0.987,-0.393l0.989,-0.391l0.989,-0.387l0.99,-0.384l0.992,-0.381l0.992,-0.378l0.993,-0.374l0.994,-0.372l0.995,-0.368l0.995,-0.366l0.997,-0.362l0.997,-0.359l0.998,-0.355l0.999,-0.353l1,-0.35l1.001,-0.346l1.001,-0.343l1.003,-0.34l1.003,-0.337l1.004,-0.334l1.004,-0.331l1.006,-0.327l1.006,-0.325l1.007,-0.321l1.008,-0.318l1.008,-0.315l1.009,-0.312l1.01,-0.308l1.011,-0.306l1.011,-0.302l1.013,-0.3l1.012,-0.296l1.014,-0.293l1.014,-0.289l1.015,-0.287l1.015,-0.284l1.017,-0.28l1.016,-0.277l1.018,-0.275l1.018,-0.271l1.019,-0.267l1.019,-0.265l1.02,-0.262l1.021,-0.258l1.021,-0.255l1.022,-0.253l1.022,-0.249l1.023,-0.246l1.023,-0.242l1.025,-0.24l1.024,-0.237l1.025,-0.233l1.026,-0.23l1.026,-0.227l1.027,-0.224l1.028,-0.221l1.027,-0.218l1.029,-0.214l1.028,-0.212l1.03,-0.208l1.03,-0.205l1.03,-0.203l1.031,-0.198l1.031,-0.196l1.031,-0.193l1.032,-0.189l1.033,-0.187l1.033,-0.183l1.033,-0.18l1.034,-0.177l1.034,-0.174l1.035,-0.171l1.035,-0.168l1.035,-0.164l1.036,-0.162l1.036,-0.158l1.036,-0.155l1.037,-0.152l1.037,-0.149l1.038,-0.146l1.038,-0.142l1.038,-0.14l1.038,-0.136l1.039,-0.133l1.039,-0.131l1.039,-0.127l1.04,-0.124l1.04,-0.12l1.04,-0.118l1.04,-0.114l1.041,-0.112l1.041,-0.108l1.041,-0.105l1.041,-0.102l1.042,-0.099l1.042,-0.096l1.042,-0.093l1.042,-0.089l1.042,-0.087l2.086,-0.163l2.086,-0.151l2.087,-0.139l2.087,-0.126l2.088,-0.113l2.088,-0.102l2.088,-0.088l2.089,-0.077l2.089,-0.063l2.09,-0.052l2.089,-0.038l2.09,-0.027l2.089,-0.014l2.09,-0.001l2.089,0.011Z" style="fill:#004098;"/><path d="M2464.07,353.019l0.544,1.05l0.561,1.066l0.577,1.084l0.593,1.102l0.61,1.119l0.625,1.136l0.641,1.152l0.656,1.17l0.672,1.187l0.688,1.203l0.702,1.219l0.717,1.236l0.733,1.252l0.746,1.269l0.762,1.284l0.776,1.3l0.79,1.316l0.804,1.331l0.818,1.347l0.832,1.363l0.846,1.377l0.859,1.393l0.872,1.407l0.886,1.423l0.898,1.437l1.836,2.918l1.887,2.976l1.936,3.031l1.984,3.088l2.03,3.141l2.077,3.196l2.121,3.247l2.164,3.299l2.207,3.349l2.247,3.399l2.287,3.447l2.326,3.495l2.364,3.54l2.399,3.587l2.435,3.63l2.468,3.674l2.502,3.717l5.095,7.556l5.212,7.713l5.32,7.863l10.921,16.141l5.583,8.263l5.653,8.38l2.849,4.232l2.863,4.258l2.875,4.283l2.887,4.308l2.897,4.331l2.906,4.353l2.913,4.374l2.921,4.395l2.925,4.414l2.93,4.433l2.933,4.45l2.935,4.466l2.936,4.481l2.935,4.496l2.933,4.509l2.93,4.521l2.927,4.532l2.921,4.543l2.915,4.552l2.907,4.56l2.898,4.568l2.888,4.574l1.44,2.289l1.437,2.29l1.434,2.291l1.431,2.292l1.427,2.293l1.424,2.294l1.42,2.294l1.417,2.295l1.412,2.295l1.408,2.295l1.404,2.295l1.4,2.296l1.394,2.295l1.391,2.294l1.385,2.294l1.38,2.294l1.375,2.293l1.37,2.292l1.365,2.292l1.358,2.29l1.353,2.289l1.348,2.287l1.341,2.287l1.334,2.284l1.329,2.283l1.322,2.281l1.315,2.28l1.309,2.277l1.301,2.275l1.295,2.272l1.287,2.27l1.28,2.268l1.273,2.265l1.264,2.262l1.257,2.259l1.249,2.256l1.241,2.253l1.232,2.25l1.224,2.246l1.216,2.242l1.206,2.239l1.198,2.235l1.189,2.231l1.18,2.227l1.17,2.223l1.161,2.219l1.151,2.214l1.142,2.209l1.131,2.205l1.122,2.2l1.111,2.195l1.101,2.189l1.091,2.185l1.08,2.18l1.069,2.173l1.058,2.169l1.047,2.162l1.036,2.157l1.024,2.151l1.013,2.145l1.001,2.138l0.99,2.133l0.977,2.125l0.965,2.12l0.953,2.112l0.941,2.106l0.928,2.098l0.915,2.092l0.902,2.084l0.89,2.077l0.876,2.07l0.863,2.062l0.849,2.054l0.836,2.047l0.822,2.038l0.808,2.031l0.794,2.022l0.78,2.014l0.766,2.005l0.751,1.997l0.736,1.988l0.722,1.98l0.706,1.97l0.692,1.961l0.676,1.952l0.661,1.943l0.646,1.933l0.629,1.924l0.614,1.914l0.598,1.904l0.293,0.948l0.289,0.946l0.284,0.943l0.281,0.941l0.277,0.938l0.272,0.936l0.269,0.933l0.264,0.93l0.26,0.928l0.255,0.925l0.252,0.923l0.247,0.92l0.243,0.917l0.239,0.914l0.235,0.912l0.23,0.909l0.226,0.907l0.221,0.903l0.217,0.901l0.213,0.898l0.208,0.895l0.204,0.893l0.2,0.889l0.195,0.887l0.191,0.884l0.186,0.881l0.181,0.878l0.177,0.875l0.173,0.872l0.168,0.869l0.163,0.866l0.159,0.864l0.154,0.86l0.149,0.857l0.145,0.855l0.14,0.851l0.135,0.848l0.131,0.845l0.126,0.842l0.121,0.839l0.117,0.836l0.111,0.833l0.107,0.829l0.102,0.826l0.097,0.824l0.092,0.82l0.088,0.816l0.082,0.814l0.078,0.81l0.072,0.807l0.068,0.804l0.063,0.8l0.057,0.798l0.053,0.793l0.048,0.791l0.042,0.787l0.038,0.784l0.032,0.78l0.028,0.777l0.022,0.774l0.017,0.77l0.012,0.767l0.006,0.763l0.002,0.76l-0.004,0.756l-0.009,0.753l-0.014,0.749l-0.019,0.746l-0.051,1.524l-0.06,1.523l-0.07,1.521l-0.081,1.518l-0.09,1.517l-0.1,1.515l-0.109,1.512l-0.12,1.51l-0.129,1.508l-0.14,1.506l-0.148,1.504l-0.159,1.502l-0.168,1.499l-0.178,1.497l-0.187,1.494l-0.197,1.492l-0.207,1.49l-0.216,1.487l-0.225,1.485l-0.235,1.482l-0.244,1.48l-0.254,1.477l-0.263,1.475l-0.273,1.472l-0.281,1.469l-0.291,1.467l-0.301,1.463l-0.309,1.461l-0.319,1.459l-0.327,1.455l-0.337,1.453l-0.346,1.449l-0.355,1.447l-0.364,1.444l-0.374,1.44l-0.382,1.438l-0.391,1.435l-0.399,1.432l-0.409,1.428l-0.418,1.426l-0.426,1.422l-0.436,1.419l-0.444,1.416l-0.452,1.412l-0.462,1.409l-0.47,1.406l-0.479,1.403l-0.487,1.399l-0.496,1.395l-0.505,1.392l-0.513,1.389l-0.521,1.385l-0.53,1.382l-0.539,1.378l-0.547,1.374l-0.555,1.371l-0.564,1.367l-0.571,1.364l-0.581,1.359l-0.588,1.356l-0.597,1.352l-0.605,1.348l-0.613,1.345l-0.621,1.34l-0.629,1.337l-0.638,1.332l-0.645,1.329l-0.654,1.324l-0.661,1.321l-0.67,1.316l-0.677,1.312l-0.685,1.308l-0.694,1.304l-0.701,1.3l-0.708,1.295l-0.717,1.291l-0.724,1.287l-0.732,1.282l-0.74,1.279l-0.748,1.273l-0.755,1.269l-0.762,1.265l-0.771,1.26l-0.777,1.256l-0.786,1.251l-0.793,1.247l-0.8,1.242l-0.808,1.237l-0.815,1.232l-0.822,1.228l-0.83,1.223l-0.837,1.219l-0.844,1.213l-0.852,1.209l-0.859,1.203l-0.866,1.199l-0.873,1.194l-0.881,1.189l-0.887,1.184l-0.895,1.179l-0.901,1.173l-0.909,1.169l-0.915,1.164l-0.923,1.158l-0.929,1.153l-0.937,1.148l-0.943,1.143l-0.95,1.137l-0.957,1.132l-0.963,1.127l-0.971,1.121l-0.977,1.116l-0.984,1.11l-0.99,1.105l-0.997,1.1l-1.004,1.093l-1.01,1.089l-1.017,1.082l-1.023,1.077l-1.03,1.072l-1.036,1.065l-1.043,1.06l-1.049,1.054l-1.055,1.049l-1.062,1.042l-1.068,1.037l-1.074,1.031l-1.081,1.024l-1.086,1.019l-1.093,1.013l-1.099,1.007l-1.106,1.001l-1.111,0.994l-1.117,0.989l-1.124,0.982l-1.129,0.977l-1.135,0.97l-1.142,0.964l-1.147,0.957l-1.153,0.951l-1.159,0.945l-1.165,0.939l-1.17,0.932l-1.177,0.925l-1.182,0.92l-1.187,0.912l-1.194,0.907l-1.199,0.899l-1.205,0.893l-1.21,0.887l-1.216,0.879l-1.221,0.873l-1.227,0.867l-1.233,0.859l-1.238,0.853l-1.243,0.846l-1.248,0.839l-1.254,0.833l-1.26,0.825l-1.264,0.818l-1.27,0.812l-1.275,0.804l-1.28,0.798l-1.286,0.79l-1.29,0.783l-1.296,0.776l-1.301,0.769l-1.306,0.762l-1.311,0.755l-1.315,0.747l-1.321,0.74l-1.326,0.733l-1.331,0.725l-1.335,0.718l-1.341,0.711l-1.345,0.703l-1.35,0.695l-1.355,0.688l-1.359,0.681l-1.364,0.673l-1.369,0.665l-1.374,0.658l-1.378,0.65l-1.382,0.643l-1.388,0.634l-1.391,0.627l-1.397,0.619l-1.4,0.612l-1.405,0.603l-1.41,0.596l-1.414,0.587l-1.418,0.58l-1.423,0.572l-1.427,0.563l-1.431,0.556l-1.435,0.547l-1.439,0.54l-1.444,0.531l-1.448,0.523l-1.452,0.515l-1.456,0.507l-1.46,0.498l-1.464,0.49l-1.468,0.482l-1.472,0.474l-1.476,0.465l-1.48,0.456l-1.483,0.448l-1.488,0.44l-1.491,0.431l-1.495,0.423l-1.499,0.414l-1.503,0.405l-1.506,0.397l-1.51,0.388l-1.513,0.379l-1.518,0.371l-1.52,0.362l-1.525,0.353l-1.527,0.344l-1.532,0.335l-1.534,0.327l-1.538,0.317l-1.542,0.309l-1.545,0.299l-1.548,0.291l-1.552,0.281l-1.554,0.272l-1.558,0.264l-1.562,0.254l-1.564,0.245l-1.568,0.235l-1.57,0.227l-1.574,0.217l-1.577,0.208l-1.58,0.198l-1.583,0.189l-1.586,0.18l-1.589,0.17l-1.591,0.161l-1.595,0.151l-1.597,0.142l-1.601,0.132l-1.603,0.123l-1.606,0.113l-1.608,0.103l-1.612,0.094l-1.614,0.084l-1.616,0.074l-1.62,0.064l-1.622,0.055l-1.624,0.045l-1.627,0.035l-1.63,0.024l-1.632,0.015l-1.634,0.005l-1.634,-0.004l-1.633,-0.015l-1.629,-0.024l-1.628,-0.034l-1.625,-0.043l-1.623,-0.053l-1.62,-0.062l-1.618,-0.072l-1.615,-0.081l-1.613,-0.091l-1.61,-0.1l-1.608,-0.109l-1.605,-0.119l-1.602,-0.128l-1.6,-0.137l-1.597,-0.147l-1.594,-0.156l-1.591,-0.165l-1.588,-0.174l-1.586,-0.183l-1.582,-0.192l-1.58,-0.202l-1.577,-0.21l-1.573,-0.22l-1.571,-0.228l-1.568,-0.238l-1.564,-0.246l-1.562,-0.255l-1.558,-0.264l-1.555,-0.273l-1.552,-0.282l-1.548,-0.29l-1.545,-0.3l-1.542,-0.308l-1.539,-0.316l-1.535,-0.326l-1.531,-0.334l-1.528,-0.342l-1.525,-0.352l-1.521,-0.359l-1.518,-0.368l-1.514,-0.377l-1.51,-0.385l-1.507,-0.394l-1.503,-0.402l-1.499,-0.41l-1.496,-0.419l-1.491,-0.427l-1.488,-0.436l-1.484,-0.443l-1.48,-0.452l-1.476,-0.46l-1.473,-0.468l-1.468,-0.477l-1.464,-0.484l-1.46,-0.493l-1.456,-0.5l-1.452,-0.509l-1.448,-0.516l-1.443,-0.525l-1.44,-0.532l-1.435,-0.541l-1.431,-0.548l-1.426,-0.556l-1.422,-0.564l-1.418,-0.572l-1.413,-0.579l-1.409,-0.588l-1.404,-0.595l-1.4,-0.602l-1.396,-0.611l-1.39,-0.618l-1.386,-0.625l-1.382,-0.633l-1.376,-0.641l-1.372,-0.648l-1.368,-0.655l-1.362,-0.663l-1.358,-0.671l-1.353,-0.677l-1.348,-0.686l-1.342,-0.692l-1.339,-0.7l-1.333,-0.707l-1.328,-0.714l-1.323,-0.722l-1.318,-0.728l-1.312,-0.736l-1.308,-0.743l-1.302,-0.75l-1.298,-0.757l-1.292,-0.764l-1.286,-0.772l-1.282,-0.778l-1.276,-0.785l-1.271,-0.792l-1.265,-0.799l-1.26,-0.805l-1.254,-0.813l-1.249,-0.819l-1.243,-0.827l-1.238,-0.832l-1.232,-0.84l-1.226,-0.846l-1.221,-0.853l-1.215,-0.86l-1.21,-0.866l-1.203,-0.873l-1.198,-0.879l-1.192,-0.886l-1.186,-0.892l-1.18,-0.899l-1.174,-0.905l-1.168,-0.912l-1.163,-0.918l-1.156,-0.924l-1.15,-0.931l-1.144,-0.937l-1.138,-0.943l-1.131,-0.949l-1.126,-0.956l-1.119,-0.961l-1.113,-0.968l-1.107,-0.974l-1.1,-0.98l-1.094,-0.986l-1.087,-0.993l-1.082,-0.998l-1.074,-1.004l-1.068,-1.01l-1.062,-1.016l-1.055,-1.021l-1.049,-1.028l-1.041,-1.033l-1.036,-1.04l-1.028,-1.045l-1.022,-1.05l-1.015,-1.057l-1.008,-1.062l-1.001,-1.067l-0.995,-1.074l-0.987,-1.079l-0.981,-1.084l-0.974,-1.09l-0.966,-1.096l-0.96,-1.101l-0.952,-1.106l-0.946,-1.112l-0.938,-1.117l-0.932,-1.122l-0.924,-1.128l-0.916,-1.133l-0.91,-1.139l-0.902,-1.143l-0.895,-1.149l-0.888,-1.154l-0.88,-1.159l-0.872,-1.165l-0.866,-1.169l-0.858,-1.175l-0.85,-1.179l-0.843,-1.185l-0.835,-1.189l-0.827,-1.194l-0.82,-1.2l-0.812,-1.204l-0.805,-1.209l-0.796,-1.214l-0.789,-1.218l-0.781,-1.224l-0.774,-1.228l-0.765,-1.233l-0.757,-1.238l-0.75,-1.242l-0.741,-1.247l-0.734,-1.251l-0.725,-1.256l-0.717,-1.261l-0.71,-1.265l-0.701,-1.269l-0.693,-1.274l-0.684,-1.279l-0.677,-1.282l-0.668,-1.288l-0.66,-1.291l-0.651,-1.296l-0.643,-1.3l-0.635,-1.304l-0.626,-1.309l-0.618,-1.313l-0.609,-1.316l-0.601,-1.321l-0.592,-1.326l-0.583,-1.329l-0.575,-1.333l-0.566,-1.337l-0.558,-1.341l-0.549,-1.346l-0.54,-1.349l-0.531,-1.353l-0.522,-1.357l-0.513,-1.36l-0.505,-1.365l-0.495,-1.368l-0.487,-1.372l-0.478,-1.376l-0.468,-1.38l-0.46,-1.383l-0.45,-1.386l-0.441,-1.391l-0.432,-1.394l-0.423,-1.397l-0.414,-1.401l-0.404,-1.405l-0.395,-1.408l-0.386,-1.411l-0.376,-1.415l-0.367,-1.418l-0.358,-1.422l-0.348,-1.425l-0.338,-1.428l-0.329,-1.431l-0.32,-1.435l-0.309,-1.438l-0.301,-1.441l-0.29,-1.444l-0.281,-1.447l-0.271,-1.451l-0.261,-1.453l-0.252,-1.456l-0.242,-1.46l-0.231,-1.462l-0.222,-1.466l-0.212,-1.468l-0.202,-1.471l-0.192,-1.474l-0.182,-1.477l-0.172,-1.479l-0.162,-1.483l-0.152,-1.485l-0.141,-1.488l-0.132,-1.49l-0.121,-1.493l-0.111,-1.496l-0.1,-1.498l-0.091,-1.501l-0.08,-1.504l-0.069,-1.505l-0.059,-1.509l-0.049,-1.511l-0.038,-1.513l-0.027,-1.516l-0.018,-1.518l-0.006,-1.52l0.004,-1.523l0.015,-1.524l0.014,-0.839l0.018,-0.841l0.023,-0.844l0.028,-0.847l0.033,-0.85l0.038,-0.853l0.043,-0.856l0.048,-0.859l0.052,-0.861l0.057,-0.865l0.062,-0.867l0.066,-0.87l0.071,-0.873l0.076,-0.875l0.081,-0.879l0.085,-0.881l0.09,-0.884l0.094,-0.886l0.099,-0.89l0.104,-0.892l0.108,-0.894l0.112,-0.898l0.118,-0.9l0.121,-0.903l0.127,-0.905l0.13,-0.908l0.135,-0.91l0.14,-0.914l0.144,-0.915l0.148,-0.919l0.153,-0.921l0.157,-0.923l0.161,-0.926l0.166,-0.928l0.17,-0.931l0.174,-0.933l0.179,-0.936l0.183,-0.939l0.187,-0.94l0.191,-0.943l0.196,-0.946l0.199,-0.948l0.204,-0.95l0.208,-0.953l0.212,-0.955l0.216,-0.957l0.221,-0.96l0.224,-0.962l0.228,-0.964l0.233,-0.967l0.236,-0.968l0.24,-0.971l0.245,-0.974l0.248,-0.975l0.252,-0.978l0.256,-0.98l0.26,-0.982l0.264,-0.984l0.268,-0.986l0.272,-0.989l0.554,-1.983l0.57,-1.992l0.585,-2l0.6,-2.008l0.614,-2.016l0.629,-2.024l0.644,-2.032l0.658,-2.04l0.671,-2.047l0.686,-2.054l0.7,-2.062l0.713,-2.07l0.727,-2.076l0.741,-2.083l0.753,-2.09l0.767,-2.097l0.779,-2.104l0.793,-2.11l0.805,-2.116l0.818,-2.123l0.83,-2.129l0.842,-2.136l0.854,-2.141l0.866,-2.147l0.878,-2.153l0.89,-2.158l0.901,-2.164l0.913,-2.169l0.924,-2.175l0.934,-2.18l0.946,-2.185l0.957,-2.19l0.967,-2.194l0.977,-2.2l0.988,-2.204l0.998,-2.208l1.008,-2.213l1.018,-2.217l1.028,-2.222l1.037,-2.225l1.047,-2.23l1.056,-2.233l1.065,-2.237l1.074,-2.24l1.083,-2.244l1.092,-2.247l1.1,-2.251l1.109,-2.253l1.117,-2.257l1.125,-2.26l1.133,-2.262l1.141,-2.265l1.149,-2.268l1.156,-2.27l1.164,-2.272l1.17,-2.275l1.178,-2.277l1.185,-2.278l1.192,-2.281l1.198,-2.282l1.205,-2.284l1.211,-2.286l1.218,-2.287l1.223,-2.289l1.23,-2.289l1.235,-2.291l1.241,-2.291l1.246,-2.293l1.252,-2.293l1.257,-2.294l1.262,-2.294l1.267,-2.295l1.272,-2.295l1.276,-2.295l1.281,-2.296l1.285,-2.295l1.289,-2.295l1.293,-2.295l1.297,-2.294l1.301,-2.294l1.304,-2.294l1.308,-2.292l1.311,-2.292l1.315,-2.291l2.637,-4.578l2.648,-4.573l2.658,-4.567l2.667,-4.56l2.674,-4.552l2.68,-4.543l2.685,-4.533l2.688,-4.523l2.692,-4.511l2.692,-4.498l2.693,-4.486l2.693,-4.471l2.69,-4.455l2.687,-4.44l2.682,-4.423l2.677,-4.404l2.67,-4.386l2.663,-4.366l2.653,-4.345l5.274,-8.625l5.224,-8.532l5.165,-8.43l5.095,-8.323l5.017,-8.207l2.476,-4.058l2.452,-4.026l2.429,-3.994l2.403,-3.96l2.376,-3.926l2.349,-3.891l2.319,-3.855l2.29,-3.818l2.258,-3.779l2.225,-3.741l2.192,-3.701l2.157,-3.661l2.121,-3.618l2.084,-3.577l2.045,-3.533l1.008,-1.749l0.998,-1.739l0.988,-1.727l0.977,-1.716l0.967,-1.705l0.956,-1.692l0.946,-1.681l0.934,-1.67l0.924,-1.657l0.912,-1.645l0.901,-1.632l0.89,-1.621l0.878,-1.608l0.866,-1.595l0.854,-1.583l0.842,-1.57l0.83,-1.557l0.817,-1.544l0.805,-1.531l0.792,-1.518l0.78,-1.504l0.766,-1.491l0.754,-1.477l0.74,-1.464l0.727,-1.45l0.713,-1.436l0.699,-1.421l0.686,-1.408l0.672,-1.393l0.657,-1.379l0.643,-1.365l0.629,-1.35l0.614,-1.335l0.6,-1.32l0.585,-1.306l0.569,-1.29l0.555,-1.275l0.539,-1.26l0.524,-1.245l0.508,-1.229l0.492,-1.213l0.477,-1.198l0.46,-1.181l0.444,-1.166l0.428,-1.15l0.412,-1.133l0.395,-1.117l0.378,-1.101l0.361,-1.084l0.344,-1.068l0.327,-1.05l0.309,-1.034l0.292,-1.017l0.14,-0.502l0.135,-0.498l0.528,1.031Zm2.666,61.284l-0.877,1.634l-0.887,1.644l-0.9,1.658l-0.909,1.665l-0.919,1.675l-0.932,1.688l-0.94,1.695l-0.952,1.709l-0.961,1.716l-0.971,1.727l-0.983,1.738l-0.991,1.749l-1.001,1.757l-1.011,1.767l-1.019,1.776l-1.034,1.796l-2.081,3.594l-2.121,3.64l-2.156,3.679l-2.19,3.716l-2.222,3.752l-2.253,3.787l-2.283,3.821l-2.313,3.856l-2.34,3.89l-2.368,3.922l-2.393,3.954l-2.417,3.985l-2.442,4.015l-2.464,4.045l-2.487,4.076l-5.028,8.225l-5.102,8.333l-5.165,8.432l-5.218,8.522l-5.265,8.61l-2.644,4.33l-2.653,4.351l-2.66,4.368l-2.665,4.385l-2.669,4.4l-2.671,4.415l-2.674,4.428l-2.675,4.442l-2.674,4.454l-2.672,4.464l-2.67,4.475l-2.665,4.484l-2.661,4.492l-2.654,4.499l-2.647,4.506l-2.638,4.512l-2.628,4.515l-2.617,4.519l-2.609,4.53l-1.294,2.254l-1.294,2.261l-1.29,2.262l-1.287,2.262l-1.282,2.262l-1.279,2.262l-1.274,2.261l-1.27,2.261l-1.266,2.26l-1.26,2.259l-1.256,2.259l-1.251,2.258l-1.246,2.256l-1.24,2.256l-1.236,2.254l-1.229,2.253l-1.224,2.251l-1.218,2.249l-1.212,2.248l-1.206,2.245l-1.199,2.243l-1.194,2.242l-1.186,2.239l-1.18,2.236l-1.172,2.234l-1.167,2.231l-1.158,2.228l-1.151,2.225l-1.144,2.222l-1.136,2.22l-1.129,2.215l-1.119,2.211l-1.113,2.208l-1.104,2.204l-1.095,2.201l-1.088,2.197l-1.078,2.191l-1.069,2.187l-1.061,2.185l-1.052,2.178l-1.042,2.174l-1.033,2.169l-1.023,2.164l-1.014,2.158l-1.003,2.154l-0.994,2.148l-0.984,2.142l-0.973,2.136l-0.963,2.131l-0.952,2.124l-0.941,2.118l-0.931,2.113l-0.92,2.105l-0.908,2.099l-0.897,2.091l-0.886,2.085l-0.874,2.078l-0.862,2.07l-0.851,2.064l-0.838,2.055l-0.826,2.047l-0.814,2.04l-0.801,2.032l-0.789,2.023l-0.776,2.015l-0.763,2.007l-0.75,1.997l-0.737,1.988l-0.724,1.98l-0.71,1.971l-0.697,1.96l-0.683,1.95l-0.669,1.942l-0.656,1.932l-0.641,1.92l-0.627,1.91l-0.612,1.901l-0.599,1.89l-0.584,1.878l-0.569,1.866l-0.554,1.856l-0.539,1.844l-0.524,1.833l-0.515,1.84l-0.244,0.886l-0.245,0.903l-0.241,0.899l-0.237,0.895l-0.233,0.894l-0.23,0.891l-0.226,0.885l-0.221,0.884l-0.219,0.883l-0.214,0.876l-0.209,0.872l-0.207,0.87l-0.202,0.868l-0.198,0.865l-0.195,0.86l-0.189,0.855l-0.187,0.854l-0.182,0.851l-0.178,0.844l-0.174,0.843l-0.171,0.84l-0.166,0.835l-0.162,0.831l-0.157,0.826l-0.154,0.825l-0.151,0.823l-0.145,0.816l-0.142,0.814l-0.138,0.808l-0.133,0.804l-0.13,0.802l-0.125,0.798l-0.121,0.794l-0.118,0.789l-0.112,0.783l-0.109,0.782l-0.105,0.779l-0.101,0.772l-0.097,0.772l-0.092,0.763l-0.088,0.76l-0.085,0.758l-0.079,0.75l-0.076,0.748l-0.073,0.745l-0.067,0.739l-0.064,0.735l-0.059,0.729l-0.056,0.727l-0.051,0.721l-0.047,0.717l-0.044,0.713l-0.039,0.707l-0.035,0.703l-0.031,0.699l-0.027,0.694l-0.023,0.689l-0.019,0.684l-0.015,0.68l-0.01,0.668l-0.013,1.336l-0.004,1.328l0.006,1.324l0.014,1.32l0.024,1.32l0.034,1.318l0.042,1.314l0.051,1.312l0.061,1.311l0.069,1.308l0.079,1.304l0.087,1.303l0.097,1.301l0.105,1.299l0.114,1.296l0.123,1.292l0.132,1.291l0.141,1.288l0.149,1.286l0.158,1.284l0.167,1.281l0.176,1.278l0.184,1.275l0.193,1.274l0.201,1.272l0.21,1.267l0.219,1.265l0.227,1.264l0.235,1.26l0.244,1.256l0.253,1.256l0.261,1.253l0.269,1.249l0.278,1.248l0.286,1.244l0.294,1.24l0.303,1.24l0.31,1.236l0.32,1.233l0.327,1.231l0.335,1.226l0.343,1.224l0.352,1.222l0.361,1.22l0.367,1.216l0.376,1.212l0.384,1.211l0.392,1.207l0.401,1.205l0.407,1.201l0.416,1.197l0.424,1.196l0.432,1.193l0.439,1.188l0.448,1.185l0.455,1.184l0.463,1.179l0.471,1.176l0.478,1.173l0.487,1.17l0.494,1.167l0.502,1.164l0.509,1.16l0.516,1.156l0.525,1.155l0.533,1.15l0.539,1.146l0.547,1.143l0.554,1.14l0.563,1.137l0.57,1.133l0.577,1.13l0.584,1.126l0.592,1.121l0.599,1.118l0.607,1.117l0.614,1.112l0.621,1.107l0.628,1.105l0.636,1.1l0.642,1.097l0.65,1.093l0.658,1.09l0.664,1.085l0.671,1.081l0.679,1.078l0.686,1.075l0.692,1.069l0.699,1.065l0.707,1.063l0.714,1.058l0.72,1.054l0.728,1.05l0.734,1.045l0.741,1.042l0.748,1.038l0.755,1.033l0.761,1.029l0.769,1.025l0.775,1.021l0.781,1.016l0.789,1.012l0.795,1.008l0.801,1.003l0.808,0.999l0.816,0.995l0.821,0.99l0.827,0.984l0.835,0.982l0.841,0.977l0.847,0.972l0.853,0.967l0.86,0.963l0.866,0.958l0.873,0.953l0.879,0.948l0.885,0.944l0.892,0.94l0.896,0.933l0.905,0.93l0.91,0.925l0.915,0.919l0.923,0.915l0.928,0.909l0.934,0.905l0.941,0.9l0.945,0.894l0.953,0.89l0.958,0.885l0.964,0.879l0.97,0.875l0.975,0.868l0.981,0.864l0.988,0.859l0.993,0.853l0.998,0.847l1.004,0.843l1.011,0.837l1.016,0.832l1.021,0.827l1.026,0.82l1.032,0.815l1.039,0.811l1.043,0.804l1.048,0.798l1.055,0.793l1.06,0.788l1.065,0.782l1.069,0.776l1.076,0.77l1.081,0.765l1.086,0.759l1.091,0.753l1.097,0.747l1.101,0.741l1.107,0.735l1.112,0.73l1.117,0.724l1.121,0.717l1.128,0.712l1.131,0.705l1.137,0.699l1.142,0.694l1.146,0.687l1.151,0.681l1.156,0.674l1.161,0.669l1.166,0.662l1.171,0.657l1.175,0.649l1.18,0.644l1.185,0.637l1.188,0.63l1.193,0.624l1.198,0.618l1.203,0.612l1.207,0.604l1.213,0.599l1.215,0.591l1.22,0.585l1.225,0.579l1.229,0.572l1.234,0.565l1.237,0.559l1.242,0.551l1.246,0.545l1.25,0.539l1.254,0.531l1.259,0.524l1.263,0.518l1.266,0.511l1.27,0.504l1.275,0.497l1.279,0.49l1.282,0.483l1.287,0.476l1.291,0.469l1.293,0.461l1.297,0.455l1.303,0.447l1.305,0.441l1.31,0.433l1.312,0.426l1.316,0.418l1.321,0.412l1.323,0.404l1.328,0.397l1.331,0.389l1.334,0.382l1.338,0.375l1.342,0.367l1.344,0.36l1.349,0.352l1.351,0.345l1.355,0.337l1.358,0.329l1.362,0.322l1.365,0.315l1.368,0.306l1.371,0.299l1.374,0.292l1.378,0.283l1.38,0.276l1.384,0.268l1.387,0.26l1.39,0.253l1.392,0.244l1.396,0.237l1.399,0.228l1.402,0.221l1.404,0.213l1.407,0.204l1.41,0.197l1.414,0.189l1.415,0.18l1.42,0.173l1.421,0.164l1.423,0.156l1.427,0.148l1.429,0.14l1.432,0.131l1.435,0.123l1.437,0.115l1.439,0.107l1.442,0.098l1.446,0.089l1.447,0.082l1.449,0.073l1.452,0.064l1.455,0.056l1.456,0.047l1.459,0.039l1.461,0.031l1.464,0.021l1.466,0.013l1.466,0.005l1.464,-0.005l1.46,-0.013l1.458,-0.023l1.456,-0.031l1.452,-0.04l1.45,-0.049l1.448,-0.057l1.445,-0.066l1.442,-0.075l1.441,-0.084l1.438,-0.092l1.434,-0.101l1.433,-0.11l1.43,-0.118l1.427,-0.127l1.423,-0.135l1.423,-0.143l1.419,-0.153l1.415,-0.16l1.415,-0.169l1.41,-0.177l1.407,-0.186l1.406,-0.194l1.403,-0.202l1.399,-0.21l1.395,-0.219l1.394,-0.226l1.391,-0.235l1.387,-0.243l1.385,-0.252l1.382,-0.259l1.378,-0.267l1.375,-0.275l1.373,-0.284l1.369,-0.291l1.367,-0.299l1.362,-0.307l1.36,-0.315l1.358,-0.323l1.352,-0.331l1.351,-0.338l1.347,-0.346l1.344,-0.354l1.34,-0.362l1.337,-0.369l1.333,-0.377l1.331,-0.385l1.327,-0.392l1.323,-0.4l1.321,-0.407l1.317,-0.415l1.312,-0.422l1.309,-0.43l1.307,-0.437l1.302,-0.445l1.299,-0.452l1.295,-0.459l1.291,-0.466l1.288,-0.475l1.285,-0.481l1.28,-0.488l1.277,-0.496l1.272,-0.502l1.269,-0.51l1.266,-0.518l1.261,-0.524l1.257,-0.531l1.254,-0.539l1.25,-0.545l1.245,-0.552l1.242,-0.559l1.237,-0.567l1.234,-0.573l1.229,-0.58l1.225,-0.586l1.221,-0.594l1.216,-0.6l1.214,-0.608l1.209,-0.614l1.204,-0.62l1.201,-0.628l1.196,-0.634l1.191,-0.64l1.187,-0.647l1.183,-0.654l1.178,-0.66l1.174,-0.666l1.17,-0.674l1.165,-0.68l1.161,-0.686l1.156,-0.692l1.15,-0.699l1.148,-0.705l1.143,-0.712l1.137,-0.717l1.132,-0.723l1.128,-0.731l1.124,-0.736l1.119,-0.743l1.114,-0.749l1.108,-0.754l1.104,-0.761l1.1,-0.766l1.094,-0.774l1.09,-0.778l1.085,-0.786l1.08,-0.79l1.073,-0.796l1.07,-0.802l1.065,-0.809l1.058,-0.813l1.056,-0.821l1.049,-0.825l1.043,-0.831l1.039,-0.837l1.033,-0.842l1.028,-0.848l1.024,-0.855l1.018,-0.859l1.011,-0.865l1.007,-0.87l1.001,-0.875l0.996,-0.882l0.991,-0.887l0.984,-0.891l0.979,-0.897l0.975,-0.903l0.969,-0.908l0.962,-0.913l0.957,-0.919l0.952,-0.923l0.945,-0.929l0.941,-0.934l0.934,-0.939l0.929,-0.943l0.921,-0.949l0.919,-0.955l0.91,-0.958l0.906,-0.964l0.898,-0.968l0.894,-0.974l0.888,-0.98l0.881,-0.982l0.876,-0.989l0.87,-0.994l0.862,-0.996l0.857,-1.002l0.852,-1.007l0.845,-1.012l0.839,-1.016l0.832,-1.021l0.828,-1.027l0.819,-1.028l0.813,-1.033l0.809,-1.04l0.801,-1.043l0.793,-1.046l0.789,-1.052l0.783,-1.058l0.775,-1.06l0.77,-1.066l0.763,-1.069l0.754,-1.07l0.75,-1.078l0.745,-1.083l0.736,-1.085l0.729,-1.088l0.723,-1.094l0.718,-1.099l0.708,-1.099l0.704,-1.108l0.697,-1.11l0.689,-1.112l0.682,-1.116l0.677,-1.123l0.669,-1.124l0.662,-1.128l0.656,-1.133l0.649,-1.137l0.641,-1.139l0.634,-1.142l0.627,-1.147l0.621,-1.151l0.614,-1.154l0.606,-1.157l0.599,-1.161l0.593,-1.165l0.585,-1.17l0.578,-1.17l0.571,-1.175l0.563,-1.178l0.556,-1.18l0.548,-1.184l0.543,-1.189l0.535,-1.193l0.527,-1.193l0.519,-1.196l0.513,-1.202l0.505,-1.205l0.498,-1.207l0.489,-1.208l0.483,-1.214l0.475,-1.215l0.468,-1.219l0.46,-1.221l0.452,-1.226l0.446,-1.229l0.437,-1.229l0.43,-1.236l0.422,-1.236l0.414,-1.237l0.406,-1.241l0.399,-1.246l0.391,-1.247l0.384,-1.25l0.376,-1.253l0.367,-1.254l0.36,-1.259l0.352,-1.26l0.344,-1.261l0.336,-1.266l0.329,-1.269l0.32,-1.27l0.313,-1.273l0.304,-1.275l0.297,-1.279l0.288,-1.279l0.28,-1.282l0.272,-1.284l0.264,-1.288l0.256,-1.29l0.248,-1.293l0.239,-1.294l0.231,-1.293l0.223,-1.299l0.215,-1.301l0.206,-1.302l0.199,-1.307l0.19,-1.307l0.181,-1.307l0.173,-1.312l0.164,-1.312l0.157,-1.314l0.147,-1.318l0.14,-1.319l0.13,-1.322l0.123,-1.322l0.113,-1.325l0.105,-1.324l0.096,-1.33l0.088,-1.331l0.079,-1.332l0.071,-1.336l0.062,-1.336l0.053,-1.336l0.044,-1.336l0.014,-0.547l0.011,-0.547l0.006,-0.558l0.003,-0.563l-0.001,-0.563l-0.005,-0.574l-0.009,-0.584l-0.013,-0.584l-0.017,-0.59l-0.021,-0.594l-0.025,-0.6l-0.029,-0.609l-0.033,-0.615l-0.038,-0.62l-0.042,-0.629l-0.045,-0.63l-0.049,-0.629l-0.055,-0.644l-0.058,-0.649l-0.062,-0.649l-0.067,-0.658l-0.071,-0.664l-0.075,-0.672l-0.08,-0.672l-0.083,-0.672l-0.088,-0.686l-0.093,-0.691l-0.096,-0.695l-0.101,-0.699l-0.105,-0.699l-0.109,-0.708l-0.115,-0.717l-0.119,-0.722l-0.122,-0.721l-0.126,-0.724l-0.131,-0.734l-0.136,-0.738l-0.14,-0.742l-0.144,-0.746l-0.149,-0.754l-0.153,-0.754l-0.156,-0.757l-0.162,-0.766l-0.166,-0.77l-0.17,-0.774l-0.175,-0.777l-0.178,-0.781l-0.183,-0.785l-0.188,-0.793l-0.192,-0.796l-0.195,-0.796l-0.199,-0.8l-0.205,-0.811l-0.209,-0.81l-0.212,-0.814l-0.218,-0.822l-0.221,-0.821l-0.225,-0.824l-0.229,-0.832l-0.234,-0.835l-0.239,-0.838l-0.243,-0.845l-0.245,-0.845l-0.25,-0.848l-0.254,-0.851l-0.258,-0.854l-0.264,-0.865l-0.261,-0.844l-0.552,-1.756l-0.562,-1.753l-0.578,-1.767l-0.594,-1.778l-0.609,-1.791l-0.626,-1.806l-0.64,-1.817l-0.656,-1.829l-0.672,-1.843l-0.687,-1.856l-0.703,-1.866l-0.716,-1.877l-0.732,-1.889l-0.746,-1.901l-0.76,-1.91l-0.775,-1.922l-0.79,-1.933l-0.803,-1.943l-0.817,-1.952l-0.831,-1.963l-0.845,-1.974l-0.858,-1.981l-0.871,-1.992l-0.886,-2.002l-0.897,-2.008l-0.91,-2.019l-0.924,-2.029l-0.936,-2.036l-0.949,-2.043l-0.96,-2.053l-0.973,-2.06l-0.986,-2.069l-0.997,-2.075l-1.008,-2.083l-1.021,-2.091l-1.031,-2.098l-1.042,-2.104l-1.055,-2.112l-1.064,-2.117l-1.077,-2.126l-1.086,-2.131l-1.097,-2.136l-1.106,-2.143l-1.118,-2.149l-1.128,-2.155l-1.137,-2.159l-1.148,-2.168l-1.156,-2.169l-1.166,-2.175l-1.176,-2.183l-1.185,-2.186l-1.193,-2.189l-1.202,-2.195l-1.212,-2.2l-1.219,-2.202l-1.228,-2.208l-1.237,-2.212l-1.244,-2.214l-1.252,-2.218l-1.261,-2.224l-1.267,-2.225l-1.275,-2.228l-1.282,-2.232l-1.29,-2.234l-1.297,-2.238l-1.303,-2.24l-1.31,-2.242l-1.317,-2.246l-1.323,-2.246l-1.33,-2.249l-1.336,-2.251l-1.341,-2.254l-1.347,-2.254l-1.353,-2.255l-1.359,-2.258l-1.364,-2.259l-1.368,-2.259l-1.375,-2.261l-1.379,-2.261l-1.384,-2.263l-1.388,-2.263l-1.392,-2.262l-1.397,-2.264l-1.401,-2.263l-1.405,-2.263l-1.409,-2.264l-1.413,-2.264l-1.417,-2.263l-1.419,-2.261l-1.418,-2.255l-2.86,-4.529l-2.866,-4.517l-2.876,-4.511l-2.885,-4.506l-2.892,-4.498l-2.899,-4.49l-2.904,-4.48l-2.908,-4.47l-2.911,-4.458l-2.912,-4.447l-2.913,-4.432l-2.912,-4.418l-2.91,-4.403l-2.907,-4.386l-2.903,-4.368l-2.897,-4.35l-2.891,-4.33l-2.883,-4.31l-2.873,-4.288l-2.864,-4.265l-2.852,-4.243l-2.838,-4.214l-5.639,-8.361l-5.572,-8.246l-10.917,-16.135l-5.324,-7.87l-5.223,-7.73l-5.111,-7.578l-2.515,-3.737l-2.481,-3.693l-2.45,-3.653l-2.416,-3.612l-2.383,-3.569l-2.347,-3.526l-2.31,-3.482l-2.273,-3.437l-2.235,-3.392l-2.194,-3.345l-2.155,-3.299l-2.113,-3.251l-1.002,-1.551l-0.622,1.167Z" style="fill:#fff;"/><path d="M2464.83,375.865c-41.289,146.439 -191.421,344.306 -193.125,482.483c-1.554,125.997 79.058,223.52 205.064,223.52c126.006,0 199.775,-120.479 194.936,-236.02c-5.143,-122.782 -157.604,-324.668 -206.875,-469.983Z" style="fill:#00dcfb;"/><path d="M2179.73,839.296c0,0 14.649,67.323 90.301,68.151l98.819,1.704c0,0 61.504,17.63 103.931,69.855l129.488,-3.407c0,0 60.363,4.732 36.037,34.075c-8.918,10.757 -90.454,13.512 -102.484,17.038c-4.944,1.449 -2.727,4.458 29.221,0c31.569,-4.405 71.039,-2.508 80.078,-17.038c3.76,-6.044 6.879,-11.849 1.704,-18.741c0,0 88.361,-67.844 113.896,-74.967c0,0 30.122,-14.458 28.965,15.334c0,0 -88.575,136.043 -253.864,172.083c0,0 -343.576,55.874 -407.206,-315.247c0,0 -4.521,-215.256 51.114,51.16Z" style="fill:#004098;"/></g></g><g><circle cx="3740.25" cy="439.26" r="87.302" style="fill:none;stroke:#000;stroke-width:20.83px;"/><text x="3691.54px" y="487.171px" style="font-family:'Arial-BoldMT', 'Arial', sans-serif;font-weight:700;font-size:133.864px;">R</text></g></g></svg>