<?xml version="1.0" encoding="UTF-8" standalone="no"?><!DOCTYPE svg PUBLIC "-//W3C//DTD SVG 1.1//EN" "http://www.w3.org/Graphics/SVG/1.1/DTD/svg11.dtd"><svg width="100%" height="100%" viewBox="0 0 4167 4167" version="1.1" xmlns="http://www.w3.org/2000/svg" xmlns:xlink="http://www.w3.org/1999/xlink" xml:space="preserve" xmlns:serif="http://www.serif.com/" style="fill-rule:evenodd;clip-rule:evenodd;stroke-linejoin:round;stroke-miterlimit:1.41421;"><g><g><g><path d="M1660.84,1861.81c0,-311.895 -225.128,-508.171 -530.153,-508.171c-303.649,0 -528.776,196.276 -528.776,508.171c0,307.788 225.127,516.417 528.776,516.417c305.025,0 530.153,-208.629 530.153,-516.417Zm-251.21,0c0,175.881 -115.426,302.296 -278.943,302.296c-163.516,0 -277.566,-126.415 -277.566,-302.296c0,-170.384 112.676,-296.797 277.566,-296.797c164.891,0 278.943,126.413 278.943,296.797Z" style="fill:#026190;fill-rule:nonzero;"/><path d="M3564.75,1474.41c-85.11,-78.23 -208.652,-119.403 -318.579,-119.403c-181.409,0 -376.327,89.209 -376.327,304.811c0,175.879 124.912,239.085 248.472,278.932c127.855,41.222 202.092,64.581 202.092,138.779c0,78.321 -63.238,105.802 -134.727,105.802c-76.988,0 -163.472,-43.969 -210.142,-103.054l-153.774,156.58c85.141,89.209 225.152,139.99 363.916,139.99c192.38,0 372.201,-100.189 372.201,-324.051c0,-193.741 -170.212,-250.077 -302.087,-292.672c-92.111,-28.855 -149.852,-49.466 -149.852,-114.046c0,-76.947 75.613,-97.555 136.104,-97.555c60.49,0 133.268,32.974 173.076,83.814l149.627,-157.927Z" style="fill:#026190;fill-rule:nonzero;"/></g><g><path d="M738.176,2934.24l0,-327.84l107.179,0c35.576,0 62.333,7.355 80.271,22.066c17.938,14.711 26.907,36.476 26.907,65.298c0,15.311 -4.353,28.858 -13.06,40.642c-8.706,11.783 -20.565,20.903 -35.576,27.357c17.713,4.954 31.711,14.373 41.994,28.259c10.282,13.885 15.423,30.434 15.423,49.648c0,29.422 -9.531,52.539 -28.595,69.351c-19.064,16.812 -46.009,25.219 -80.835,25.219l-113.708,0Zm43.232,-153.338l0,117.987l71.377,0c20.115,0 35.989,-5.217 47.622,-15.649c11.634,-10.433 17.451,-24.806 17.451,-43.119c0,-39.479 -21.466,-59.219 -64.397,-59.219l-72.053,0Zm0,-34.675l65.298,0c18.913,0 34.037,-4.738 45.37,-14.215c11.334,-9.477 17,-22.339 17,-38.586c0,-18.053 -5.254,-31.179 -15.761,-39.378c-10.508,-8.198 -26.495,-12.298 -47.96,-12.298l-63.947,0l0,104.477Z" style="fill:#026190;fill-rule:nonzero;"/><path d="M1304.29,2938.74c-33.025,0 -59.894,-10.846 -80.609,-32.536c-20.716,-21.691 -31.073,-50.7 -31.073,-87.027l0,-7.655c0,-24.168 4.616,-45.746 13.847,-64.735c9.232,-18.989 22.142,-33.85 38.729,-44.583c16.587,-10.733 34.563,-16.099 53.927,-16.099c31.673,0 56.291,10.433 73.854,31.298c17.563,20.865 26.344,50.737 26.344,89.615l0,17.338l-165.046,0c0.601,24.018 7.618,43.419 21.053,58.205c13.435,14.786 30.51,22.179 51.225,22.179c14.711,0 27.17,-3.002 37.378,-9.007c10.207,-6.004 19.139,-13.96 26.794,-23.867l25.444,19.814c-20.415,31.373 -51.038,47.06 -91.867,47.06Zm-5.179,-218.41c-16.813,0 -30.923,6.117 -42.331,18.351c-11.409,12.234 -18.464,29.384 -21.166,51.45l122.04,0l0,-3.152c-1.201,-21.166 -6.905,-37.565 -17.113,-49.199c-10.207,-11.633 -24.017,-17.45 -41.43,-17.45Z" style="fill:#026190;fill-rule:nonzero;"/><path d="M1671.35,2690.61l1.351,30.623c18.614,-23.417 42.932,-35.126 72.954,-35.126c51.487,0 77.456,29.046 77.907,87.139l0,160.993l-41.656,0l0,-161.218c-0.15,-17.563 -4.165,-30.548 -12.046,-38.954c-7.881,-8.406 -20.152,-12.609 -36.815,-12.609c-13.509,0 -25.368,3.602 -35.576,10.808c-10.207,7.205 -18.163,16.662 -23.867,28.371l0,173.602l-41.656,0l0,-243.629l39.404,0Z" style="fill:#026190;fill-rule:nonzero;"/><rect x="2074.44" y="2690.61" width="41.655" height="243.628" style="fill:#026190;fill-rule:nonzero;"/><path d="M2118.45,2510.68c-74.3,35.562 -84.986,133.305 -25.517,149.24c22.725,6.089 46.082,-7.398 52.171,-30.123c12.489,-46.611 -49.592,-65.657 -26.654,-119.117Z" style="fill:#f27f0c;fill-rule:nonzero;"/><path d="M2509.05,2869.62c0,-11.258 -4.24,-20.002 -12.721,-26.231c-8.482,-6.23 -23.267,-11.596 -44.358,-16.1c-21.09,-4.503 -37.828,-9.907 -50.212,-16.212c-12.384,-6.304 -21.54,-13.81 -27.47,-22.516c-5.929,-8.706 -8.894,-19.064 -8.894,-31.073c0,-19.964 8.444,-36.852 25.331,-50.662c16.888,-13.81 38.466,-20.715 64.735,-20.715c27.62,0 50.024,7.13 67.212,21.391c17.188,14.26 25.781,32.498 25.781,54.715l-41.88,0c0,-11.409 -4.841,-21.241 -14.523,-29.497c-9.683,-8.256 -21.879,-12.384 -36.59,-12.384c-15.161,0 -27.02,3.302 -35.576,9.907c-8.556,6.605 -12.834,15.236 -12.834,25.894c0,10.058 3.978,17.638 11.934,22.742c7.955,5.104 22.328,9.982 43.119,14.636c20.79,4.653 37.64,10.207 50.549,16.662c12.91,6.454 22.479,14.223 28.709,23.304c6.229,9.082 9.344,20.153 9.344,33.212c0,21.766 -8.706,39.216 -26.119,52.351c-17.413,13.135 -40.004,19.702 -67.775,19.702c-19.514,0 -36.777,-3.453 -51.788,-10.358c-15.011,-6.905 -26.757,-16.549 -35.238,-28.933c-8.481,-12.384 -12.722,-25.782 -12.722,-40.192l41.656,0c0.75,13.96 6.342,25.031 16.774,33.212c10.433,8.181 24.206,12.271 41.318,12.271c15.762,0 28.409,-3.19 37.941,-9.57c9.531,-6.379 14.297,-14.898 14.297,-25.556Z" style="fill:#026190;fill-rule:nonzero;"/><path d="M2778.39,2810.17c0,-23.868 4.691,-45.333 14.072,-64.397c9.382,-19.064 22.442,-33.775 39.179,-44.133c16.737,-10.357 35.839,-15.536 57.305,-15.536c33.174,0 60.006,11.483 80.496,34.45c20.49,22.967 30.735,53.514 30.735,91.642l0,2.927c0,23.718 -4.541,44.996 -13.622,63.835c-9.082,18.838 -22.067,33.512 -38.954,44.019c-16.887,10.508 -36.289,15.762 -58.205,15.762c-33.024,0 -59.781,-11.484 -80.271,-34.45c-20.49,-22.967 -30.735,-53.364 -30.735,-91.192l0,-2.927Zm41.88,4.953c0,27.02 6.267,48.711 18.802,65.073c12.534,16.362 29.309,24.543 50.324,24.543c21.165,0 37.978,-8.294 50.437,-24.881c12.459,-16.587 18.689,-39.816 18.689,-69.688c0,-26.72 -6.343,-48.373 -19.027,-64.96c-12.684,-16.587 -29.534,-24.881 -50.549,-24.881c-20.565,0 -37.153,8.181 -49.762,24.543c-12.609,16.362 -18.914,39.779 -18.914,70.251Z" style="fill:#026190;fill-rule:nonzero;"/><path d="M3276.28,2690.61l1.351,30.623c18.614,-23.417 42.932,-35.126 72.954,-35.126c51.487,0 77.456,29.046 77.907,87.139l0,160.993l-41.656,0l0,-161.218c-0.15,-17.563 -4.166,-30.548 -12.046,-38.954c-7.881,-8.406 -20.153,-12.609 -36.815,-12.609c-13.51,0 -25.368,3.602 -35.576,10.808c-10.207,7.205 -18.163,16.662 -23.867,28.371l0,173.602l-41.656,0l0,-243.629l39.404,0Z" style="fill:#026190;fill-rule:nonzero;"/></g><path d="M2658.74,1579.44c1.507,-2.524 0.681,-5.797 -1.843,-7.304c-2.525,-1.507 -5.798,-0.68 -7.305,1.844l-102.793,172.215c-1.507,2.524 -0.681,5.797 1.844,7.304c2.524,1.507 5.797,0.681 7.304,-1.844l102.793,-172.215Z" style="fill:#2d752d;"/><path d="M2872.03,1228.13c0,0 -10.574,63.975 -2.697,113.86c0,0 39.112,130.03 -83.307,183.726c0,0 -95.517,17.038 -143.631,72.412c0,0 16.707,-49.018 -14.004,-142.656c0,0 -26.378,-138.746 120.668,-172.721c0,0 82.425,-3.516 102.296,-43.115c0,0 13.092,-13.522 20.675,-11.506Z" style="fill:#318a31;"/><path d="M2827.01,1704.47c0.083,3.24 -37.177,16.262 -62.987,15.329c0,0 -66.562,28.399 -105.13,-15.271c0,0 -22.988,-5.358 -30.979,-48.318c0,0 11.775,-27.371 51.2,-32.48c0,0 79.385,-13.648 113.044,42.867c0,0 1.67,4.513 15.783,19.505c0,0 12.749,7.259 19.069,18.368Z" style="fill:#318a31;"/><path d="M2472.61,1395.22c17.222,8.222 53.664,36.788 103.236,71.239c30.283,21.046 46.254,59.611 45.237,99.635c0,0 14.025,31.661 -21.819,77.483c0,0 -40.471,10.701 -80.301,-24.153c-21.071,-13.657 -41.977,-41.869 -45.421,-75.904c-5.946,-58.787 4.077,-69.286 1.196,-87.838c-5.561,-35.819 -12.532,-65.429 -2.128,-60.462Z" style="fill:#318a31;"/><path d="M2836.3,1281.36c0,0 -16.065,18.368 -38.139,47.482c-22.123,29.044 -50.137,68.993 -74.204,111.133c-12.05,21.054 -22.978,42.709 -31.857,63.484c-2.247,5.19 -36.495,76.509 -38.378,81.598c-2.015,5.038 -18.264,19.495 -15.986,14.402c2.143,-5.149 42.049,-95.215 44.548,-100.433c9.937,-20.855 21.896,-42.324 34.912,-63.088c26.003,-41.545 55.718,-80.422 79.037,-108.616c23.279,-28.257 40.067,-45.962 40.067,-45.962Z" style="fill:#2d752d;fill-rule:nonzero;"/><g><path d="M2798.05,1702.91c0,0 -10.759,-5.319 -27.399,-11.886c-16.614,-6.607 -39.171,-14.368 -62.299,-19.539c-11.559,-2.598 -23.269,-4.465 -34.308,-5.373c-2.762,-0.243 -41.117,-5.432 -43.785,-5.494c-2.66,-0.145 -11.566,-6.312 -8.848,-6.034c2.729,0.194 50.76,4.908 53.565,5.285c11.206,1.474 22.952,3.943 34.489,7.127c23.079,6.35 45.329,15.251 61.68,22.678c16.376,7.393 26.905,13.236 26.905,13.236Z" style="fill:#2d752d;fill-rule:nonzero;"/><g><path d="M2687.48,1662.35c0,0 2.414,-1.591 5.858,-4.437c1.718,-1.412 3.656,-3.174 5.641,-5.18c0.928,-1.067 1.958,-2.118 2.86,-3.309c0.855,-1.206 1.783,-2.467 2.656,-3.801c0.844,-1.327 1.801,-2.594 2.754,-3.825c0.933,-1.267 1.936,-2.374 2.858,-3.506c1.899,-2.218 3.732,-4.194 5.328,-5.857c3.192,-3.327 5.457,-5.33 5.457,-5.33c0,0 -2.192,2.126 -5.238,5.612c-1.527,1.742 -3.283,3.81 -5.072,6.105c-0.87,1.167 -1.832,2.333 -2.679,3.608c-0.883,1.242 -1.76,2.512 -2.563,3.898c-0.809,1.352 -1.681,2.663 -2.564,4.028c-0.902,1.306 -1.918,2.441 -2.843,3.61c-1.969,2.175 -3.893,4.091 -5.6,5.639c-1.7,1.542 -3.163,2.76 -4.199,3.602c-1.043,0.814 -1.644,1.284 -1.644,1.284l-1.01,-2.141Z" style="fill:#2d752d;fill-opacity:0.6;fill-rule:nonzero;"/><path d="M2667.54,1659.87c0,0 2.415,-1.591 5.858,-4.437c1.719,-1.412 3.656,-3.173 5.642,-5.179c0.928,-1.068 1.957,-2.118 2.859,-3.31c0.855,-1.206 1.783,-2.467 2.657,-3.8c0.844,-1.327 1.801,-2.595 2.754,-3.825c0.932,-1.268 1.936,-2.375 2.857,-3.507c1.899,-2.217 3.733,-4.193 5.329,-5.857c3.192,-3.327 5.456,-5.33 5.456,-5.33c0,0 -2.192,2.127 -5.237,5.613c-1.528,1.742 -3.283,3.809 -5.073,6.104c-0.869,1.167 -1.831,2.333 -2.678,3.608c-0.884,1.242 -1.76,2.512 -2.563,3.898c-0.809,1.352 -1.682,2.663 -2.564,4.029c-0.903,1.306 -1.918,2.44 -2.843,3.609c-1.969,2.176 -3.893,4.092 -5.601,5.64c-1.699,1.542 -3.162,2.76 -4.198,3.601c-1.043,0.814 -1.644,1.284 -1.644,1.284l-1.011,-2.141Z" style="fill:#2d752d;fill-opacity:0.6;fill-rule:nonzero;"/><path d="M2705.2,1666.28c0,0 2.271,-1.388 5.527,-3.896c1.624,-1.244 3.459,-2.802 5.346,-4.583c0.879,-0.953 1.856,-1.886 2.716,-2.952c0.817,-1.082 1.702,-2.212 2.538,-3.41c0.809,-1.193 1.722,-2.327 2.636,-3.427c0.884,-1.137 1.837,-2.123 2.714,-3.135c1.807,-1.978 3.548,-3.736 5.063,-5.215c3.029,-2.958 5.173,-4.728 5.173,-4.728c0,0 -2.073,1.887 -4.974,4.994c-1.452,1.553 -3.122,3.398 -4.828,5.452c-0.823,1.046 -1.745,2.086 -2.555,3.231c-0.844,1.114 -1.682,2.253 -2.453,3.502c-0.77,1.218 -1.611,2.395 -2.456,3.622c-0.862,1.172 -1.827,2.183 -2.709,3.228c-1.87,1.938 -3.695,3.638 -5.306,5.008c-1.615,1.363 -2.993,2.438 -3.978,3.178c-0.985,0.715 -1.553,1.128 -1.553,1.128l-0.901,-1.997Z" style="fill:#2d752d;fill-opacity:0.6;fill-rule:nonzero;"/><path d="M2721.15,1671.36c0,0 2.065,-1.312 5.031,-3.675c1.479,-1.175 3.146,-2.635 4.864,-4.311c0.799,-0.891 1.687,-1.764 2.47,-2.762c0.778,-1.049 1.562,-2.115 2.349,-3.177c0.798,-1.074 1.593,-2.148 2.379,-3.203c0.735,-1.09 1.682,-1.985 2.487,-2.932c1.643,-1.88 3.197,-3.58 4.607,-4.93c1.373,-1.4 2.54,-2.533 3.39,-3.274c0.839,-0.765 1.312,-1.2 1.312,-1.2c0,0 -0.458,0.463 -1.26,1.281c-0.811,0.788 -1.927,1.992 -3.235,3.469c-1.346,1.431 -2.815,3.211 -4.346,5.145c-0.756,0.989 -1.62,1.885 -2.321,3.028c-0.732,1.1 -1.476,2.22 -2.223,3.336c-0.756,1.129 -1.505,2.259 -2.245,3.369c-0.784,1.106 -1.658,2.068 -2.459,3.055c-1.706,1.837 -3.356,3.45 -4.829,4.752c-2.918,2.595 -5.026,4.112 -5.026,4.112l-0.945,-2.083Z" style="fill:#2d752d;fill-opacity:0.6;fill-rule:nonzero;"/><path d="M2735.05,1675.33c0.001,-0.003 1.946,-1.09 4.75,-3.086c1.397,-0.99 2.983,-2.243 4.616,-3.68c0.769,-0.772 1.622,-1.526 2.381,-2.401c0.745,-0.92 1.512,-1.853 2.271,-2.78c0.769,-0.94 1.538,-1.879 2.295,-2.796c0.725,-0.963 1.609,-1.727 2.384,-2.546c1.574,-1.627 3.06,-3.093 4.401,-4.246c1.31,-1.203 2.412,-2.177 3.215,-2.807c0.797,-0.653 1.252,-1.027 1.252,-1.027c0,0 -0.443,0.396 -1.212,1.086c-0.78,0.673 -1.847,1.702 -3.111,2.968c-1.294,1.222 -2.719,2.751 -4.207,4.428c-0.734,0.852 -1.567,1.622 -2.262,2.622c-0.719,0.964 -1.456,1.935 -2.186,2.915c-0.741,0.976 -1.479,1.965 -2.203,2.932c-0.767,0.958 -1.605,1.772 -2.377,2.625c-1.635,1.564 -3.213,2.93 -4.607,4.017c-2.775,2.182 -4.762,3.422 -4.761,3.418l-0.639,-1.642Z" style="fill:#2d752d;fill-opacity:0.6;fill-rule:nonzero;"/><path d="M2746.87,1679.7c0,0 1.594,-1.017 3.887,-2.847c1.138,-0.911 2.428,-2.044 3.751,-3.34c0.615,-0.69 1.308,-1.372 1.911,-2.146c0.596,-0.811 1.203,-1.633 1.811,-2.454c0.611,-0.828 1.226,-1.659 1.826,-2.476c0.575,-0.845 1.301,-1.534 1.919,-2.268c1.266,-1.451 2.465,-2.771 3.552,-3.812c1.058,-1.081 1.956,-1.962 2.616,-2.536c0.642,-0.588 1.011,-0.928 1.011,-0.928c0,0 -0.356,0.359 -0.977,0.986c-0.63,0.611 -1.489,1.537 -2.501,2.675c-1.042,1.101 -2.18,2.477 -3.364,3.972c-0.585,0.757 -1.249,1.451 -1.791,2.333c-0.57,0.85 -1.147,1.708 -1.728,2.57c-0.58,0.872 -1.165,1.739 -1.734,2.599c-0.605,0.85 -1.278,1.591 -1.904,2.35c-1.309,1.416 -2.592,2.658 -3.722,3.657c-2.259,1.997 -3.89,3.163 -3.89,3.163l-0.673,-1.498Z" style="fill:#2d752d;fill-opacity:0.6;fill-rule:nonzero;"/><path d="M2759.44,1684.46c0.001,-0.003 1.266,-0.691 3.103,-1.97c0.914,-0.636 1.955,-1.429 3.022,-2.353c0.507,-0.496 1.064,-0.982 1.558,-1.542c0.493,-0.593 0.998,-1.195 1.498,-1.795c0.509,-0.608 1.015,-1.213 1.513,-1.807c0.476,-0.623 1.07,-1.115 1.578,-1.649c1.038,-1.053 2.02,-1.999 2.899,-2.741c0.859,-0.778 1.591,-1.405 2.122,-1.809c0.518,-0.42 0.814,-0.659 0.814,-0.659c0,0 -0.285,0.258 -0.781,0.713c-0.513,0.44 -1.209,1.112 -2.029,1.942c-0.842,0.803 -1.775,1.804 -2.74,2.902c-0.477,0.558 -1.02,1.058 -1.466,1.717c-0.472,0.627 -0.95,1.268 -1.425,1.904c-0.48,0.647 -0.966,1.29 -1.438,1.926c-0.498,0.633 -1.048,1.172 -1.558,1.731c-1.069,1.032 -2.1,1.93 -3.014,2.646c-1.812,1.436 -3.114,2.258 -3.114,2.255l-0.542,-1.411Z" style="fill:#2d752d;fill-opacity:0.6;fill-rule:nonzero;"/><path d="M2770.12,1689.57c0,0 1.118,-0.532 2.751,-1.543c0.818,-0.505 1.738,-1.146 2.699,-1.888c0.454,-0.408 0.953,-0.797 1.405,-1.26c0.445,-0.487 0.9,-0.987 1.359,-1.481c0.46,-0.498 0.92,-1.003 1.374,-1.492c0.437,-0.513 0.96,-0.909 1.413,-1.344c0.938,-0.86 1.817,-1.63 2.608,-2.232c0.77,-0.624 1.421,-1.129 1.897,-1.454c0.46,-0.337 0.725,-0.529 0.725,-0.529c0,0 -0.258,0.209 -0.708,0.574c-0.458,0.35 -1.083,0.893 -1.828,1.568c-0.761,0.643 -1.599,1.464 -2.484,2.357c-0.429,0.459 -0.92,0.863 -1.335,1.406c-0.432,0.519 -0.869,1.043 -1.305,1.572c-0.442,0.531 -0.884,1.061 -1.319,1.587c-0.454,0.518 -0.95,0.951 -1.407,1.407c-0.966,0.828 -1.889,1.548 -2.705,2.119c-1.625,1.135 -2.775,1.77 -2.775,1.77l-0.365,-1.137Z" style="fill:#2d752d;fill-opacity:0.6;fill-rule:nonzero;"/><path d="M2782.19,1694.82c0,0 0.76,-0.403 1.851,-1.075c0.535,-0.361 1.14,-0.822 1.807,-1.299c0.293,-0.289 0.594,-0.59 0.903,-0.897c0.294,-0.294 0.643,-0.627 0.944,-0.975c0.309,-0.346 0.617,-0.688 0.919,-1.027c0.289,-0.352 0.648,-0.626 0.954,-0.926c0.627,-0.59 1.22,-1.123 1.749,-1.539c1.035,-0.871 1.768,-1.368 1.768,-1.368c0,0 -0.706,0.555 -1.685,1.506c-0.507,0.452 -1.064,1.021 -1.642,1.649c-0.284,0.317 -0.607,0.599 -0.884,0.975c-0.281,0.361 -0.572,0.729 -0.858,1.091c-0.281,0.371 -0.578,0.694 -0.899,1.063c-0.311,0.352 -0.619,0.694 -0.918,1.033c-0.655,0.548 -1.266,1.083 -1.811,1.497c-1.105,0.806 -1.849,1.266 -1.85,1.269l-0.348,-0.977Z" style="fill:#2d752d;fill-opacity:0.6;fill-rule:nonzero;"/><path d="M2791.5,1699.39c0,0 0.322,-0.172 0.772,-0.453c0.225,-0.15 0.476,-0.346 0.753,-0.546c0.245,-0.25 0.511,-0.517 0.773,-0.785c0.552,-0.526 1.04,-1.134 1.502,-1.466c0.442,-0.35 0.734,-0.585 0.734,-0.585c0,0 -0.276,0.258 -0.693,0.643c-0.427,0.358 -0.888,1.01 -1.4,1.581c-0.258,0.299 -0.512,0.597 -0.754,0.875c-0.272,0.235 -0.527,0.463 -0.747,0.642c-0.465,0.343 -0.773,0.537 -0.773,0.537l-0.167,-0.443Z" style="fill:#2d752d;fill-opacity:0.6;fill-rule:nonzero;"/><path d="M2688.43,1664.17c0,0 0.443,0.853 1.213,2.336c0.749,1.501 1.789,3.663 2.93,6.322c1.145,2.669 2.344,5.877 3.453,9.413c0.445,1.825 1.009,3.665 1.352,5.643c0.288,2.031 0.593,3.999 0.802,5.981c0.184,2.019 0.515,3.946 0.87,5.839c0.294,1.913 0.782,3.753 1.161,5.552c0.839,3.579 1.759,6.876 2.592,9.679c1.653,5.602 3.049,9.191 3.049,9.191c0,0 -1.547,-3.482 -3.457,-8.971c-0.953,-2.751 -2.014,-5.982 -3.021,-9.526c-0.458,-1.785 -1.025,-3.583 -1.424,-5.526c-0.442,-1.916 -0.867,-3.88 -1.131,-5.852c-0.294,-1.994 -0.69,-3.932 -1.031,-5.77c-0.404,-1.843 -1.032,-3.589 -1.532,-5.302c-1.222,-3.344 -2.521,-6.374 -3.753,-8.892c-2.458,-5.068 -4.401,-8.149 -4.401,-8.149l2.328,-1.968Z" style="fill:#2d752d;fill-opacity:0.6;fill-rule:nonzero;"/><path d="M2670.53,1661.99c0,0 0.468,0.834 1.281,2.284c0.794,1.471 1.9,3.594 3.124,6.218c1.231,2.636 2.538,5.82 3.772,9.353c0.513,1.836 1.143,3.675 1.564,5.679c0.371,2.064 0.755,4.062 1.047,6.084c0.269,2.063 0.677,4.015 1.107,5.932c0.371,1.941 0.928,3.789 1.376,5.604c0.974,3.605 2.015,6.909 2.948,9.714c1.854,5.607 3.369,9.165 3.369,9.165c0,0 -1.656,-3.432 -3.754,-8.896c-1.048,-2.739 -2.222,-5.962 -3.358,-9.513c-0.524,-1.793 -1.155,-3.589 -1.629,-5.552c-0.515,-1.929 -1.016,-3.911 -1.36,-5.917c-0.375,-2.026 -0.846,-3.983 -1.26,-5.843c-0.474,-1.859 -1.161,-3.595 -1.723,-5.31c-1.335,-3.322 -2.731,-6.314 -4.038,-8.784c-2.611,-4.974 -4.633,-7.952 -4.633,-7.952l2.167,-2.266Z" style="fill:#2d752d;fill-opacity:0.6;fill-rule:nonzero;"/><path d="M2707.85,1668.38c0,0 0.371,0.836 1.014,2.291c0.63,1.473 1.484,3.586 2.42,6.18c0.926,2.599 1.882,5.713 2.738,9.131c0.321,1.755 0.754,3.533 0.973,5.425c0.166,1.938 0.356,3.82 0.443,5.705c0.069,1.92 0.279,3.762 0.514,5.576c0.177,1.827 0.546,3.602 0.801,5.325c0.6,3.439 1.292,6.618 1.926,9.323c1.264,5.41 2.377,8.896 2.377,8.896c0,0 -1.266,-3.398 -2.769,-8.716c-0.75,-2.666 -1.576,-5.792 -2.335,-9.211c-0.337,-1.718 -0.774,-3.456 -1.041,-5.317c-0.321,-1.842 -0.618,-3.727 -0.763,-5.608c-0.173,-1.904 -0.444,-3.762 -0.669,-5.521c-0.282,-1.77 -0.78,-3.463 -1.156,-5.115c-0.973,-3.245 -2.032,-6.199 -3.053,-8.664c-2.037,-4.96 -3.688,-8.005 -3.688,-8.005l2.268,-1.695Z" style="fill:#2d752d;fill-opacity:0.6;fill-rule:nonzero;"/><path d="M2722.86,1672.22c0,0 1.444,2.923 3.152,7.519c0.866,2.311 1.747,5.072 2.557,8.113c0.307,1.566 0.71,3.148 0.928,4.835c0.166,1.671 0.333,3.361 0.507,5.057c0.171,1.677 0.338,3.358 0.501,5.009c0.105,1.68 0.535,3.182 0.792,4.724c0.559,3.045 1.14,5.885 1.791,8.263c0.58,2.408 1.108,4.4 1.544,5.751c0.408,1.38 0.644,2.163 0.644,2.163c0,0 -0.27,-0.761 -0.75,-2.103c-0.505,-1.321 -1.132,-3.266 -1.83,-5.627c-0.769,-2.327 -1.492,-5.127 -2.208,-8.175c-0.334,-1.528 -0.857,-3.079 -1.031,-4.719c-0.25,-1.632 -0.499,-3.292 -0.752,-4.953c-0.248,-1.64 -0.49,-3.284 -0.735,-4.905c-0.282,-1.563 -0.752,-3.059 -1.113,-4.518c-0.92,-2.865 -1.907,-5.469 -2.855,-7.644c-1.898,-4.367 -3.415,-7.039 -3.415,-7.039l2.273,-1.751Z" style="fill:#2d752d;fill-opacity:0.6;fill-rule:nonzero;"/><path d="M2736.41,1676.49c0.001,-0.004 1.329,2.372 2.935,6.153c0.811,1.89 1.655,4.169 2.448,6.686c0.311,1.301 0.71,2.605 0.96,4.012c0.199,1.393 0.402,2.819 0.614,4.233c0.199,1.411 0.41,2.817 0.607,4.206c0.152,1.412 0.571,2.665 0.844,3.948c0.583,2.547 1.183,4.909 1.818,6.882c0.581,2.006 1.095,3.651 1.514,4.774c0.398,1.136 0.627,1.789 0.627,1.789c0,0 -0.254,-0.638 -0.701,-1.747c-0.466,-1.091 -1.044,-2.708 -1.707,-4.67c-0.72,-1.929 -1.418,-4.254 -2.115,-6.799c-0.331,-1.275 -0.805,-2.55 -1.009,-3.941c-0.261,-1.362 -0.521,-2.753 -0.782,-4.145c-0.257,-1.374 -0.52,-2.757 -0.767,-4.115c-0.286,-1.316 -0.734,-2.568 -1.086,-3.788c-0.861,-2.382 -1.777,-4.544 -2.644,-6.34c-1.737,-3.606 -3.106,-5.801 -3.105,-5.805l1.549,-1.333Z" style="fill:#2d752d;fill-opacity:0.6;fill-rule:nonzero;"/><path d="M2747.74,1680.1c0,0 0.956,1.746 2.112,4.51c0.578,1.382 1.187,3.052 1.743,4.883c0.229,0.952 0.51,1.907 0.68,2.931c0.134,1.018 0.279,2.049 0.418,3.082c0.144,1.024 0.286,2.044 0.425,3.053c0.1,1.026 0.393,1.935 0.586,2.871c0.409,1.848 0.829,3.574 1.283,5.011c0.41,1.457 0.776,2.658 1.074,3.477c0.284,0.833 0.447,1.306 0.447,1.306c0,0 -0.183,-0.464 -0.503,-1.268c-0.341,-0.799 -0.763,-1.972 -1.239,-3.401c-0.521,-1.402 -1.021,-3.1 -1.522,-4.952c-0.234,-0.924 -0.585,-1.855 -0.73,-2.862c-0.182,-0.989 -0.37,-2 -0.557,-3.007c-0.185,-1 -0.369,-2.003 -0.549,-2.987c-0.203,-0.955 -0.527,-1.866 -0.777,-2.749c-0.622,-1.733 -1.285,-3.305 -1.908,-4.611c-1.262,-2.628 -2.249,-4.225 -2.249,-4.225l1.266,-1.062Z" style="fill:#2d752d;fill-opacity:0.6;fill-rule:nonzero;"/><path d="M2759.92,1685.1c0.001,-0.003 0.675,1.406 1.461,3.613c0.401,1.106 0.806,2.431 1.174,3.889c0.14,0.752 0.325,1.509 0.417,2.317c0.067,0.8 0.145,1.61 0.216,2.417c0.069,0.801 0.142,1.602 0.215,2.391c0.034,0.805 0.233,1.521 0.347,2.255c0.245,1.457 0.514,2.816 0.809,3.955c0.261,1.152 0.501,2.101 0.706,2.755c0.183,0.656 0.29,1.031 0.29,1.031c0,0 -0.126,-0.365 -0.347,-1.001c-0.238,-0.635 -0.531,-1.567 -0.853,-2.696c-0.358,-1.108 -0.697,-2.447 -1.027,-3.906c-0.153,-0.73 -0.398,-1.471 -0.478,-2.256c-0.112,-0.778 -0.225,-1.567 -0.34,-2.36c-0.111,-0.781 -0.225,-1.567 -0.333,-2.338c-0.127,-0.745 -0.347,-1.458 -0.516,-2.158c-0.424,-1.363 -0.89,-2.607 -1.333,-3.646c-0.889,-2.088 -1.601,-3.363 -1.6,-3.366l1.192,-0.896Z" style="fill:#2d752d;fill-opacity:0.6;fill-rule:nonzero;"/><path d="M2771.13,1689.99c0,0 0.518,1.259 1.107,3.222c0.295,0.986 0.585,2.16 0.843,3.449c0.085,0.656 0.214,1.322 0.258,2.031c0.027,0.694 0.055,1.4 0.083,2.11c0.025,0.698 0.052,1.4 0.082,2.087c-0.001,0.699 0.141,1.339 0.202,1.981c0.158,1.283 0.321,2.479 0.531,3.485c0.178,1.019 0.341,1.858 0.49,2.435c0.133,0.583 0.208,0.919 0.208,0.919c0,0 -0.091,-0.327 -0.248,-0.896c-0.177,-0.569 -0.383,-1.395 -0.611,-2.392c-0.258,-0.994 -0.484,-2.177 -0.704,-3.466c-0.092,-0.643 -0.265,-1.296 -0.299,-1.985c-0.062,-0.685 -0.119,-1.384 -0.181,-2.077c-0.064,-0.69 -0.122,-1.377 -0.176,-2.055c-0.077,-0.661 -0.234,-1.295 -0.345,-1.915c-0.306,-1.215 -0.641,-2.326 -0.978,-3.259c-0.667,-1.875 -1.221,-3.033 -1.221,-3.033l0.959,-0.641Z" style="fill:#2d752d;fill-opacity:0.6;fill-rule:nonzero;"/><path d="M2782.59,1694.83c0,0 0.382,0.888 0.876,2.315c0.234,0.718 0.454,1.586 0.704,2.496c0.063,0.489 0.13,0.991 0.193,1.506c0.064,0.533 0.134,1.007 0.16,1.516c0.036,0.509 0.074,1.019 0.106,1.519c0.02,0.511 0.137,0.969 0.198,1.436c0.136,0.925 0.288,1.787 0.466,2.514c0.295,1.477 0.588,2.42 0.588,2.42c0,0 -0.351,-0.913 -0.743,-2.351c-0.219,-0.709 -0.426,-1.561 -0.626,-2.491c-0.091,-0.463 -0.245,-0.934 -0.289,-1.435c-0.064,-0.493 -0.132,-0.995 -0.198,-1.5c-0.059,-0.502 -0.168,-1.022 -0.252,-1.472c-0.089,-0.47 -0.176,-0.929 -0.261,-1.375c-0.304,-0.854 -0.563,-1.652 -0.82,-2.314c-0.562,-1.299 -0.993,-2.146 -0.993,-2.146l0.891,-0.638Z" style="fill:#2d752d;fill-opacity:0.6;fill-rule:nonzero;"/><path d="M2791.87,1699.57c0,0 0.135,0.385 0.309,1c0.072,0.306 0.142,0.679 0.221,1.069c0.027,0.405 0.052,0.836 0.078,1.271c0.069,0.843 0.041,1.718 0.173,2.321c0.106,0.619 0.174,1.032 0.174,1.032c0,0 -0.096,-0.405 -0.245,-1.012c-0.178,-0.607 -0.203,-1.461 -0.332,-2.297c-0.049,-0.411 -0.103,-0.825 -0.152,-1.208c-0.106,-0.365 -0.193,-0.705 -0.286,-0.994c-0.2,-0.555 -0.361,-0.928 -0.361,-0.928l0.421,-0.254Z" style="fill:#2d752d;fill-opacity:0.6;fill-rule:nonzero;"/></g></g><g><path d="M2489.03,1433c0,0 9.297,11.642 21.664,30.088c12.408,18.401 27.788,43.707 40.179,70.39c6.208,13.331 11.57,27.04 15.592,40.189c1.024,3.285 17.464,48.431 18.245,51.651c0.879,3.189 10.716,12.359 9.659,9.135c-0.957,-3.259 -19.381,-60.265 -20.579,-63.568c-4.753,-13.201 -10.854,-26.795 -17.769,-39.945c-13.806,-26.311 -30.487,-50.942 -43.82,-68.809c-13.3,-17.907 -23.171,-29.131 -23.171,-29.131Z" style="fill:#2d752d;fill-rule:nonzero;"/><g><path d="M2567.48,1556.37c0,0 1.291,-3.349 3.831,-8.279c1.259,-2.457 2.883,-5.274 4.79,-8.212c1.05,-1.408 2.051,-2.935 3.258,-4.344c1.237,-1.356 2.52,-2.815 3.907,-4.227c1.386,-1.375 2.67,-2.871 3.91,-4.352c1.291,-1.466 2.368,-2.976 3.497,-4.393c2.187,-2.89 4.099,-5.637 5.694,-8.013c3.191,-4.751 5.021,-8.028 5.021,-8.028c0,0 -1.999,3.222 -5.421,7.838c-1.709,2.313 -3.752,4.989 -6.063,7.767c-1.185,1.363 -2.344,2.838 -3.667,4.202c-1.273,1.401 -2.581,2.8 -4.05,4.141c-1.425,1.338 -2.785,2.743 -4.207,4.175c-1.345,1.44 -2.453,2.971 -3.626,4.403c-2.118,2.963 -3.932,5.804 -5.358,8.284c-1.421,2.47 -2.511,4.566 -3.257,6.045c-0.712,1.481 -1.123,2.333 -1.123,2.333l2.864,0.66Z" style="fill:#2d752d;fill-opacity:0.6;fill-rule:nonzero;"/><path d="M2575.76,1579.9c0,0 1.291,-3.349 3.832,-8.278c1.259,-2.458 2.882,-5.274 4.79,-8.213c1.05,-1.408 2.051,-2.935 3.257,-4.343c1.237,-1.357 2.521,-2.816 3.907,-4.228c1.387,-1.375 2.67,-2.871 3.911,-4.352c1.291,-1.466 2.368,-2.976 3.497,-4.393c2.187,-2.89 4.099,-5.637 5.694,-8.013c3.191,-4.751 5.021,-8.027 5.021,-8.027c0,0 -1.999,3.221 -5.421,7.837c-1.709,2.313 -3.752,4.989 -6.063,7.767c-1.185,1.363 -2.345,2.838 -3.667,4.202c-1.273,1.401 -2.581,2.8 -4.05,4.141c-1.425,1.338 -2.785,2.743 -4.207,4.175c-1.346,1.44 -2.453,2.972 -3.626,4.403c-2.118,2.963 -3.932,5.804 -5.358,8.284c-1.421,2.47 -2.511,4.567 -3.258,6.046c-0.711,1.48 -1.122,2.333 -1.122,2.333l2.863,0.659Z" style="fill:#2d752d;fill-opacity:0.6;fill-rule:nonzero;"/><path d="M2580.71,1599.53c0,0 1.29,-3.349 3.831,-8.278c1.259,-2.458 2.882,-5.274 4.79,-8.213c1.05,-1.407 2.051,-2.934 3.258,-4.343c1.236,-1.356 2.52,-2.815 3.907,-4.227c1.386,-1.376 2.67,-2.872 3.91,-4.353c1.291,-1.466 2.368,-2.976 3.497,-4.393c2.187,-2.89 4.099,-5.636 5.694,-8.012c3.191,-4.752 5.021,-8.028 5.021,-8.028c0,0 -1.999,3.221 -5.421,7.837c-1.709,2.314 -3.752,4.989 -6.063,7.767c-1.185,1.363 -2.345,2.839 -3.667,4.203c-1.273,1.4 -2.581,2.8 -4.05,4.14c-1.425,1.339 -2.785,2.744 -4.207,4.176c-1.345,1.44 -2.453,2.971 -3.626,4.402c-2.118,2.964 -3.932,5.805 -5.358,8.285c-1.421,2.469 -2.511,4.566 -3.258,6.045c-0.711,1.48 -1.122,2.333 -1.122,2.333l2.864,0.659Z" style="fill:#2d752d;fill-opacity:0.6;fill-rule:nonzero;"/><path d="M2586.19,1616.04c0,0 1.125,-2.919 3.339,-7.214c1.097,-2.142 2.512,-4.596 4.174,-7.157c0.915,-1.227 1.788,-2.558 2.839,-3.785c1.078,-1.182 2.197,-2.454 3.405,-3.684c1.208,-1.199 2.326,-2.502 3.407,-3.793c1.125,-1.278 2.064,-2.594 3.048,-3.829c1.906,-2.518 3.572,-4.912 4.962,-6.982c2.781,-4.141 4.376,-6.996 4.376,-6.996c0,0 -1.743,2.807 -4.725,6.83c-1.489,2.016 -3.269,4.348 -5.283,6.769c-1.033,1.187 -2.043,2.473 -3.196,3.662c-1.109,1.221 -2.249,2.44 -3.529,3.608c-1.242,1.167 -2.427,2.391 -3.667,3.639c-1.172,1.255 -2.137,2.589 -3.159,3.837c-1.846,2.582 -3.427,5.058 -4.67,7.219c-1.238,2.152 -2.188,3.979 -2.839,5.268c-0.62,1.29 -0.978,2.033 -0.978,2.033l2.496,0.575Z" style="fill:#2d752d;fill-opacity:0.6;fill-rule:nonzero;"/><path d="M2558.02,1535.91c0,0 1.083,-3.121 3.263,-7.734c1.08,-2.299 2.484,-4.937 4.145,-7.696c0.923,-1.318 1.796,-2.75 2.862,-4.075c1.096,-1.277 2.232,-2.65 3.464,-3.981c1.233,-1.296 2.368,-2.703 3.46,-4.103c1.145,-1.373 2.088,-2.79 3.083,-4.122c1.922,-2.714 3.594,-5.291 4.987,-7.519c2.785,-4.457 4.365,-7.525 4.365,-7.525c0,0 -1.74,3.013 -4.741,7.354c-1.5,2.172 -3.295,4.685 -5.335,7.297c-1.051,1.276 -2.069,2.668 -3.243,3.954c-1.128,1.318 -2.288,2.636 -3.599,3.902c-1.273,1.256 -2.478,2.586 -3.742,3.936c-1.194,1.356 -2.165,2.794 -3.199,4.139c-1.855,2.782 -3.435,5.445 -4.671,7.761c-1.225,2.32 -2.165,4.275 -2.801,5.665c-0.607,1.385 -0.958,2.182 -0.958,2.182l2.66,0.565Z" style="fill:#2d752d;fill-opacity:0.6;fill-rule:nonzero;"/><path d="M2547.64,1517.92c0,0 1.045,-2.852 3.126,-7.075c1.035,-2.105 2.364,-4.512 3.942,-7.039c0.869,-1.205 1.694,-2.513 2.697,-3.726c1.066,-1.222 2.152,-2.455 3.231,-3.69c1.092,-1.252 2.185,-2.501 3.256,-3.732c1.127,-1.18 1.962,-2.566 2.898,-3.792c1.846,-2.49 3.496,-4.825 4.76,-6.893c1.335,-2.035 2.401,-3.751 3.075,-4.977c0.706,-1.219 1.108,-1.909 1.108,-1.909c0,0 -0.44,0.679 -1.22,1.868c-0.741,1.192 -1.907,2.864 -3.352,4.84c-1.379,2.011 -3.15,4.264 -5.09,6.633c-0.999,1.178 -1.858,2.463 -3.058,3.616c-1.142,1.178 -2.303,2.378 -3.459,3.579c-1.169,1.215 -2.341,2.423 -3.492,3.614c-1.134,1.243 -2.07,2.557 -3.055,3.79c-1.776,2.555 -3.296,4.984 -4.486,7.114c-2.375,4.226 -3.657,7.183 -3.657,7.183l2.776,0.596Z" style="fill:#2d752d;fill-opacity:0.6;fill-rule:nonzero;"/><path d="M2539.15,1502.11c0.004,-0.002 0.808,-2.648 2.487,-6.577c0.831,-1.956 1.931,-4.211 3.242,-6.572c0.733,-1.137 1.421,-2.371 2.283,-3.522c0.918,-1.148 1.846,-2.325 2.77,-3.491c0.937,-1.181 1.873,-2.362 2.785,-3.523c0.975,-1.134 1.668,-2.408 2.456,-3.564c1.558,-2.341 2.942,-4.53 3.986,-6.461c1.112,-1.907 2.003,-3.502 2.554,-4.642c0.581,-1.139 0.915,-1.791 0.915,-1.791c0,0 -0.364,0.642 -0.998,1.757c-0.609,1.124 -1.574,2.691 -2.776,4.559c-1.14,1.892 -2.618,4.026 -4.257,6.274c-0.84,1.115 -1.554,2.33 -2.583,3.437c-0.978,1.127 -1.961,2.278 -2.956,3.422c-0.988,1.157 -1.992,2.314 -2.973,3.447c-0.96,1.185 -1.725,2.417 -2.556,3.578c-1.464,2.396 -2.703,4.672 -3.653,6.65c-1.912,3.943 -2.89,6.681 -2.886,6.679l2.16,0.34Z" style="fill:#2d752d;fill-opacity:0.6;fill-rule:nonzero;"/><path d="M2530.72,1488.94c0,0 0.813,-2.202 2.425,-5.468c0.804,-1.62 1.838,-3.485 3.06,-5.433c0.674,-0.928 1.317,-1.949 2.097,-2.885c0.825,-0.937 1.661,-1.891 2.497,-2.845c0.843,-0.961 1.688,-1.926 2.519,-2.87c0.873,-0.921 1.517,-1.984 2.244,-2.927c1.425,-1.92 2.708,-3.724 3.684,-5.317c1.031,-1.569 1.862,-2.892 2.384,-3.843c0.543,-0.935 0.858,-1.473 0.858,-1.473c0,0 -0.342,0.527 -0.938,1.447c-0.574,0.925 -1.47,2.212 -2.583,3.74c-1.06,1.555 -2.427,3.3 -3.927,5.131c-0.764,0.91 -1.43,1.899 -2.356,2.79c-0.88,0.916 -1.769,1.843 -2.66,2.775c-0.904,0.935 -1.801,1.874 -2.694,2.791c-0.871,0.958 -1.59,1.971 -2.346,2.931c-1.372,1.962 -2.538,3.847 -3.451,5.481c-1.824,3.269 -2.807,5.555 -2.807,5.555l1.994,0.42Z" style="fill:#2d752d;fill-opacity:0.6;fill-rule:nonzero;"/><path d="M2521.62,1474.94c0.004,-0.002 0.504,-1.719 1.57,-4.285c0.529,-1.277 1.216,-2.749 2.054,-4.288c0.468,-0.746 0.91,-1.55 1.458,-2.298c0.589,-0.754 1.185,-1.526 1.781,-2.291c0.602,-0.778 1.202,-1.552 1.791,-2.313c0.629,-0.743 1.069,-1.592 1.582,-2.35c1.003,-1.537 1.891,-2.98 2.558,-4.241c0.716,-1.248 1.284,-2.302 1.633,-3.052c0.372,-0.74 0.584,-1.163 0.584,-1.163c0,0 -0.238,0.415 -0.658,1.136c-0.398,0.739 -1.029,1.761 -1.82,2.975c-0.75,1.233 -1.717,2.63 -2.794,4.091c-0.551,0.727 -1.013,1.517 -1.695,2.232c-0.636,0.739 -1.287,1.488 -1.932,2.232c-0.658,0.753 -1.308,1.514 -1.955,2.254c-0.636,0.771 -1.145,1.581 -1.688,2.347c-0.969,1.57 -1.785,3.058 -2.412,4.356c-1.262,2.577 -1.914,4.375 -1.911,4.373l1.854,0.285Z" style="fill:#2d752d;fill-opacity:0.6;fill-rule:nonzero;"/><path d="M2512.59,1463.34c0,0 0.35,-1.497 1.144,-3.745c0.396,-1.126 0.931,-2.411 1.576,-3.773c0.375,-0.659 0.715,-1.367 1.156,-2.038c0.474,-0.668 0.96,-1.352 1.438,-2.039c0.481,-0.69 0.973,-1.381 1.445,-2.061c0.507,-0.666 0.849,-1.405 1.257,-2.07c0.795,-1.365 1.496,-2.634 2.017,-3.753c0.553,-1.1 0.993,-2.023 1.261,-2.686c0.288,-0.648 0.45,-1.019 0.45,-1.019c0,0 -0.185,0.367 -0.508,1.01c-0.303,0.648 -0.797,1.551 -1.418,2.633c-0.579,1.092 -1.354,2.325 -2.203,3.636c-0.442,0.642 -0.802,1.343 -1.352,1.99c-0.514,0.662 -1.035,1.331 -1.561,1.999c-0.527,0.677 -1.053,1.353 -1.575,2.019c-0.509,0.688 -0.902,1.405 -1.335,2.08c-0.749,1.39 -1.378,2.7 -1.854,3.84c-0.948,2.271 -1.413,3.835 -1.413,3.835l1.475,0.142Z" style="fill:#2d752d;fill-opacity:0.6;fill-rule:nonzero;"/><path d="M2503.04,1450.09c0,0 0.287,-1.029 0.813,-2.529c0.297,-0.744 0.696,-1.6 1.098,-2.536c0.273,-0.431 0.559,-0.877 0.849,-1.332c0.279,-0.434 0.591,-0.946 0.933,-1.403c0.338,-0.466 0.672,-0.931 1.002,-1.386c0.351,-0.443 0.588,-0.951 0.871,-1.403c0.55,-0.916 1.04,-1.777 1.404,-2.528c0.783,-1.485 1.192,-2.506 1.192,-2.506c0,0 -0.486,1.004 -1.381,2.442c-0.415,0.735 -0.957,1.561 -1.566,2.428c-0.309,0.428 -0.566,0.895 -0.948,1.33c-0.364,0.436 -0.733,0.886 -1.097,1.33c-0.376,0.438 -0.689,0.884 -1.051,1.371c-0.344,0.47 -0.678,0.934 -1.01,1.386c-0.491,0.94 -0.979,1.822 -1.337,2.592c-0.685,1.554 -1.046,2.579 -1.05,2.581l1.278,0.163Z" style="fill:#2d752d;fill-opacity:0.6;fill-rule:nonzero;"/><path d="M2495.03,1440.01c0,0 0.124,-0.435 0.346,-1.055c0.122,-0.313 0.294,-0.669 0.464,-1.058c0.237,-0.364 0.49,-0.758 0.747,-1.146c0.491,-0.808 1.1,-1.561 1.38,-2.209c0.308,-0.629 0.516,-1.045 0.516,-1.045c0,0 -0.24,0.403 -0.596,1.01c-0.322,0.613 -0.991,1.344 -1.547,2.116c-0.296,0.392 -0.59,0.78 -0.863,1.146c-0.213,0.392 -0.422,0.761 -0.58,1.076c-0.293,0.655 -0.448,1.08 -0.448,1.08l0.581,0.085Z" style="fill:#2d752d;fill-opacity:0.6;fill-rule:nonzero;"/><path d="M2565.02,1555.7c0,0 -1.152,-0.312 -3.154,-0.853c-2.019,-0.512 -4.916,-1.202 -8.442,-1.881c-3.541,-0.684 -7.749,-1.29 -12.331,-1.699c-2.331,-0.056 -4.713,-0.254 -7.201,-0.146c-2.54,0.187 -5.007,0.338 -7.467,0.609c-2.498,0.311 -4.922,0.42 -7.312,0.49c-2.398,0.149 -4.759,0.043 -7.041,0.06c-4.563,-0.07 -8.805,-0.315 -12.424,-0.583c-7.233,-0.523 -11.955,-1.267 -11.955,-1.267c0,0 4.633,0.955 11.795,1.819c3.589,0.428 7.788,0.861 12.354,1.145c2.286,0.083 4.616,0.296 7.079,0.265c2.44,0.029 4.935,0.025 7.396,-0.177c2.497,-0.17 4.952,-0.203 7.27,-0.275c2.343,0.002 4.627,0.302 6.837,0.455c4.378,0.597 8.397,1.372 11.777,2.199c6.797,1.642 11.048,3.183 11.048,3.183l1.771,-3.344Z" style="fill:#2d752d;fill-opacity:0.6;fill-rule:nonzero;"/><path d="M2572.4,1576.83c0,0 -1.135,-0.347 -3.109,-0.949c-1.995,-0.574 -4.862,-1.353 -8.369,-2.145c-3.521,-0.795 -7.729,-1.537 -12.34,-2.1c-2.363,-0.136 -4.761,-0.414 -7.302,-0.394c-2.602,0.095 -5.127,0.158 -7.657,0.339c-2.573,0.219 -5.049,0.241 -7.486,0.227c-2.453,0.063 -4.841,-0.123 -7.162,-0.186c-4.629,-0.228 -8.913,-0.616 -12.561,-1.006c-7.291,-0.766 -12.007,-1.662 -12.007,-1.662c0,0 4.601,1.1 11.783,2.2c3.599,0.546 7.818,1.118 12.426,1.556c2.314,0.161 4.658,0.451 7.164,0.507c2.477,0.114 5.013,0.197 7.537,0.084c2.556,-0.081 5.055,-0.027 7.419,-0.018c2.381,0.084 4.668,0.458 6.897,0.686c4.382,0.74 8.38,1.641 11.721,2.573c6.724,1.851 10.871,3.516 10.871,3.516l2.175,-3.228Z" style="fill:#2d752d;fill-opacity:0.6;fill-rule:nonzero;"/><path d="M2577.36,1596.46c0,0 -1.135,-0.347 -3.109,-0.949c-1.995,-0.573 -4.862,-1.353 -8.369,-2.144c-3.521,-0.796 -7.729,-1.538 -12.34,-2.101c-2.363,-0.136 -4.761,-0.413 -7.302,-0.394c-2.602,0.096 -5.127,0.158 -7.657,0.339c-2.573,0.22 -5.048,0.242 -7.486,0.228c-2.453,0.062 -4.841,-0.124 -7.162,-0.187c-4.629,-0.227 -8.913,-0.616 -12.561,-1.006c-7.291,-0.766 -12.007,-1.662 -12.007,-1.662c0,0 4.601,1.101 11.783,2.2c3.599,0.546 7.818,1.118 12.426,1.556c2.314,0.162 4.658,0.452 7.164,0.508c2.477,0.113 5.013,0.196 7.537,0.083c2.556,-0.081 5.055,-0.027 7.419,-0.017c2.381,0.083 4.668,0.458 6.897,0.686c4.382,0.739 8.38,1.641 11.721,2.573c6.724,1.851 10.871,3.515 10.871,3.515l2.175,-3.228Z" style="fill:#2d752d;fill-opacity:0.6;fill-rule:nonzero;"/><path d="M2583.26,1613.37c0,0 -0.989,-0.303 -2.709,-0.828c-1.739,-0.499 -4.237,-1.179 -7.293,-1.868c-3.069,-0.693 -6.736,-1.341 -10.755,-1.831c-2.058,-0.119 -4.148,-0.36 -6.363,-0.343c-2.267,0.083 -4.467,0.138 -6.672,0.295c-2.243,0.191 -4.4,0.211 -6.524,0.198c-2.138,0.055 -4.219,-0.107 -6.242,-0.162c-4.034,-0.199 -7.767,-0.537 -10.946,-0.877c-6.354,-0.667 -10.463,-1.448 -10.463,-1.448c0,0 4.009,0.959 10.268,1.917c3.136,0.476 6.813,0.974 10.828,1.356c2.017,0.141 4.06,0.394 6.244,0.442c2.158,0.099 4.368,0.172 6.568,0.073c2.227,-0.071 4.405,-0.024 6.465,-0.015c2.075,0.072 4.068,0.399 6.011,0.597c3.818,0.645 7.302,1.431 10.214,2.243c5.86,1.613 9.474,3.063 9.474,3.063l1.895,-2.812Z" style="fill:#2d752d;fill-opacity:0.6;fill-rule:nonzero;"/><path d="M2554.77,1533.26c0,0 -1.113,-0.228 -3.047,-0.624c-1.954,-0.374 -4.743,-0.851 -8.136,-1.3c-3.398,-0.436 -7.428,-0.772 -11.8,-0.904c-2.213,0.074 -4.484,0.019 -6.836,0.254c-2.395,0.312 -4.728,0.578 -7.037,0.971c-2.346,0.425 -4.637,0.657 -6.899,0.852c-2.262,0.269 -4.512,0.291 -6.67,0.437c-4.33,0.183 -8.368,0.185 -11.817,0.132c-6.896,-0.103 -11.419,-0.531 -11.419,-0.531c0,0 4.457,0.637 11.305,1.053c3.431,0.204 7.441,0.379 11.788,0.395c2.173,-0.046 4.397,0.026 6.724,-0.144c2.32,-0.098 4.685,-0.236 7.005,-0.557c2.355,-0.295 4.68,-0.458 6.873,-0.65c2.221,-0.126 4.406,0.03 6.509,0.049c4.193,0.322 8.056,0.824 11.316,1.411c6.555,1.159 10.684,2.355 10.684,2.355l1.457,-3.199Z" style="fill:#2d752d;fill-opacity:0.6;fill-rule:nonzero;"/><path d="M2546.14,1516.07c0,0 -3.926,-0.979 -9.953,-1.835c-3.032,-0.438 -6.613,-0.776 -10.515,-0.955c-1.981,0.042 -4.007,-0.028 -6.111,0.154c-2.07,0.241 -4.164,0.485 -6.267,0.723c-2.079,0.236 -4.161,0.479 -6.207,0.717c-2.065,0.317 -4.001,0.193 -5.939,0.29c-3.842,0.127 -7.439,0.173 -10.496,0.014c-3.074,-0.067 -5.63,-0.181 -7.384,-0.352c-1.781,-0.129 -2.794,-0.209 -2.794,-0.209c0,0 0.995,0.126 2.749,0.353c1.737,0.264 4.261,0.51 7.309,0.732c3.026,0.317 6.613,0.453 10.5,0.515c1.942,0 3.96,0.225 5.996,0.002c2.046,-0.129 4.125,-0.265 6.206,-0.398c2.055,-0.134 4.113,-0.275 6.144,-0.406c1.97,-0.072 3.909,0.102 5.773,0.155c3.719,0.356 7.139,0.866 10.026,1.44c5.8,1.147 9.441,2.28 9.441,2.28l1.522,-3.22Z" style="fill:#2d752d;fill-opacity:0.6;fill-rule:nonzero;"/><path d="M2537.38,1500.77c0.005,-0.002 -3.228,-0.983 -8.239,-1.931c-2.507,-0.485 -5.494,-0.905 -8.757,-1.2c-1.659,-0.034 -3.347,-0.173 -5.119,-0.104c-1.743,0.127 -3.525,0.258 -5.297,0.375c-1.764,0.132 -3.524,0.248 -5.261,0.377c-1.754,0.188 -3.384,0.012 -5.012,0.02c-3.244,-0.033 -6.267,-0.135 -8.827,-0.384c-2.588,-0.174 -4.718,-0.363 -6.192,-0.573c-1.482,-0.183 -2.335,-0.288 -2.335,-0.288c0,0 0.841,0.14 2.304,0.389c1.447,0.276 3.561,0.549 6.116,0.834c2.529,0.364 5.534,0.595 8.805,0.767c1.634,0.065 3.307,0.302 5.047,0.181c1.721,-0.044 3.477,-0.096 5.234,-0.148c1.734,-0.051 3.482,-0.099 5.195,-0.158c1.671,-0.001 3.308,0.211 4.88,0.316c3.117,0.413 5.982,0.952 8.389,1.528c4.833,1.154 7.858,2.233 7.863,2.23l1.206,-2.231Z" style="fill:#2d752d;fill-opacity:0.6;fill-rule:nonzero;"/><path d="M2530,1487.98c0,0 -2.37,-0.696 -6.029,-1.368c-1.829,-0.335 -4.015,-0.632 -6.383,-0.822c-1.215,-0.026 -2.447,-0.114 -3.734,-0.05c-1.27,0.107 -2.559,0.204 -3.849,0.309c-1.28,0.096 -2.555,0.193 -3.815,0.292c-1.272,0.15 -2.451,0.035 -3.637,0.049c-2.35,-0.007 -4.554,-0.06 -6.417,-0.23c-1.876,-0.113 -3.43,-0.239 -4.502,-0.384c-1.085,-0.123 -1.702,-0.196 -1.702,-0.196c0,0 0.611,0.099 1.671,0.274c1.059,0.203 2.594,0.405 4.453,0.604c1.838,0.261 4.029,0.418 6.408,0.536c1.183,0.038 2.405,0.218 3.665,0.128c1.247,-0.041 2.523,-0.08 3.794,-0.121c1.261,-0.04 2.527,-0.081 3.768,-0.123c1.213,-0.007 2.402,0.145 3.54,0.214c2.266,0.296 4.348,0.685 6.098,1.095c3.519,0.835 5.718,1.611 5.718,1.611l0.953,-1.818Z" style="fill:#2d752d;fill-opacity:0.6;fill-rule:nonzero;"/><path d="M2520.72,1474.53c0.003,-0.002 -1.884,-0.447 -4.768,-0.816c-1.448,-0.194 -3.162,-0.335 -5.028,-0.395c-0.95,0.028 -1.916,0.004 -2.92,0.107c-0.988,0.13 -1.991,0.249 -2.989,0.378c-0.989,0.127 -1.98,0.251 -2.956,0.371c-0.986,0.172 -1.908,0.119 -2.828,0.175c-1.832,0.089 -3.55,0.122 -5.01,0.066c-1.466,-0.013 -2.681,-0.052 -3.528,-0.128c-0.844,-0.048 -1.327,-0.079 -1.327,-0.079c0,0 0.476,0.056 1.306,0.156c0.832,0.121 2.04,0.23 3.494,0.322c1.439,0.14 3.153,0.198 5.009,0.212c0.926,-0.008 1.89,0.094 2.863,-0.017c0.974,-0.071 1.961,-0.142 2.952,-0.212c0.977,-0.072 1.961,-0.142 2.924,-0.214c0.937,-0.043 1.86,0.034 2.754,0.055c1.765,0.152 3.398,0.39 4.775,0.652c2.767,0.525 4.502,1.051 4.506,1.05l0.771,-1.683Z" style="fill:#2d752d;fill-opacity:0.6;fill-rule:nonzero;"/><path d="M2511.82,1462.23c0,0 -1.664,-0.295 -4.201,-0.489c-1.274,-0.098 -2.774,-0.139 -4.406,-0.11c-0.818,0.07 -1.66,0.089 -2.531,0.224c-0.849,0.151 -1.713,0.303 -2.582,0.457c-0.852,0.154 -1.711,0.307 -2.552,0.453c-0.848,0.186 -1.661,0.183 -2.456,0.279c-1.598,0.148 -3.093,0.266 -4.367,0.278c-1.284,0.053 -2.345,0.077 -3.084,0.05c-0.742,-0.008 -1.17,-0.009 -1.17,-0.009c0,0 0.422,0.023 1.153,0.063c0.737,0.064 1.793,0.096 3.063,0.109c1.274,0.05 2.768,0.01 4.389,-0.064c0.805,-0.058 1.642,-0.021 2.488,-0.162c0.847,-0.106 1.71,-0.222 2.567,-0.329c0.853,-0.106 1.702,-0.218 2.539,-0.331c0.821,-0.081 1.632,-0.059 2.413,-0.089c1.555,0.051 2.991,0.162 4.211,0.324c2.452,0.314 4.002,0.68 4.002,0.68l0.524,-1.334Z" style="fill:#2d752d;fill-opacity:0.6;fill-rule:nonzero;"/><path d="M2502.92,1449.61c0,0 -1.178,-0.228 -3.04,-0.451c-0.932,-0.093 -2.043,-0.13 -3.213,-0.193c-0.61,0.054 -1.237,0.105 -1.878,0.165c-0.663,0.063 -1.257,0.104 -1.881,0.206c-0.627,0.092 -1.255,0.18 -1.87,0.274c-0.625,0.11 -1.211,0.09 -1.794,0.14c-1.158,0.08 -2.244,0.123 -3.173,0.1c-1.868,0.033 -3.09,-0.073 -3.09,-0.073c0,0 1.2,0.183 3.048,0.279c0.918,0.078 2.006,0.103 3.186,0.1c0.586,-0.012 1.198,0.051 1.817,-0.029c0.616,-0.052 1.242,-0.103 1.872,-0.157c0.625,-0.062 1.285,-0.067 1.853,-0.084c0.593,-0.016 1.172,-0.032 1.736,-0.047c1.116,0.143 2.153,0.246 3.023,0.383c1.724,0.338 2.866,0.636 2.866,0.636l0.538,-1.249Z" style="fill:#2d752d;fill-opacity:0.6;fill-rule:nonzero;"/><path d="M2494.72,1439.61c0,0 -0.502,-0.061 -1.295,-0.11c-0.39,-0.007 -0.86,0.008 -1.355,0.015c-0.498,0.075 -1.027,0.158 -1.562,0.241c-1.04,0.14 -2.094,0.405 -2.861,0.405c-0.779,0.035 -1.297,0.061 -1.297,0.061c0,0 0.516,0.01 1.293,0.03c0.782,0.055 1.825,-0.14 2.873,-0.205c0.512,-0.049 1.027,-0.092 1.506,-0.135c0.47,0.032 0.906,0.047 1.28,0.084c0.727,0.096 1.221,0.192 1.221,0.192l0.197,-0.578Z" style="fill:#2d752d;fill-opacity:0.6;fill-rule:nonzero;"/></g></g><g><path d="M2694.76,1476.11c0,0 -1.05,-5.302 -3.512,-13.109c-1.216,-3.892 -2.869,-8.353 -4.898,-13.009c-1.167,-2.23 -2.236,-4.65 -3.627,-6.883c-1.446,-2.151 -2.936,-4.463 -4.583,-6.703c-1.655,-2.181 -3.136,-4.552 -4.558,-6.9c-1.498,-2.325 -2.679,-4.717 -3.957,-6.963c-2.441,-4.58 -4.522,-8.932 -6.239,-12.697c-3.434,-7.528 -5.273,-12.717 -5.273,-12.717c0,0 2.094,5.103 5.891,12.418c1.894,3.666 4.18,7.906 6.824,12.31c1.371,2.161 2.679,4.499 4.246,6.662c1.488,2.221 3.026,4.44 4.808,6.566c1.721,2.123 3.331,4.351 5.025,6.622c1.582,2.283 2.802,4.71 4.139,6.979c2.325,4.696 4.245,9.197 5.694,13.125c1.445,3.911 2.506,7.232 3.222,9.574c0.665,2.345 1.051,3.695 1.051,3.695l-4.253,1.03Z" style="fill:#2d752d;fill-opacity:0.6;fill-rule:nonzero;"/><path d="M2678.16,1509.54c0,0 -1.05,-5.302 -3.512,-13.109c-1.216,-3.892 -2.869,-8.353 -4.898,-13.009c-1.167,-2.23 -2.237,-4.65 -3.627,-6.883c-1.447,-2.151 -2.936,-4.463 -4.583,-6.703c-1.656,-2.181 -3.136,-4.552 -4.558,-6.9c-1.498,-2.324 -2.679,-4.717 -3.957,-6.963c-2.441,-4.58 -4.522,-8.932 -6.239,-12.696c-3.434,-7.529 -5.273,-12.718 -5.273,-12.718c0,0 2.094,5.103 5.891,12.418c1.894,3.666 4.18,7.906 6.824,12.31c1.371,2.161 2.679,4.499 4.246,6.662c1.487,2.221 3.025,4.44 4.808,6.566c1.72,2.123 3.331,4.351 5.025,6.622c1.582,2.283 2.802,4.71 4.138,6.979c2.325,4.696 4.245,9.197 5.695,13.125c1.444,3.912 2.506,7.232 3.222,9.574c0.665,2.345 1.051,3.695 1.051,3.695l-4.253,1.03Z" style="fill:#2d752d;fill-opacity:0.6;fill-rule:nonzero;"/><path d="M2713.14,1443.8c0,0 -0.806,-4.941 -2.828,-12.245c-0.997,-3.641 -2.378,-7.819 -4.098,-12.189c-1.007,-2.089 -1.915,-4.357 -3.125,-6.458c-1.264,-2.024 -2.562,-4.2 -4.007,-6.31c-1.456,-2.056 -2.744,-4.286 -3.974,-6.504c-1.311,-2.176 -2.324,-4.422 -3.429,-6.532c-2.104,-4.301 -3.882,-8.384 -5.345,-11.914c-2.925,-7.061 -4.455,-11.919 -4.455,-11.919c0,0 1.773,4.772 5.033,11.65c1.628,3.442 3.6,7.424 5.895,11.564c1.2,2.022 2.325,4.229 3.699,6.267c1.3,2.09 2.646,4.179 4.219,6.187c1.523,1.992 2.93,4.101 4.417,6.242c1.385,2.149 2.432,4.427 3.591,6.56c1.993,4.407 3.619,8.625 4.836,12.294c1.201,3.673 2.079,6.77 2.659,8.971c0.54,2.192 0.852,3.455 0.852,3.455l-3.94,0.881Z" style="fill:#2d752d;fill-opacity:0.6;fill-rule:nonzero;"/><path d="M2732.28,1415.39c0,0 -0.817,-4.515 -2.79,-11.202c-0.979,-3.333 -2.307,-7.147 -3.964,-11.149c-0.956,-1.909 -1.824,-3.983 -2.971,-5.906c-1.235,-1.936 -2.494,-3.891 -3.745,-5.849c-1.263,-1.985 -2.529,-3.964 -3.769,-5.917c-1.331,-1.871 -2.196,-4.065 -3.243,-6.009c-2.048,-3.947 -3.854,-7.647 -5.17,-10.922c-1.426,-3.224 -2.542,-5.942 -3.215,-7.884c-0.719,-1.932 -1.13,-3.025 -1.13,-3.025c0,0 0.468,1.076 1.301,2.96c0.777,1.888 2.046,4.538 3.643,7.67c1.494,3.186 3.491,6.757 5.704,10.511c1.148,1.869 2.071,3.904 3.514,5.732c1.352,1.869 2.728,3.771 4.096,5.676c1.383,1.926 2.772,3.842 4.135,5.73c1.326,1.971 2.352,4.054 3.469,6.009c1.932,4.047 3.529,7.895 4.724,11.269c2.393,6.694 3.523,11.376 3.523,11.376l-4.112,0.93Z" style="fill:#2d752d;fill-opacity:0.6;fill-rule:nonzero;"/><path d="M2748.18,1390.43c-0.005,-0.004 -0.526,-4.192 -1.993,-10.413c-0.723,-3.097 -1.76,-6.667 -3.074,-10.407c-0.779,-1.8 -1.47,-3.756 -2.428,-5.581c-1.041,-1.818 -2.089,-3.683 -3.133,-5.532c-1.058,-1.872 -2.116,-3.744 -3.145,-5.583c-1.125,-1.798 -1.813,-3.816 -2.666,-5.648c-1.671,-3.708 -3.13,-7.178 -4.165,-10.236c-1.137,-3.02 -2.031,-5.546 -2.548,-7.352c-0.561,-1.804 -0.883,-2.836 -0.883,-2.836c0,0 0.368,1.017 1.009,2.784c0.604,1.78 1.612,4.261 2.887,7.222c1.18,2.996 2.787,6.377 4.597,9.94c0.936,1.768 1.668,3.691 2.877,5.447c1.131,1.787 2.263,3.611 3.414,5.425c1.139,1.834 2.3,3.669 3.433,5.464c1.091,1.878 1.893,3.829 2.805,5.669c1.524,3.797 2.756,7.401 3.644,10.534c1.797,6.244 2.545,10.579 2.54,10.575l-3.171,0.528Z" style="fill:#2d752d;fill-opacity:0.6;fill-rule:nonzero;"/><path d="M2763.36,1369.64c0,0 -0.639,-3.486 -2.168,-8.658c-0.765,-2.566 -1.8,-5.519 -3.084,-8.605c-0.744,-1.47 -1.421,-3.088 -2.314,-4.572c-0.957,-1.486 -1.926,-2.999 -2.895,-4.511c-0.977,-1.522 -1.956,-3.053 -2.921,-4.55c-1.03,-1.459 -1.698,-3.144 -2.513,-4.639c-1.582,-3.043 -2.989,-5.9 -4.005,-8.425c-1.102,-2.485 -1.975,-4.58 -2.496,-6.088c-0.555,-1.48 -0.877,-2.332 -0.877,-2.332c0,0 0.364,0.835 0.997,2.292c0.602,1.466 1.577,3.504 2.805,5.926c1.147,2.464 2.687,5.23 4.397,8.132c0.876,1.442 1.593,3.009 2.707,4.422c1.041,1.453 2.091,2.923 3.144,4.402c1.071,1.481 2.131,2.97 3.189,4.425c1.018,1.519 1.807,3.124 2.66,4.646c1.495,3.108 2.715,6.094 3.632,8.683c1.833,5.177 2.695,8.796 2.695,8.796l-2.953,0.656Z" style="fill:#2d752d;fill-opacity:0.6;fill-rule:nonzero;"/><path d="M2779.71,1347.55c-0.005,-0.003 -0.312,-2.72 -1.226,-6.782c-0.453,-2.023 -1.086,-4.354 -1.919,-6.791c-0.491,-1.182 -0.932,-2.456 -1.539,-3.641c-0.663,-1.194 -1.333,-2.418 -2.003,-3.63c-0.676,-1.234 -1.35,-2.46 -2.012,-3.667c-0.723,-1.177 -1.15,-2.522 -1.704,-3.724c-1.069,-2.434 -1.996,-4.719 -2.649,-6.718c-0.728,-1.977 -1.289,-3.646 -1.61,-4.833c-0.356,-1.172 -0.56,-1.841 -0.56,-1.841c0,0 0.243,0.656 0.672,1.799c0.394,1.171 1.053,2.79 1.895,4.713c0.78,1.953 1.831,4.167 3.024,6.481c0.615,1.153 1.089,2.404 1.894,3.538c0.733,1.171 1.486,2.36 2.233,3.539c0.762,1.194 1.511,2.399 2.26,3.573c0.726,1.222 1.261,2.504 1.856,3.719c1.012,2.486 1.826,4.843 2.413,6.899c1.193,4.081 1.699,6.927 1.694,6.924l-2.719,0.442Z" style="fill:#2d752d;fill-opacity:0.6;fill-rule:nonzero;"/><path d="M2795.38,1329.25c0,0 -0.143,-2.37 -0.745,-5.928c-0.299,-1.782 -0.758,-3.817 -1.357,-5.974c-0.38,-1.043 -0.698,-2.165 -1.169,-3.228c-0.519,-1.059 -1.051,-2.142 -1.571,-3.231c-0.525,-1.093 -1.064,-2.188 -1.578,-3.266c-0.566,-1.055 -0.88,-2.225 -1.306,-3.279c-0.812,-2.162 -1.513,-4.172 -1.991,-5.944c-0.53,-1.741 -0.94,-3.203 -1.166,-4.252c-0.257,-1.026 -0.402,-1.614 -0.402,-1.614c0,0 0.179,0.582 0.488,1.599c0.279,1.026 0.771,2.456 1.402,4.17c0.568,1.729 1.383,3.684 2.285,5.76c0.481,1.017 0.829,2.128 1.461,3.154c0.579,1.048 1.164,2.109 1.758,3.167c0.592,1.073 1.184,2.145 1.773,3.201c0.564,1.09 0.956,2.225 1.415,3.294c0.739,2.202 1.329,4.276 1.738,6.082c0.815,3.596 1.11,6.071 1.11,6.071l-2.145,0.218Z" style="fill:#2d752d;fill-opacity:0.6;fill-rule:nonzero;"/><path d="M2812.19,1308.33c0,0 -0.166,-1.628 -0.563,-4.003c-0.246,-1.179 -0.614,-2.534 -0.967,-4.016c-0.287,-0.682 -0.591,-1.388 -0.897,-2.109c-0.296,-0.688 -0.62,-1.498 -1.001,-2.224c-0.372,-0.739 -0.74,-1.474 -1.104,-2.195c-0.396,-0.704 -0.615,-1.508 -0.912,-2.223c-0.568,-1.451 -1.065,-2.815 -1.407,-4.005c-0.767,-2.352 -1.109,-3.968 -1.109,-3.968c0,0 0.457,1.589 1.395,3.868c0.418,1.164 0.997,2.473 1.662,3.846c0.34,0.68 0.596,1.418 1.04,2.108c0.416,0.691 0.837,1.405 1.253,2.108c0.433,0.696 0.775,1.402 1.176,2.173c0.381,0.745 0.749,1.481 1.116,2.197c0.479,1.488 0.967,2.885 1.295,4.105c0.611,2.461 0.884,4.083 0.889,4.085l-1.866,0.253Z" style="fill:#2d752d;fill-opacity:0.6;fill-rule:nonzero;"/><path d="M2826.05,1292.43c0,0 -0.074,-0.689 -0.244,-1.671c-0.1,-0.495 -0.261,-1.059 -0.411,-1.675c-0.253,-0.576 -0.522,-1.2 -0.797,-1.814c-0.511,-1.281 -1.202,-2.474 -1.449,-3.5c-0.291,-0.996 -0.489,-1.655 -0.489,-1.655c0,0 0.247,0.638 0.613,1.6c0.313,0.97 1.097,2.129 1.709,3.353c0.33,0.621 0.658,1.236 0.961,1.816c0.212,0.621 0.424,1.206 0.575,1.705c0.263,1.037 0.383,1.709 0.383,1.709l-0.851,0.132Z" style="fill:#2d752d;fill-opacity:0.6;fill-rule:nonzero;"/><path d="M2698.44,1475.06c0,0 1.72,-0.488 4.713,-1.335c3.01,-0.8 7.318,-1.878 12.522,-2.937c5.227,-1.064 11.389,-2.003 18.041,-2.63c3.347,-0.079 6.8,-0.381 10.334,-0.199c3.588,0.307 7.081,0.558 10.535,0.997c3.498,0.504 6.939,0.686 10.342,0.808c3.394,0.246 6.796,0.09 10.056,0.126c6.543,-0.09 12.668,-0.458 17.909,-0.865c10.469,-0.794 17.4,-1.949 17.4,-1.949c0,0 -6.853,1.489 -17.303,2.823c-5.235,0.661 -11.344,1.326 -17.941,1.754c-3.29,0.122 -6.674,0.447 -10.189,0.388c-3.496,0.035 -7.064,0.018 -10.537,-0.313c-3.53,-0.281 -7.033,-0.344 -10.332,-0.468c-3.352,-0.008 -6.689,0.456 -9.887,0.689c-6.404,0.924 -12.337,2.13 -17.367,3.424c-10.113,2.565 -16.56,4.984 -16.56,4.984l-1.736,-5.297Z" style="fill:#2d752d;fill-opacity:0.6;fill-rule:nonzero;"/><path d="M2682.86,1508.44c0,0 1.705,-0.543 4.672,-1.487c2.989,-0.898 7.275,-2.117 12.48,-3.353c5.226,-1.242 11.421,-2.397 18.149,-3.266c3.412,-0.205 6.908,-0.633 10.538,-0.59c3.699,0.163 7.295,0.273 10.87,0.571c3.629,0.358 7.164,0.404 10.654,0.393c3.494,0.11 6.954,-0.173 10.288,-0.263c6.675,-0.339 12.894,-0.934 18.205,-1.533c10.611,-1.179 17.569,-2.575 17.569,-2.575c0,0 -6.843,1.72 -17.376,3.426c-5.278,0.847 -11.448,1.732 -18.143,2.404c-3.348,0.246 -6.77,0.694 -10.368,0.771c-3.569,0.168 -7.216,0.288 -10.799,0.098c-3.637,-0.14 -7.224,-0.066 -10.608,-0.061c-3.425,0.121 -6.785,0.703 -10.027,1.053c-6.444,1.15 -12.376,2.558 -17.377,4.016c-10.057,2.897 -16.384,5.511 -16.384,5.511l-2.343,-5.115Z" style="fill:#2d752d;fill-opacity:0.6;fill-rule:nonzero;"/><path d="M2718.44,1439.62c0,0 1.645,-0.355 4.506,-0.971c2.883,-0.583 6.985,-1.325 11.946,-2.02c4.964,-0.674 10.807,-1.187 17.092,-1.377c3.148,0.127 6.409,0.05 9.717,0.433c3.351,0.504 6.625,0.936 9.834,1.568c3.255,0.683 6.476,1.06 9.664,1.378c3.172,0.435 6.386,0.48 9.437,0.722c6.15,0.307 11.924,0.329 16.871,0.26c9.888,-0.13 16.458,-0.787 16.458,-0.787c0,0 -6.526,0.987 -16.42,1.614c-4.956,0.307 -10.733,0.565 -16.954,0.572c-3.097,-0.083 -6.294,0.02 -9.583,-0.259c-3.295,-0.164 -6.645,-0.394 -9.886,-0.913c-3.298,-0.476 -6.585,-0.744 -9.676,-1.059c-3.147,-0.208 -6.309,0.028 -9.322,0.049c-6.074,0.49 -11.718,1.267 -16.52,2.181c-9.651,1.802 -15.842,3.675 -15.842,3.675l-1.322,-5.066Z" style="fill:#2d752d;fill-opacity:0.6;fill-rule:nonzero;"/><path d="M2734.86,1412.48c0,0 5.849,-1.529 14.672,-2.855c4.441,-0.681 9.644,-1.198 15.267,-1.463c2.824,0.075 5.737,-0.026 8.703,0.27c2.904,0.391 5.841,0.786 8.792,1.173c2.918,0.382 5.839,0.775 8.709,1.162c2.878,0.51 5.676,0.323 8.424,0.484c5.466,0.219 10.6,0.308 15.01,0.069c4.412,-0.092 8.095,-0.26 10.644,-0.522c2.579,-0.197 4.046,-0.318 4.046,-0.318c0,0 -1.452,0.194 -4.016,0.546c-2.547,0.408 -6.216,0.786 -10.627,1.123c-4.404,0.488 -9.567,0.687 -15.141,0.768c-2.777,-0.008 -5.718,0.338 -8.577,-0.024c-2.895,-0.213 -5.836,-0.438 -8.781,-0.657c-2.907,-0.221 -5.817,-0.453 -8.691,-0.67c-2.801,-0.123 -5.615,0.143 -8.295,0.219c-5.403,0.547 -10.415,1.336 -14.682,2.232c-8.567,1.787 -14.045,3.563 -14.045,3.563l-1.412,-5.1Z" style="fill:#2d752d;fill-opacity:0.6;fill-rule:nonzero;"/><path d="M2751.03,1388.31c-0.007,-0.004 4.851,-1.541 12.242,-3.017c3.702,-0.755 8.074,-1.407 12.81,-1.859c2.382,-0.045 4.829,-0.257 7.347,-0.14c2.463,0.208 4.981,0.424 7.487,0.617c2.492,0.217 4.982,0.408 7.436,0.619c2.463,0.306 4.837,0.035 7.163,0.055c4.648,-0.037 8.996,-0.186 12.718,-0.568c3.742,-0.263 6.833,-0.552 8.991,-0.878c2.164,-0.282 3.409,-0.445 3.409,-0.445c0,0 -1.236,0.218 -3.388,0.605c-2.136,0.43 -5.224,0.852 -8.945,1.291c-3.705,0.564 -8.058,0.916 -12.777,1.173c-2.353,0.095 -4.801,0.463 -7.262,0.264c-2.45,-0.077 -4.951,-0.168 -7.451,-0.258c-2.468,-0.088 -4.956,-0.172 -7.392,-0.273c-2.391,-0.009 -4.782,0.318 -7.056,0.477c-4.557,0.641 -8.782,1.478 -12.362,2.379c-7.187,1.803 -11.77,3.495 -11.776,3.492l-1.194,-3.534Z" style="fill:#2d752d;fill-opacity:0.6;fill-rule:nonzero;"/><path d="M2764.63,1368.13c0,0 3.556,-1.092 8.948,-2.136c2.696,-0.523 5.894,-0.982 9.326,-1.272c1.744,-0.036 3.528,-0.17 5.353,-0.062c1.791,0.174 3.612,0.333 5.432,0.505c1.808,0.158 3.608,0.318 5.387,0.479c1.783,0.244 3.497,0.068 5.19,0.094c3.363,0 6.528,-0.074 9.233,-0.334c2.71,-0.17 4.962,-0.362 6.53,-0.587c1.582,-0.19 2.481,-0.302 2.481,-0.302c0,0 -0.898,0.154 -2.455,0.426c-1.563,0.315 -3.807,0.628 -6.513,0.934c-2.691,0.404 -5.863,0.643 -9.293,0.819c-1.701,0.056 -3.492,0.334 -5.272,0.186c-1.774,-0.07 -3.59,-0.138 -5.398,-0.208c-1.795,-0.069 -3.594,-0.141 -5.36,-0.212c-1.732,-0.017 -3.47,0.219 -5.114,0.323c-3.312,0.458 -6.382,1.062 -8.982,1.704c-5.233,1.304 -8.562,2.521 -8.562,2.521l-0.931,-2.878Z" style="fill:#2d752d;fill-opacity:0.6;fill-rule:nonzero;"/><path d="M2781.1,1346.9c-0.004,-0.003 2.801,-0.699 7.014,-1.269c2.117,-0.3 4.602,-0.516 7.285,-0.602c1.352,0.049 2.74,0.016 4.152,0.182c1.382,0.21 2.787,0.404 4.184,0.611c1.385,0.206 2.773,0.407 4.141,0.601c1.368,0.276 2.699,0.197 4.002,0.29c2.599,0.148 5.049,0.208 7.151,0.126c2.1,-0.013 3.847,-0.069 5.076,-0.186c1.219,-0.073 1.917,-0.119 1.917,-0.119c0,0 -0.694,0.087 -1.905,0.241c-1.22,0.187 -2.972,0.354 -5.075,0.493c-2.091,0.216 -4.555,0.299 -7.214,0.313c-1.323,-0.017 -2.726,0.14 -4.091,-0.039c-1.376,-0.117 -2.77,-0.234 -4.172,-0.349c-1.38,-0.12 -2.771,-0.233 -4.132,-0.353c-1.329,-0.072 -2.668,0.046 -3.952,0.075c-2.56,0.233 -4.952,0.601 -6.983,1.01c-4.083,0.818 -6.69,1.642 -6.695,1.639l-0.703,-2.664Z" style="fill:#2d752d;fill-opacity:0.6;fill-rule:nonzero;"/><path d="M2796.75,1327.48c0,0 2.449,-0.458 6.124,-0.754c1.846,-0.15 4.001,-0.207 6.329,-0.155c1.153,0.115 2.352,0.149 3.567,0.366c1.178,0.243 2.378,0.487 3.583,0.735c1.183,0.247 2.375,0.493 3.544,0.728c1.167,0.297 2.332,0.297 3.446,0.451c2.251,0.242 4.36,0.435 6.18,0.46c1.824,0.09 3.335,0.133 4.398,0.093c1.063,-0.009 1.676,-0.009 1.676,-0.009c0,0 -0.608,0.034 -1.665,0.095c-1.068,0.098 -2.586,0.144 -4.406,0.158c-1.833,0.073 -3.961,0.004 -6.263,-0.121c-1.137,-0.095 -2.343,-0.041 -3.519,-0.267c-1.186,-0.171 -2.393,-0.358 -3.593,-0.533c-1.195,-0.171 -2.383,-0.351 -3.553,-0.534c-1.155,-0.132 -2.32,-0.101 -3.43,-0.151c-2.237,0.072 -4.316,0.243 -6.101,0.493c-3.581,0.486 -5.885,1.057 -5.885,1.057l-0.432,-2.112Z" style="fill:#2d752d;fill-opacity:0.6;fill-rule:nonzero;"/><path d="M2812.49,1307.57c0,0 1.74,-0.356 4.455,-0.699c1.356,-0.144 2.952,-0.197 4.641,-0.291c0.86,0.087 1.744,0.171 2.647,0.268c0.933,0.104 1.773,0.17 2.642,0.335c0.874,0.148 1.752,0.291 2.61,0.441c0.867,0.178 1.71,0.148 2.532,0.23c1.637,0.131 3.18,0.204 4.514,0.172c2.665,0.061 4.438,-0.101 4.438,-0.101c0,0 -1.76,0.285 -4.427,0.428c-1.331,0.119 -2.894,0.153 -4.58,0.143c-0.836,-0.021 -1.726,0.075 -2.593,-0.053c-0.868,-0.086 -1.752,-0.17 -2.64,-0.257c-0.879,-0.101 -1.821,-0.112 -2.629,-0.142c-0.845,-0.028 -1.67,-0.055 -2.473,-0.082c-1.63,0.221 -3.137,0.379 -4.415,0.593c-2.546,0.525 -4.249,0.992 -4.249,0.992l-0.473,-1.977Z" style="fill:#2d752d;fill-opacity:0.6;fill-rule:nonzero;"/><path d="M2826.59,1291.79c0,0 0.732,-0.095 1.877,-0.168c0.56,-0.009 1.23,0.016 1.935,0.029c0.695,0.121 1.432,0.255 2.176,0.389c1.455,0.226 2.9,0.649 3.997,0.653c1.106,0.058 1.841,0.103 1.841,0.103c0,0 -0.741,0.012 -1.857,0.041c-1.132,0.084 -2.577,-0.23 -4.061,-0.336c-0.72,-0.08 -1.447,-0.152 -2.121,-0.222c-0.681,0.048 -1.307,0.072 -1.851,0.128c-1.062,0.147 -1.792,0.298 -1.792,0.298l-0.144,-0.915Z" style="fill:#2d752d;fill-opacity:0.6;fill-rule:nonzero;"/></g><path d="M2632.14,1660.85c1.402,0.165 2.673,-0.839 2.838,-2.24c0.165,-1.401 -0.839,-2.673 -2.24,-2.838l-22.304,-2.625c-1.401,-0.165 -2.673,0.839 -2.838,2.24c-0.165,1.401 0.839,2.672 2.24,2.837l22.304,2.626Z" style="fill:#2d752d;"/><path d="M2590.47,1623.46c-0.514,-1.524 -2.168,-2.344 -3.693,-1.83c-1.524,0.514 -2.344,2.168 -1.83,3.692l12.753,37.823c0.514,1.524 2.169,2.345 3.693,1.831c1.524,-0.514 2.344,-2.169 1.83,-3.693l-12.753,-37.823Z" style="fill:#2d752d;"/></g><g><g><path d="M2699.98,2355.95l0,-610.12l-229.613,0l5.536,399.454l-4.151,0l228.228,210.666Z" style="fill:#026190;fill-rule:nonzero;"/></g><path d="M2699.98,2355.95l-222.278,-335.474l-4.117,0l-390.124,-630.042l-267.605,0l0,965.516l227.769,0l-5.492,-631.4l4.118,0l391.497,631.4l266.232,0Z" style="fill:#f27f20;fill-rule:nonzero;"/></g></g></svg>